<?xml version="1.0" standalone="no"?>
<!DOCTYPE svg PUBLIC "-//W3C//DTD SVG 1.1//EN" "http://www.w3.org/Graphics/SVG/1.1/DTD/svg11.dtd">
<svg xmlns="http://www.w3.org/2000/svg">
<defs >
<font id="BalooBhaina2" horiz-adv-x="556" ><font-face
    font-family="Baloo Bhaina 2"
    units-per-em="1000"
    panose-1="0 0 0 0 0 0 0 0 0 0"
    ascent="1185"
    descent="-827"
    alphabetic="0" />
<glyph unicode=" " horiz-adv-x="200" />
<glyph unicode="!" horiz-adv-x="284" d="M215 614V614Q215 592 214 555T211 474T207 383T201 294T195 218Q187 212 170 208T141 204Q117 204 100 212T79 243Q76 265 74 305T69 394T66 494T63 589T62 663Q99 683 143 683Q215 683 215 614ZM57 67V67Q57 103 79
126T141 149Q180 149 202 126T225 67Q225 31 203 8T141 -16Q102 -16 80 7T57 67Z" />
<glyph unicode="&quot;" horiz-adv-x="368" d="M141 441V441Q131 436 119 435T91 433Q69 433 54 441T38 472L27 663Q39 673 56 678T95 683Q126 683 142 671T159 629Q159 612 156 577T149 505T141 441ZM321 441V441Q311 436 299 435T271 433Q249 433 235 441T218
472L207 663Q219 673 236 678T275 683Q307 683 323 671T339 629Q339 612 337 577T330 505T321 441Z" />
<glyph unicode="#" horiz-adv-x="700" d="M590 139H48Q43 147 39 161T34 191Q34 221 47 234T84 247H626Q631 238 635 224T640 194Q640 165 627 152T590 139ZM618 368H76Q71 377 66 391T61 421Q61 451 75 463T112 476H654Q659 468 663 454T668 424Q668 395 655
382T618 368ZM333 472L230 -2Q219 -3 209 -3T188 -4Q158 -4 139 8T120 54Q120 75 125 99T135 141L237 614Q248 616 259 616T279 616Q310 616 329 604T348 559Q348 538 343 515T333 472ZM566 472L463 -2Q452 -3 442 -3T422 -4Q391 -4 372 8T353 54Q353 75 358 99T368
141L470 614Q481 616 492 616T512 616Q543 616 562 604T581 559Q581 538 576 515T566 472Z" />
<glyph unicode="$" horiz-adv-x="552" d="M211 73H337V-70Q329 -72 314 -74T281 -77Q245 -77 228 -64T211 -17V73ZM337 550H211V713Q219 716 234 718T267 720Q304 720 320 707T337 660V550ZM256 121V121Q310 121 334 141T359 190Q359 216 340 232T283 260L228
278Q174 296 134 317T72 373T49 461Q49 543 111 592T284 641Q341 641 385 630T455 598T481 546Q481 525 471 509T444 481Q422 497 383 508T299 520Q250 520 225 504T200 461Q200 440 216 427T267 403L323 386Q413 358 461 312T510 188Q510 105 446 53T260 1Q199
1 151 14T75 51T47 108Q47 133 62 151T95 178Q122 156 163 139T256 121Z" />
<glyph unicode="%" horiz-adv-x="791" d="M346 527V527Q346 456 303 415T191 373Q124 373 80 414T36 527Q36 599 80 639T191 680Q259 680 302 640T346 527ZM142 527V527Q142 494 156 478T191 461Q213 461 226 477T240 527Q240 559 227 575T191 592Q170 592 156
576T142 527ZM193 100L555 681Q586 677 609 665T633 632Q633 619 626 605T608 573L246 -7Q212 -4 190 9T168 42Q168 56 175 69T193 100ZM755 146V146Q755 75 711 34T600 -8Q532 -8 489 33T445 146Q445 217 488 258T600 299Q667 299 711 258T755 146ZM551 146V146Q551
113 565 97T600 80Q621 80 635 96T649 146Q649 178 635 194T600 210Q579 210 565 194T551 146Z" />
<glyph unicode="&amp;" horiz-adv-x="663" d="M541 112L486 62Q447 22 392 3T279 -16Q204 -16 151 10T69 81T40 186Q40 236 60 273T113 335T184 373L250 285Q230 280 214 267T187 236T177 193Q177 152 205 124T286 96Q309 96 343 106T409 148L452 214Q465 247
470 289T475 371Q491 378 506 381T535 384Q574 384 587 362T601 305Q601 260 587 209T541 112ZM566 -14V-14Q532 -14 499 20L210 312L184 351Q148 390 138 419T127 474Q127 516 148 549T208 602T305 622Q366 622 392 602T418 550Q418 535 412 521T394 496Q381 502
365 506T330 510Q301 510 283 497T264 457Q264 437 276 421T314 379L637 60Q635 27 615 7T566 -14Z" />
<glyph unicode="&apos;" horiz-adv-x="195" d="M149 444V444Q139 439 125 436T95 433Q71 433 55 443T38 475L27 661Q39 670 57 676T98 683Q131 683 148 670T166 626Q166 609 164 576T157 506T149 444Z" />
<glyph unicode="(" horiz-adv-x="290" d="M217 -66V-66Q184 -66 161 -45T120 7Q87 63 67 144T46 333Q46 439 67 521T120 657Q137 687 160 708T217 729Q240 729 258 716T285 688Q236 616 209 531T182 333Q182 219 208 136T285 -24Q276 -40 258 -53T217 -66Z" />
<glyph unicode=")" horiz-adv-x="290" d="M73 -66V-66Q107 -66 130 -45T170 7Q204 63 224 144T245 333Q245 439 224 521T170 657Q153 687 130 708T73 729Q50 729 32 716T5 688Q55 616 81 531T108 333Q108 219 83 136T5 -24Q14 -40 32 -53T73 -66Z" />
<glyph unicode="*" horiz-adv-x="335" d="M151 595L182 499L25 545Q20 561 20 577Q20 599 32 611T67 624Q74 624 81 622T97 617L151 595ZM222 552L128 414Q123 413 118 412T108 411Q79 411 65 423T50 454Q50 465 55 475T69 496L107 543L222 552ZM143 521L194 589L292
456Q287 436 273 424T238 411Q218 411 207 423T186 451L143 521ZM135 570L276 634Q290 628 301 615T312 583Q312 562 301 554T271 538L203 509L135 570ZM210 566L124 524L122 684Q130 689 142 694T169 700Q190 700 202 690T214 659Q214 654 213 635T211 596T210
566Z" />
<glyph unicode="+" horiz-adv-x="546" d="M456 235H50Q44 245 40 258T36 289Q36 321 51 335T90 349H496Q501 340 505 325T510 292Q510 262 495 249T456 235ZM340 470V56Q331 54 314 51T279 48Q245 48 227 60T209 110V524Q219 526 236 529T270 532Q304 532 322
520T340 470Z" />
<glyph unicode="," horiz-adv-x="215" d="M126 -79V-79Q98 -117 55 -117Q17 -117 -9 -94Q4 -57 15 -16T36 65T51 138Q66 146 85 151T126 156Q153 156 172 144T192 100Q192 75 182 40T156 -27T126 -79Z" />
<glyph unicode="-" horiz-adv-x="364" d="M274 198H52Q47 208 42 223T37 255Q37 286 52 300T90 315H312Q317 306 322 291T327 258Q327 227 313 213T274 198Z" />
<glyph unicode="." horiz-adv-x="210" d="M20 70V70Q20 106 43 131T105 156Q144 156 167 131T190 70Q190 34 167 9T105 -16Q66 -16 43 9T20 70Z" />
<glyph unicode="/" horiz-adv-x="332" d="M304 604L125 -59Q114 -60 103 -60T82 -61Q48 -61 29 -46T9 3Q9 25 16 48T28 90L206 752Q219 754 230 754T250 755Q284 755 303 741T323 694Q323 671 317 649T304 604Z" />
<glyph unicode="0" horiz-adv-x="610" d="M431 315V315Q431 389 415 437T370 509T304 533Q268 533 240 509T195 436T179 315Q179 206 212 151T304 96Q365 96 398 151T431 315ZM305 -15V-15Q227 -15 168 21T75 131T41 315Q41 426 76 499T171 608T305 644Q379 644
439 608T534 499T569 315Q569 205 536 132T443 22T305 -15Z" />
<glyph unicode="1" horiz-adv-x="383" d="M305 176H167V498L52 454Q37 461 24 476T11 518Q11 566 71 588L199 637H230Q264 637 284 617T305 562V176ZM167 273H305V0Q296 -2 279 -5T243 -8Q204 -8 186 6T167 56V273Z" />
<glyph unicode="2" horiz-adv-x="528" d="M59 549V549Q59 578 82 599T147 632T241 644Q317 644 369 620T448 553T475 456Q475 400 444 348T346 237L196 109H469Q474 100 478 86T483 55Q483 27 470 14T435 0H73Q56 12 46 31T36 74Q36 101 47 121T73 154L235 299Q293
351 314 384T336 450Q336 487 309 509T229 532Q186 532 152 518T95 489Q81 498 70 513T59 549Z" />
<glyph unicode="3" horiz-adv-x="525" d="M233 644V644Q342 644 404 597T466 466Q466 431 452 403T417 357T373 330Q401 320 426 300T467 250T483 175Q483 114 451 72T364 8T235 -15Q170 -15 123 -2T52 33T27 82Q27 104 38 120T66 146Q89 129 125 113T221 97Q279
97 311 120T344 185Q344 225 317 247T229 270H136Q129 278 126 292T122 324Q122 343 125 356T136 379H225Q279 379 303 399T328 455Q328 492 299 512T215 533Q169 533 135 521T78 493Q64 503 54 518T43 554Q43 582 67 602T134 633T233 644Z" />
<glyph unicode="4" horiz-adv-x="598" d="M45 274L309 625Q324 630 344 633T380 637Q405 637 427 630T462 607T476 559V247H567Q572 239 577 224T582 193Q582 164 569 150T533 136H476V0Q468 -2 451 -5T416 -8Q381 -8 362 2T342 50V136H75Q56 145 43 164T30 212Q30
228 33 244T45 274ZM348 247L349 497H346L175 247H348Z" />
<glyph unicode="5" horiz-adv-x="538" d="M231 629L204 543L191 383Q210 390 235 396T292 402Q361 402 408 377T481 305T507 198Q507 140 480 92T397 14T258 -15Q197 -15 151 -2T78 34T52 87Q52 110 66 127T97 152Q124 131 160 113T250 95Q309 95 338 124T368
197Q368 241 340 267T258 293Q226 293 203 285T154 264Q114 266 90 287T65 349Q65 354 65 361T66 379L81 553Q83 588 103 608T157 629H231ZM171 517V629H463Q469 621 473 607T478 576Q478 547 465 532T428 517H171Z" />
<glyph unicode="6" horiz-adv-x="567" d="M485 564V564Q485 547 476 531T455 506Q430 518 400 525T341 533Q295 533 260 514T204 456T178 360Q198 377 236 393T322 410Q415 410 472 356T530 201Q530 140 503 91T423 14T295 -15Q218 -15 161 19T73 123T41 297Q41
388 63 454T124 562T215 624T326 644Q374 644 409 635T465 609T485 564ZM295 95V95Q340 95 365 124T391 201Q391 250 365 276T295 303Q260 303 230 288T182 250V237Q182 169 213 132T295 95Z" />
<glyph unicode="7" horiz-adv-x="486" d="M71 629H437Q451 620 462 604T473 565Q473 536 460 507L227 -6Q216 -7 206 -7T187 -7Q151 -7 128 7T105 54Q105 72 113 92T135 139L320 517H36Q31 526 26 540T21 571Q21 601 35 615T71 629Z" />
<glyph unicode="8" horiz-adv-x="574" d="M205 348L271 366Q328 378 357 401T387 462Q387 499 361 519T288 540Q244 540 218 519T191 461Q191 433 206 414T249 385T309 371L388 341Q425 331 460 311T517 256T539 169Q539 112 508 70T420 6T288 -17Q214 -17 158
5T71 70T39 171Q39 224 64 260T126 318T205 348ZM394 318L308 289Q244 280 211 250T177 177Q177 136 207 113T288 89Q339 89 370 112T401 177Q401 225 358 253T240 287L193 314Q131 331 94 369T56 467Q56 522 85 562T167 623T288 645Q397 645 460 598T523 467Q523
406 486 370T394 318Z" />
<glyph unicode="9" horiz-adv-x="568" d="M73 65V65Q73 83 81 100T103 124Q127 112 158 104T222 96Q271 96 309 115T368 172T389 270Q377 259 358 248T312 230T254 223Q193 223 144 245T67 312T38 427Q38 489 66 538T147 615T273 644Q350 644 407 609T495 505T527
332Q527 213 491 136T390 22T240 -15Q166 -15 120 5T73 65ZM282 329V329Q315 329 344 345T386 382V385Q386 456 357 494T272 533Q229 533 202 506T175 430Q175 379 206 354T282 329Z" />
<glyph unicode=":" horiz-adv-x="238" d="M39 394V394Q39 430 62 455T123 480Q162 480 185 455T208 394Q208 358 185 334T123 309Q85 309 62 333T39 394ZM34 70V70Q34 106 57 131T119 156Q158 156 181 131T204 70Q204 34 181 9T119 -16Q80 -16 57 9T34 70Z" />
<glyph unicode=";" horiz-adv-x="247" d="M40 394V394Q40 430 63 455T125 480Q164 480 187 455T210 394Q210 358 187 334T125 309Q86 309 63 333T40 394ZM141 -79V-79Q113 -117 70 -117Q32 -117 6 -94Q19 -57 30 -16T51 65T67 138Q81 146 101 151T141 156Q168
156 187 144T207 100Q207 75 197 40T171 -27T141 -79Z" />
<glyph unicode="&lt;" horiz-adv-x="485" d="M174 283L452 150Q454 145 454 138T454 124Q454 95 440 73T389 51Q372 51 356 58T314 78L58 211Q37 239 37 284Q37 319 47 338T75 367L384 523Q424 512 439 493T454 453Q454 423 439 407T394 375L174 283Z" />
<glyph unicode="=" horiz-adv-x="512" d="M420 342H52Q46 351 42 365T38 396Q38 427 52 441T91 456H460Q465 447 469 432T474 399Q474 368 459 355T420 342ZM420 135H52Q46 144 42 158T38 189Q38 220 52 234T91 249H460Q465 240 469 225T474 192Q474 161 459 148T420
135Z" />
<glyph unicode="&gt;" horiz-adv-x="482" d="M308 292L33 421Q32 427 32 434T31 447Q31 476 46 498T96 521Q113 521 132 513T171 494L424 363Q445 335 445 289Q445 255 436 236T407 207L104 51Q64 61 49 80T34 121Q34 151 49 168T94 199L308 292Z" />
<glyph unicode="?" horiz-adv-x="486" d="M235 239L138 207Q121 217 106 240T91 289Q91 313 106 326T148 348L211 369Q253 384 276 408T299 472Q299 507 274 534T194 561Q155 561 122 548T62 513Q48 523 37 538T25 577Q25 610 50 633T117 670T212 683Q289 683
342 657T422 583T450 472Q450 409 426 366T353 293T235 239ZM103 67V67Q103 103 126 126T187 150Q226 150 249 127T272 67Q272 32 249 9T187 -15Q149 -15 126 8T103 67Z" />
<glyph unicode="@" horiz-adv-x="1049" d="M451 199V199Q451 152 474 131T532 110Q565 110 588 127T630 172L662 56Q639 32 600 16T508 0Q419 0 363 52T307 198Q307 271 338 325T424 408T554 438Q605 438 643 426T707 397Q747 372 747 335Q747 329 747 324T746
312L717 55L585 54L610 312Q600 318 586 321T551 325Q509 325 480 293T451 199ZM631 32V32Q632 53 643 73T674 105T719 117Q725 114 736 110T759 106Q809 106 837 153T866 274Q866 356 826 418T714 515T549 550Q441 550 360 506T233 383T188 204Q188 107 228 36T340
-73T502 -112Q545 -112 574 -108T624 -100Q631 -109 636 -123T641 -149Q641 -173 628 -190T582 -216T492 -225Q427 -225 363 -209T243 -159T143 -75T76 46T51 204Q51 309 88 393T192 537T350 628T548 660Q649 660 733 633T877 555T969 433T1002 273Q1002 141 939
68T759 -5Q728 -5 693 4T631 32Z" />
<glyph unicode="A" horiz-adv-x="617" d="M314 484H308Q297 452 284 412T255 328T227 241L210 156Q204 137 198 116T186 74T175 34T165 0Q154 -4 141 -7T108 -10Q68 -10 47 5T25 47Q25 60 28 72T37 102Q46 134 62 184T99 293T139 408T178 514T207 592Q221 600
250 607T309 615Q351 615 384 603T425 564Q445 511 467 441T513 295T558 148T596 18Q586 7 566 -1T518 -9Q477 -9 461 5T436 49L402 164L386 246Q373 291 360 334T335 416T314 484ZM145 136L202 252H439L459 136H145Z" />
<glyph unicode="B" horiz-adv-x="613" d="M391 363V257H165V363H391ZM314 257L326 339Q409 339 463 319T544 263T572 175Q572 79 501 32T297 -15Q272 -15 242 -13T180 -6T123 8Q72 27 72 73V553Q72 573 83 583T112 601Q146 612 194 617T292 622Q415 622 482 580T550
449Q550 402 523 368T442 316T312 298L305 363Q355 363 378 382T402 438Q402 472 375 490T293 509Q273 509 252 508T216 503V108Q233 104 258 102T306 100Q358 100 389 120T421 181Q421 220 394 238T314 257Z" />
<glyph unicode="C" horiz-adv-x="576" d="M539 525V525Q539 503 527 486T500 460Q475 477 444 490T368 504Q314 504 275 481T214 412T193 303Q193 205 242 155T375 104Q419 104 450 116T508 143Q523 133 532 116T542 76Q542 57 532 41T497 12Q478 2 443 -7T356
-17Q268 -17 197 17T83 123T41 303Q41 407 82 478T194 587T348 624Q407 624 449 611T515 575T539 525Z" />
<glyph unicode="D" horiz-adv-x="662" d="M470 304V304Q470 205 422 155T291 105Q273 105 254 107T219 112V497Q235 499 252 500T289 502Q342 502 382 481T446 415T470 304ZM621 306V306Q621 413 579 483T460 587T281 622Q242 622 197 618T112 601Q94 594 83 584T72
554V73Q72 27 123 8Q162 -6 209 -10T290 -15Q390 -15 464 20T580 127T621 306Z" />
<glyph unicode="E" horiz-adv-x="543" d="M72 420H216V7Q207 4 189 1T151 -2Q114 -2 93 19T72 77V420ZM216 186L72 187V528Q72 564 93 585T151 607Q171 607 189 604T216 598V186ZM151 251V367H452Q458 358 463 344T468 311Q468 280 454 266T416 251H151ZM151 -2V116H486Q491
107 496 92T501 58Q501 27 488 13T449 -2H151ZM151 489V607H481Q487 598 492 583T497 550Q497 520 483 505T445 489H151Z" />
<glyph unicode="F" horiz-adv-x="527" d="M218 249H72V528Q72 564 93 585T151 607Q171 607 190 604T218 598V249ZM149 229V347H449Q455 337 460 323T465 290Q465 259 451 244T413 229H149ZM151 487V607H483Q489 598 494 583T499 549Q499 518 485 503T447 487H151ZM72
311H220V1Q211 -1 192 -4T152 -7Q108 -7 90 8T72 62V311Z" />
<glyph unicode="G" horiz-adv-x="657" d="M601 298V89Q601 62 591 48T556 21Q529 5 479 -6T377 -17Q282 -17 206 16T85 120T41 302Q41 408 86 479T206 587T375 624Q436 624 481 611T551 575T576 524Q576 502 565 485T538 459Q512 475 475 489T385 504Q330 504
286 480T218 411T193 303Q193 235 217 191T283 125T380 103Q406 103 427 108T459 118V240H339Q334 249 330 264T325 297Q325 327 339 341T376 355H544Q571 355 586 340T601 298Z" />
<glyph unicode="H" horiz-adv-x="667" d="M72 419H220V1Q210 -1 191 -4T151 -7Q108 -7 90 8T72 63V419ZM220 235H72V607Q82 609 101 612T140 616Q182 616 201 602T220 546V235ZM447 419H595V1Q585 -1 566 -4T526 -7Q483 -7 465 8T447 63V419ZM595 235H447V607Q457
609 476 612T515 616Q557 616 576 601T595 545V235ZM531 246H139V363H531V246Z" />
<glyph unicode="I" horiz-adv-x="293" d="M72 419H220V1Q211 -1 192 -4T152 -7Q108 -7 90 8T72 63V419ZM220 236H72V607Q82 609 102 612T141 616Q183 616 201 602T220 546V236Z" />
<glyph unicode="J" horiz-adv-x="404" d="M187 290H334V171Q334 111 312 70T247 8T145 -14Q91 -14 57 4T22 64Q22 82 28 95T41 117Q58 112 74 109T108 106Q149 106 168 126T187 188V290ZM334 228H187V607Q197 609 216 612T255 616Q297 616 315 602T334 546V228Z" />
<glyph unicode="K" horiz-adv-x="601" d="M154 321L317 343Q403 253 469 182T577 69Q577 32 553 11T497 -10Q463 -10 441 7T397 49L154 321ZM321 270L135 263L447 612Q503 612 528 591T553 539Q553 517 542 497T506 453L321 270ZM72 420H220V1Q210 -2 191 -4T151
-7Q108 -7 90 8T72 62V420ZM220 237H72V607Q82 609 101 612T140 616Q182 616 201 602T220 546V237Z" />
<glyph unicode="L" horiz-adv-x="510" d="M72 417H220V7L151 -2Q115 -2 94 19T72 77V417ZM151 -2V118H466Q472 109 477 94T482 60Q482 29 469 14T430 -2H151ZM220 235H72V607Q82 609 101 612T140 616Q182 616 201 602T220 546V235Z" />
<glyph unicode="M" horiz-adv-x="792" d="M470 152V152Q459 143 441 137T400 131Q369 131 349 138T322 165Q287 261 263 326T225 438H220Q217 375 215 322T212 218T208 116T202 3Q191 -1 174 -4T137 -7Q101 -7 81 5T60 49Q60 70 62 113T67 214T75 334T83 460T91
574Q99 586 122 598T187 610Q231 610 257 596T296 550Q312 512 329 464T364 367T395 278H400Q430 367 460 452T512 594Q525 601 546 605T591 610Q632 610 658 598T689 561Q693 542 697 501T707 407T717 295T726 181T734 80T738 10Q723 1 707 -3T667 -7Q636 -7 614
4T590 48Q585 128 582 200T578 332T573 434H569Q555 391 531 324T470 152Z" />
<glyph unicode="N" horiz-adv-x="673" d="M72 440L206 442Q210 400 212 358T214 277T215 200V1Q206 -1 187 -4T149 -7Q107 -7 90 8T72 60V440ZM602 169L467 167Q460 241 459 308T458 437V608Q468 610 486 613T525 616Q567 616 584 601T602 549V169ZM602 216V307V18Q589
7 566 0T512 -7Q479 -7 451 3T403 51L278 287Q266 310 255 332T234 377T213 423L72 391V581Q84 598 109 606T162 615Q195 615 224 604T271 557L397 320Q409 298 420 275T441 230T461 184L602 216Z" />
<glyph unicode="O" horiz-adv-x="699" d="M658 304V304Q658 200 618 129T507 20T349 -17Q261 -17 191 20T81 128T41 304Q41 408 82 479T193 587T349 624Q436 624 506 587T617 479T658 304ZM506 304V304Q506 402 464 453T349 504Q278 504 236 453T193 304Q193 205
235 155T350 104Q421 104 463 154T506 304Z" />
<glyph unicode="P" horiz-adv-x="577" d="M219 313H281Q334 313 364 337T395 409Q395 455 366 479T282 503Q263 503 248 502T219 498V313ZM290 196H72V553Q72 573 83 583T112 601Q145 612 190 617T273 622Q407 622 476 565T545 409Q545 345 515 297T428 223T290
196ZM72 262H220V1Q210 -1 191 -4T151 -7Q108 -7 90 8T72 63V262Z" />
<glyph unicode="Q" horiz-adv-x="701" d="M333 4L484 34Q523 14 558 -1T627 -27T691 -49Q692 -55 692 -59T692 -68Q692 -114 668 -136T603 -158Q561 -158 512 -132T406 -59L333 4ZM658 305V305Q658 201 618 130T508 22T349 -15Q261 -15 191 21T81 129T41 305Q41
409 82 480T192 587T349 624Q436 624 506 588T617 480T658 305ZM506 305V305Q506 402 464 453T349 504Q279 504 236 454T193 305Q193 206 235 156T350 105Q421 105 463 155T506 305Z" />
<glyph unicode="R" horiz-adv-x="603" d="M218 320H287Q338 320 369 343T401 412Q401 456 371 479T279 503Q262 503 247 502T218 497V320ZM300 206H72V553Q72 573 83 583T112 601Q145 612 189 617T281 622Q415 622 483 566T551 413Q551 353 519 306T430 233T300
206ZM274 241L405 273Q428 241 453 210T501 149T542 94T571 53Q563 24 540 8T490 -9Q454 -9 435 7T399 49L274 241ZM72 261H220V1Q210 -1 191 -4T151 -7Q108 -7 90 8T72 63V261Z" />
<glyph unicode="S" horiz-adv-x="543" d="M253 104V104Q307 104 331 124T355 173Q355 199 336 215T280 242L225 260Q172 278 132 300T69 356T46 444Q46 526 108 575T282 624Q339 624 383 613T452 581T478 529Q478 507 468 491T442 463Q419 479 381 490T296 502Q247
502 223 486T198 444Q198 423 214 410T265 386L320 369Q411 341 459 295T508 171Q508 88 444 36T257 -17Q196 -17 148 -4T72 34T44 91Q44 116 59 134T93 161Q119 139 160 122T253 104Z" />
<glyph unicode="T" horiz-adv-x="546" d="M207 487L206 607H510Q515 598 520 583T525 549Q525 518 511 503T473 487H207ZM338 607L340 487H35Q30 496 25 511T20 545Q20 577 34 592T72 607H338ZM197 514H345V1Q335 -1 316 -4T276 -7Q233 -7 215 8T197 63V514Z" />
<glyph unicode="U" horiz-adv-x="660" d="M330 -17V-17Q248 -17 190 12T101 95T70 219V286H217V223Q217 166 249 135T330 104Q379 104 410 135T442 223V286H590V219Q590 148 559 95T470 13T330 -17ZM217 255H70V607Q80 609 99 612T138 616Q180 616 198 602T217
546V255ZM590 253H442V607Q452 609 472 612T511 616Q552 616 571 602T590 546V253Z" />
<glyph unicode="V" horiz-adv-x="619" d="M405 17V17Q393 7 368 -1T313 -9Q279 -9 253 1T217 31Q203 60 183 108T141 215T96 339T54 465T21 578Q33 590 55 600T103 610Q135 610 154 597T183 548Q215 441 246 342T313 137H319Q340 203 362 279T407 436T447 594Q462
601 479 605T518 610Q549 610 570 596T592 550Q592 530 582 489T555 393T516 280T474 169T435 75T405 17Z" />
<glyph unicode="W" horiz-adv-x="846" d="M349 458V458Q359 462 379 467T420 473Q456 473 480 463T509 431Q527 371 541 322T569 226T596 128H601Q615 212 626 288T648 439T668 594Q699 611 734 611Q766 611 788 598T811 552Q811 530 806 491T793 400T775 294T752
186T728 90T705 20Q691 10 663 2T604 -7Q565 -7 538 4T503 35Q493 64 481 104T454 192T427 291Q415 241 402 191T375 96T352 20Q339 10 314 2T258 -7Q220 -7 190 4T150 35Q140 58 127 105T99 212T71 339T46 468T29 581Q41 592 62 601T108 611Q140 611 160 597T186
549Q202 459 212 394T231 280T245 196T259 128H264Q274 169 283 205T303 278T325 358T349 458Z" />
<glyph unicode="X" horiz-adv-x="598" d="M252 271L221 277L31 544Q39 569 61 591T121 613Q146 613 165 600T204 557L334 361L373 336L570 60Q563 29 541 11T481 -8Q456 -8 439 5T401 48L252 271ZM364 272L322 245L152 -6Q145 -7 139 -7T125 -8Q80 -8 57 11T34
60Q34 84 45 102T74 145L222 335L286 386L436 605Q443 607 454 609T478 611Q515 611 536 593T558 547Q558 524 547 505T515 461Q478 414 441 367T364 272Z" />
<glyph unicode="Y" horiz-adv-x="567" d="M359 197H227Q201 235 170 283T109 382T53 481T10 567Q20 583 39 596T87 610Q120 610 140 596T180 545Q184 538 195 517T220 469T249 413T275 365T289 338H294Q318 385 337 425T374 506T413 595Q427 602 445 606T480 610Q510
610 530 595T551 548Q551 537 542 513T510 448T451 346T359 197ZM220 251H364V1Q355 -1 336 -4T298 -7Q254 -7 237 8T220 61V251Z" />
<glyph unicode="Z" horiz-adv-x="559" d="M76 162L435 609H480Q517 579 517 530Q517 508 507 488T482 447L125 0H72Q57 12 48 32T39 77Q39 99 49 120T76 162ZM92 0L158 122H508Q514 112 519 97T524 62Q524 31 510 16T471 0H92ZM452 609L400 487H63Q58 497 53 512T47
546Q47 578 61 593T101 609H452Z" />
<glyph unicode="[" horiz-adv-x="293" d="M53 22V631H185V22H53ZM53 47H272Q278 38 282 24T286 -5Q286 -34 273 -47T236 -60H119Q85 -60 69 -41T53 5V47ZM119 720H272Q278 711 282 698T286 668Q286 640 273 627T236 613H53V655Q53 681 69 700T119 720Z" />
<glyph unicode="\" horiz-adv-x="354" d="M154 623L333 -28Q321 -40 300 -49T259 -59Q236 -59 219 -49T195 -13L17 637Q29 650 50 659T91 669Q114 669 130 659T154 623Z" />
<glyph unicode="]" horiz-adv-x="303" d="M240 641V29H107V641H240ZM240 613H20Q15 622 11 635T6 665Q6 694 20 707T56 720H174Q208 720 224 701T240 655V613ZM174 -60H20Q15 -52 11 -38T6 -9Q6 21 20 34T56 47H240V5Q240 -22 224 -41T174 -60Z" />
<glyph unicode="^" horiz-adv-x="481" d="M165 643V643Q175 651 195 657T239 663Q298 663 316 632Q329 613 346 578T381 501T415 416T440 343Q430 332 413 323T374 314Q347 314 332 325T306 367L238 541H233Q225 522 216 497T197 442T177 384T161 328Q149 321
133 318T101 314Q76 314 59 325T41 364Q41 378 50 404T73 465T105 533T138 597T165 643Z" />
<glyph unicode="_" horiz-adv-x="496" d="M443 -169H14Q8 -160 4 -146T0 -115Q0 -84 14 -70T53 -55H482Q487 -64 491 -79T496 -112Q496 -143 482 -156T443 -169Z" />
<glyph unicode="`" horiz-adv-x="302" d="M127 550L30 643Q29 647 29 653T28 663Q28 694 46 711T91 728Q108 728 123 721T153 697L243 586Q240 556 222 542T183 527Q165 527 153 532T127 550Z" />
<glyph unicode="a" horiz-adv-x="531" d="M254 92V92Q278 92 301 97T334 108V207L247 199Q212 196 192 184T172 147Q172 122 191 107T254 92ZM248 493V493Q351 493 412 451T473 317V89Q473 64 461 49T429 22Q399 5 355 -5T254 -15Q152 -15 92 24T32 142Q32 210
74 246T199 291L333 305V318Q333 353 307 368T231 384Q193 384 156 375T90 353Q79 361 71 377T62 410Q62 452 107 470Q135 482 173 487T248 493Z" />
<glyph unicode="b" horiz-adv-x="578" d="M310 493V493Q375 493 427 465T511 381T542 241Q542 158 510 101T419 14T282 -15Q221 -15 177 0T103 34Q82 49 72 66T61 108V426H204V119Q216 111 235 105T280 99Q332 99 363 134T395 241Q395 313 365 346T284 380Q251
380 226 368T183 340L178 456Q201 470 234 481T310 493ZM205 392H61V651Q70 654 87 656T126 659Q167 659 186 645T205 592V392Z" />
<glyph unicode="c" horiz-adv-x="486" d="M315 379V379Q260 379 221 343T182 238Q182 169 219 135T315 100Q348 100 373 108T415 127Q432 116 441 102T450 67Q450 31 410 9T300 -14Q221 -14 162 14T69 98T36 238Q36 324 71 380T166 465T296 493Q364 493 403 469T443
407Q443 390 435 376T415 352Q396 362 372 370T315 379Z" />
<glyph unicode="d" horiz-adv-x="575" d="M371 116V419L514 420V98Q514 75 504 59T473 29Q446 12 403 -1T304 -15Q221 -15 161 13T69 97T36 238Q36 325 69 381T158 465T285 493Q321 493 349 485T396 466V347Q381 359 358 369T304 380Q268 380 241 365T198 319T182
237Q182 166 214 133T303 99Q326 99 343 104T371 116ZM514 391H370V651Q379 654 397 656T435 659Q477 659 495 645T514 592V391Z" />
<glyph unicode="e" horiz-adv-x="540" d="M125 171L120 269L371 307Q369 338 347 362T279 387Q233 387 203 356T170 266L175 200Q184 144 222 119T315 94Q357 94 393 106T452 132Q467 123 476 108T486 74Q486 45 463 25T398 -5T305 -15Q227 -15 167 14T71 101T36
245Q36 309 56 356T110 433T188 478T279 493Q347 493 398 466T478 392T507 283Q507 253 491 238T445 218L125 171Z" />
<glyph unicode="f" horiz-adv-x="421" d="M176 333V445H372Q377 436 381 422T386 390Q386 360 373 347T337 333H176ZM198 486V351H61V491Q61 556 88 597T163 657T270 676Q340 676 374 658T408 600Q408 583 401 569T384 547Q365 553 343 557T294 562Q246 562 222
545T198 486ZM61 381H205V1Q195 -1 178 -4T140 -7Q99 -7 80 7T61 60V381Z" />
<glyph unicode="g" horiz-adv-x="557" d="M257 18V18Q198 18 148 41T67 116T36 254Q36 332 67 385T155 466T287 493Q340 493 386 479T458 448Q476 436 487 420T498 379V66H359V363Q347 370 331 375T292 380Q242 380 211 349T180 253Q180 182 209 155T282 128Q316
128 338 139T377 166L381 51Q361 37 331 28T257 18ZM361 3V98H498V-1Q498 -70 466 -113T378 -178T255 -199Q202 -199 163 -190T102 -167Q68 -145 68 -107Q68 -86 76 -70T96 -46Q123 -62 160 -73T238 -85Q295 -85 328 -64T361 3Z" />
<glyph unicode="h" horiz-adv-x="575" d="M516 203H372V293Q372 340 348 360T287 380Q254 380 228 368T183 340L179 456Q202 470 236 481T313 493Q406 493 461 445T516 301V203ZM61 264H205V1Q195 -1 178 -4T140 -7Q99 -7 80 7T61 60V264ZM372 264L516 263V1Q507
-1 489 -4T451 -7Q410 -7 391 7T372 60V264ZM205 189H61V651Q70 654 87 656T126 659Q167 659 186 645T205 592V189Z" />
<glyph unicode="i" horiz-adv-x="270" d="M54 617V617Q54 650 76 673T135 696Q171 696 193 673T216 617Q216 585 194 562T135 539Q99 539 77 562T54 617ZM63 264H207V1Q198 -1 181 -4T142 -7Q101 -7 82 7T63 60V264ZM207 189H63V473Q72 476 89 479T128 482Q170
482 188 468T207 414V189Z" />
<glyph unicode="j" horiz-adv-x="274" d="M-3 -115V-115Q21 -103 36 -89T59 -55T67 -4V253H211V-19Q211 -82 192 -120T142 -177T78 -195Q40 -195 19 -172T-3 -115ZM55 617V617Q55 650 77 673T136 696Q172 696 194 673T217 617Q217 585 195 562T136 539Q100 539
78 562T55 617ZM211 186L67 189V473Q77 476 94 479T132 482Q174 482 192 468T211 414V186Z" />
<glyph unicode="k" horiz-adv-x="535" d="M267 193L164 259L390 487Q434 486 460 467T487 418Q487 392 470 373T416 323L267 193ZM169 238L283 290L506 75Q503 36 484 14T428 -8Q401 -8 380 5T333 49L169 238ZM61 265L205 262V1Q195 -1 178 -4T140 -7Q99 -7 80
7T61 60V265ZM205 187L61 191V651Q70 654 87 656T126 659Q167 659 186 645T205 592V187Z" />
<glyph unicode="l" horiz-adv-x="273" d="M65 264L208 261V1Q199 -1 182 -4T144 -7Q103 -7 84 7T65 60V264ZM208 186L65 189V651Q74 654 91 656T129 659Q171 659 189 645T208 592V186Z" />
<glyph unicode="m" horiz-adv-x="838" d="M491 330V216H347V312Q347 347 326 363T274 380Q251 380 233 373T203 359V216H59V373Q59 398 69 414T100 444Q132 466 180 479T279 493Q327 493 369 479T441 433Q449 427 456 421T467 406Q477 390 484 371T491 330ZM779
317V216H635V312Q635 347 616 363T564 380Q540 380 519 371T482 347L406 431Q439 456 481 474T584 493Q636 493 680 476T752 419T779 317ZM59 262H203V1Q193 -1 176 -4T138 -7Q97 -7 78 7T59 60V262ZM347 262H491V1Q481 -1 464 -4T426 -7Q385 -7 366 7T347 60V262ZM635
262H779V1Q769 -1 752 -4T714 -7Q673 -7 654 7T635 60V262Z" />
<glyph unicode="n" horiz-adv-x="573" d="M514 311V216H370V306Q370 344 348 362T289 380Q263 380 242 374T203 358V216H59V373Q59 398 69 414T100 444Q132 465 181 479T290 493Q397 493 455 446T514 311ZM59 262H203V1Q193 -1 176 -4T138 -7Q97 -7 78 7T59 60V262ZM370
262H514V1Q505 -1 488 -4T449 -7Q408 -7 389 7T370 60V262Z" />
<glyph unicode="o" horiz-adv-x="576" d="M540 240V240Q540 161 509 104T422 16T288 -15Q212 -15 156 15T68 103T36 240Q36 318 68 374T156 462T289 493Q364 493 420 462T508 374T540 240ZM288 380V380Q240 380 212 343T184 240Q184 171 211 135T288 98Q338 98
365 135T393 240Q393 305 365 342T288 380Z" />
<glyph unicode="p" horiz-adv-x="574" d="M294 -14V-14Q364 -14 419 15T505 101T537 242Q537 330 504 385T412 467T277 493Q221 493 175 481T100 450Q79 437 69 421T59 379V53H202V361Q215 368 234 374T277 380Q311 380 336 366T376 322T390 242Q390 171 359 136T272
100Q240 100 216 112T173 139V16Q195 4 225 -5T294 -14ZM203 90H59V-119Q59 -158 78 -172T138 -187Q158 -187 175 -184T203 -179V90Z" />
<glyph unicode="q" horiz-adv-x="575" d="M515 72L372 73V363Q361 370 344 375T305 380Q268 380 241 365T198 319T182 237Q182 166 214 133T301 99Q329 99 350 108T387 129V9Q369 -1 341 -8T280 -15Q209 -15 154 13T68 97T36 237Q36 323 69 379T163 464T302 493Q355
493 402 480T475 450Q493 438 504 422T515 381V72ZM371 91H515V-182Q506 -184 489 -187T450 -190Q409 -190 390 -176T371 -122V91Z" />
<glyph unicode="r" horiz-adv-x="403" d="M203 353V226H59V369Q59 397 72 416T109 450Q142 470 188 481T286 493Q386 493 386 426Q386 411 382 398T371 374Q361 376 347 377T315 379Q284 379 254 372T203 353ZM59 264L203 261V1Q193 -1 176 -4T138 -7Q97 -7 78
7T59 60V264Z" />
<glyph unicode="s" horiz-adv-x="479" d="M444 139V139Q444 66 390 25T231 -16Q149 -16 97 8T44 78Q44 98 53 113T76 138Q104 121 141 108T226 94Q302 94 302 138Q302 156 289 167T245 184L200 195Q121 211 82 246T43 343Q43 412 99 453T250 494Q299 494 337 485T399
456T422 409Q422 390 414 375T394 351Q382 358 360 365T312 378T262 384Q225 384 205 374T184 343Q184 329 195 320T237 303L279 293Q367 273 405 236T444 139Z" />
<glyph unicode="t" horiz-adv-x="390" d="M60 264H203V155Q203 126 221 113T273 100Q288 100 305 103T336 112Q344 103 350 91T356 61Q356 28 328 7T236 -14Q153 -14 107 23T60 145V264ZM150 357V468H343Q349 460 353 446T358 414Q358 384 345 371T309 357H150ZM203
238H60V598Q70 601 87 604T125 607Q166 607 184 593T203 540V238Z" />
<glyph unicode="u" horiz-adv-x="573" d="M59 186V259H203V187Q203 140 227 119T295 98Q323 98 342 103T370 115V259H514V98Q514 74 505 57T475 28Q444 8 398 -3T294 -15Q224 -15 171 6T88 71T59 186ZM514 214H370V477Q379 480 397 482T435 485Q477 485 495 471T514
418V214ZM203 214H59V477Q68 480 85 482T124 485Q165 485 184 471T203 418V214Z" />
<glyph unicode="v" horiz-adv-x="531" d="M433 489V489Q463 489 483 476T503 431Q503 414 493 376T466 288T429 186T389 88T353 12Q342 4 319 -2T268 -9Q235 -9 211 0T178 27Q167 48 151 86T117 172T80 273T47 373T23 458Q35 470 55 479T99 489Q129 489 148 476T176
428L222 268Q230 241 238 212T255 159T267 117H272Q297 199 322 292T366 473Q396 489 433 489Z" />
<glyph unicode="w" horiz-adv-x="773" d="M390 294V294Q379 243 363 189T332 89T307 14Q295 4 275 -2T226 -9Q193 -9 168 1T134 29Q124 49 113 86T90 171T66 270T44 371T28 458Q40 470 59 479T103 489Q134 489 152 475T176 427Q186 361 194 310T209 223T220 162T228
125H232Q238 147 251 195T281 305T315 431Q332 440 349 445T390 450Q421 450 442 441T469 411Q487 350 503 293T531 191T549 124H554Q568 205 583 293T610 471Q640 489 675 489Q705 489 724 476T743 432Q743 417 738 386T724 314T704 228T681 141T659 66T641 14Q630
4 606 -2T554 -9Q482 -9 469 26Q460 54 446 97T417 192T390 294Z" />
<glyph unicode="x" horiz-adv-x="511" d="M212 296L238 299Q274 347 308 391T378 485Q383 486 386 486T393 486Q433 486 456 469T479 425Q479 403 469 386T432 339Q404 307 376 275T321 211L278 190Q243 141 208 92T138 -7Q135 -7 129 -7T119 -8Q77 -8 55 10T32
54Q32 74 41 89T74 132Q108 173 143 214T212 296ZM296 285L329 267Q368 215 408 164T486 61Q482 28 461 9T410 -10Q379 -9 360 8T321 52Q296 89 270 126T217 200L193 218Q151 267 111 315T30 413Q37 446 57 466T106 486Q134 486 150 472T184 434Q211 398 239 360T296
285Z" />
<glyph unicode="y" horiz-adv-x="533" d="M140 118V118Q124 151 105 198T66 310T23 458Q35 470 55 479T99 489Q128 489 147 476T177 428Q200 354 224 282T273 135H277Q294 180 312 237T345 355T371 473Q385 480 400 484T433 489Q463 489 484 476T506 431Q506 404
498 364T476 275T442 177T402 81T360 -3Q307 -96 262 -142T173 -189Q138 -189 115 -168T88 -114Q109 -95 132 -71T177 -20T215 33Q198 38 180 55T140 118Z" />
<glyph unicode="z" horiz-adv-x="478" d="M124 0H67Q53 12 45 28T37 64Q37 82 45 99T66 131L357 478H407Q421 466 429 450T437 414Q437 397 429 380T408 348L124 0ZM379 478V366H56Q51 375 47 390T42 422Q42 452 55 465T91 478H379ZM105 0V112H433Q438 104 443
89T448 56Q448 27 435 14T398 0H105Z" />
<glyph unicode="{" horiz-adv-x="320" d="M176 333V333Q205 319 220 289T235 214V97Q235 63 250 49T290 29Q292 23 292 17T292 4Q292 -32 273 -48T221 -65Q169 -65 136 -31T103 70V180Q103 226 87 251T35 284Q31 294 30 307T28 333Q28 346 30 359T35 382Q70 390
86 415T103 486V591Q103 659 137 692T223 726Q256 726 274 711T292 658Q292 652 292 646T290 632Q266 627 251 613T235 564V452Q235 406 220 377T176 333Z" />
<glyph unicode="|" horiz-adv-x="272" d="M200 685V-108Q191 -110 175 -112T142 -115Q108 -115 90 -103T72 -54V740Q82 742 97 744T130 747Q164 747 182 735T200 685Z" />
<glyph unicode="}" horiz-adv-x="320" d="M144 333V333Q116 319 101 289T85 214V97Q85 63 70 49T30 29Q29 23 29 17T28 4Q28 -32 47 -48T100 -65Q151 -65 184 -31T217 70V180Q217 226 233 251T285 284Q289 294 290 307T292 333Q292 346 290 359T285 382Q250 390
234 415T217 486V591Q217 659 183 692T97 726Q64 726 46 711T28 658Q28 652 28 646T30 632Q54 627 69 613T85 564V452Q85 406 100 377T144 333Z" />
<glyph unicode="~" horiz-adv-x="487" d="M321 304V304Q346 304 359 317T381 346Q416 346 442 324T468 267Q468 221 435 198T355 174Q322 174 290 182T228 200T167 209Q141 209 128 195T107 168Q72 168 46 190T20 247Q20 279 36 299T79 330T132 340Q169 340 200
331T262 313T321 304Z" />
<glyph unicode="&#xa0;" horiz-adv-x="200" />
<glyph unicode="&#xa1;" horiz-adv-x="284" d="M69 -148V-148Q69 -126 70 -89T73 -8T77 83T83 172T89 248Q97 255 114 258T143 262Q168 262 184 254T205 223Q208 200 210 161T215 72T218 -28T221 -123T222 -197Q186 -217 141 -217Q69 -217 69 -148ZM227 399V399Q227
363 205 340T143 317Q105 317 82 340T59 399Q59 435 82 458T143 482Q182 482 204 459T227 399Z" />
<glyph unicode="&#xa2;" horiz-adv-x="487" d="M200 57H327V-92Q319 -95 304 -97T270 -100Q234 -100 217 -87T200 -40V57ZM327 404H200V573Q208 576 223 578T257 580Q294 580 310 567T327 520V404ZM314 379V379Q259 379 220 343T181 238Q181 169 218 135T313 100Q347
100 371 108T414 127Q431 116 439 102T448 67Q448 31 408 9T298 -14Q219 -14 160 14T68 98T35 238Q35 324 70 380T165 465T294 493Q362 493 402 469T442 407Q442 390 434 376T413 352Q395 362 371 370T314 379Z" />
<glyph unicode="&#xa3;" horiz-adv-x="504" d="M368 247H92Q71 247 58 260T44 305Q44 321 49 335T58 359H402Q407 349 412 335T417 305Q417 273 404 260T368 247ZM124 226V226Q124 249 121 283T113 352T109 413Q109 487 139 533T220 602T332 624Q399 624 433 602T468
542Q468 526 460 509T440 484Q422 495 402 501T353 508Q304 508 278 484T251 406Q251 380 254 346T261 278T264 224Q264 190 255 162T227 113H469Q474 104 478 90T483 57Q483 27 470 14T434 0H100Q76 0 59 18T41 69Q41 78 42 84Q83 104 103 134T124 226Z" />
<glyph unicode="&#xa4;" horiz-adv-x="553" d="M141 377L218 425L171 484Q159 499 145 512T115 525Q98 525 83 514T56 479L141 377ZM358 293V293Q358 245 335 220T274 194Q237 194 214 219T190 293Q190 341 213 366T274 392Q311 392 334 367T358 293ZM338 425L408
361L454 422Q467 438 474 452T482 480Q482 502 463 514T419 531L338 425ZM480 293V293Q480 356 452 400T378 466T273 489Q217 489 171 467T96 400T68 293Q68 229 96 186T171 120T275 97Q331 97 377 119T452 185T480 293ZM409 204L333 156L379 98Q392 83 405 70T436
56Q453 56 468 67T494 102L409 204ZM215 156L145 220L98 159Q86 144 78 130T70 101Q70 80 89 68T134 51L215 156Z" />
<glyph unicode="&#xa5;" horiz-adv-x="582" d="M406 295L199 283Q169 330 137 382T78 483T34 571Q45 586 63 599T109 612Q141 612 161 599T199 548L296 367H302Q325 411 340 444T371 513T409 597Q423 604 441 608T475 612Q505 612 523 597T542 552Q542 542 535
524T512 475T470 400T406 295ZM223 178H369V1Q359 -1 340 -4T302 -7Q258 -7 241 8T223 61V178ZM265 262L283 354H523Q528 345 531 334T535 308Q535 284 524 273T495 262H265ZM319 354L333 262H70Q65 269 61 281T57 307Q57 333 68 343T97 354H319ZM494 115H70Q65
122 61 134T57 161Q57 187 68 197T96 208H523Q527 199 531 187T535 162Q535 138 524 127T494 115Z" />
<glyph unicode="&#xa6;" horiz-adv-x="293" d="M200 621V312Q191 310 175 308T143 305Q109 305 91 317T72 366V676Q81 678 97 680T130 683Q164 683 182 671T200 621ZM200 136V-172Q191 -174 175 -176T143 -179Q109 -179 91 -168T72 -118V191Q81 194 97 196T130
198Q164 198 182 186T200 136Z" />
<glyph unicode="&#xa7;" horiz-adv-x="534" d="M481 89V89Q481 19 423 -21T250 -61Q194 -61 150 -51T80 -19T55 32Q55 53 64 68T86 92Q117 75 156 62T245 48Q295 48 317 59T339 91Q339 108 325 117T278 131L209 143Q132 157 93 191T54 288Q54 351 103 383T232
420L229 349Q210 342 200 327T189 292Q189 276 201 263T243 243L327 226Q402 211 441 180T481 89ZM481 279V279Q481 250 469 225T436 182T392 157L308 211Q326 226 336 239T346 272Q346 290 331 303T284 323L208 337Q161 347 127 364T75 409T57 479Q57 548 114
586T265 624Q315 624 356 615T422 587T447 539Q447 520 440 505T420 481Q407 489 383 496T330 509T276 514Q240 514 219 504T198 474Q198 458 210 451T250 438L316 427Q398 413 439 377T481 279Z" />
<glyph unicode="&#xa8;" horiz-adv-x="374" d="M160 623V623Q160 593 140 572T85 551Q53 551 33 572T12 623Q12 653 32 674T85 696Q119 696 139 675T160 623ZM363 623V623Q363 593 343 572T289 551Q257 551 236 572T215 623Q215 653 236 674T289 696Q322 696 342
675T363 623Z" />
<glyph unicode="&#xa9;" horiz-adv-x="713" d="M41 305V305Q41 392 80 462T190 574T355 616Q449 616 520 575T632 463T672 305Q672 219 632 149T521 39T355 -2Q261 -2 190 38T80 149T41 305ZM355 537V537Q287 537 238 507T161 425T134 305Q134 239 161 188T237
108T355 79Q424 79 473 108T549 188T576 305Q576 373 550 424T474 506T355 537ZM389 387V387Q358 387 335 368T312 309Q312 271 334 251T389 230Q411 230 425 235T450 247Q472 229 472 202Q472 182 445 165T373 147Q327 147 290 166T232 221T210 310Q210 365 235
400T297 452T373 470Q415 470 441 454T468 413Q468 400 462 389T447 370Q437 376 423 381T389 387Z" />
<glyph unicode="&#xaa;" horiz-adv-x="354" d="M167 364V364Q182 364 196 367T218 374V435L165 430Q142 428 129 421T115 398Q115 383 127 374T167 364ZM162 622V622Q229 622 270 595T311 506V357Q311 343 303 333T281 316Q240 292 167 292Q101 292 62 317T22
394Q22 440 49 463T133 493L217 502V506Q217 530 201 539T151 549Q126 549 102 543T59 527Q51 533 46 543T40 566Q40 582 47 591T69 606Q87 614 113 618T162 622Z" />
<glyph unicode="&#xab;" horiz-adv-x="544" d="M149 222L277 91Q277 66 261 46T211 26Q192 26 176 36T145 63L44 168Q39 177 35 191T31 220Q31 247 37 263T55 289L201 434Q234 425 250 408T267 369Q267 350 260 336T227 297L149 222ZM381 222L509 91Q509 66 493
46T443 26Q424 26 408 36T378 63L276 168Q271 177 267 191T263 220Q263 247 269 263T287 289L433 434Q466 425 482 408T499 369Q499 350 491 336T459 297L381 222Z" />
<glyph unicode="&#xac;" horiz-adv-x="532" d="M87 429H431Q461 429 478 412T496 365V182Q487 179 469 177T433 174Q398 174 380 187T362 239V318H50Q45 328 41 342T36 372Q36 402 50 415T87 429Z" />
<glyph unicode="&#xad;" horiz-adv-x="364" d="M274 198H52Q47 208 42 223T37 255Q37 286 52 300T90 315H312Q317 306 322 291T327 258Q327 227 313 213T274 198Z" />
<glyph unicode="&#xae;" horiz-adv-x="619" d="M43 446V446Q43 518 76 576T170 670T309 705Q387 705 447 670T541 577T576 446Q576 375 542 317T447 223T309 188Q230 188 170 223T77 316T43 446ZM123 446V446Q123 391 145 349T210 282T309 258Q366 258 407 282T471
348T494 446Q494 501 472 544T408 612T309 637Q252 637 210 613T146 545T123 446ZM301 413H287V336Q281 335 273 334T252 333Q237 333 228 338T219 362V549Q219 562 237 567Q251 572 267 573T302 575Q355 575 382 554T409 493Q409 468 396 451T364 425L416 357Q413
345 403 338T380 331Q364 331 355 338T337 359L301 413ZM287 463H307Q341 463 341 494Q341 509 332 516T304 523Q299 523 295 523T287 522V463Z" />
<glyph unicode="&#xaf;" horiz-adv-x="354" d="M288 566H33Q29 575 24 589T18 619Q18 650 31 662T67 675H321Q328 667 331 653T335 622Q335 591 323 579T288 566Z" />
<glyph unicode="&#xb0;" horiz-adv-x="361" d="M338 563V563Q338 518 317 486T261 436T181 419Q113 419 68 457T23 563Q23 608 44 640T101 689T181 706Q225 706 260 689T317 640T338 563ZM181 621V621Q159 621 143 607T126 563Q126 533 142 518T181 503Q203 503
218 518T234 563Q234 593 218 607T181 621Z" />
<glyph unicode="&#xb1;" horiz-adv-x="546" d="M437 315H68Q63 325 59 339T55 370Q55 401 69 415T108 429H477Q482 420 486 405T491 373Q491 342 477 329T437 315ZM437 0H68Q63 10 59 24T55 54Q55 86 69 100T108 114H477Q482 105 486 90T491 57Q491 27 477 14T437
0ZM340 507V179Q331 177 314 174T279 171Q245 171 227 183T209 234V561Q219 563 236 566T269 570Q303 570 321 558T340 507Z" />
<glyph unicode="&#xb2;" horiz-adv-x="279" d="M124 700V700Q182 700 215 673T248 596Q248 565 230 537T176 481L128 443H245Q248 437 251 428T254 408Q254 390 246 382T222 373H43Q34 380 28 390T22 416Q22 432 26 443T37 460L114 528Q142 553 151 567T161 594Q161
611 149 620T117 630Q96 630 80 623T52 608Q45 614 39 624T33 648Q33 673 58 686T124 700Z" />
<glyph unicode="&#xb3;" horiz-adv-x="282" d="M77 570H125Q143 570 152 577T162 598Q162 613 149 621T113 629Q93 629 76 624T46 611Q36 618 30 628T24 651Q24 675 52 688T126 701Q185 701 217 675T249 607Q249 585 237 567T205 540Q226 531 240 512T255 462Q255
416 219 391T126 365Q74 365 45 380T15 420Q15 433 22 444T40 460Q55 451 73 444T117 436Q141 436 154 445T168 470Q168 486 158 494T127 502H77Q73 508 71 516T68 536Q68 558 77 570Z" />
<glyph unicode="&#xb4;" horiz-adv-x="298" d="M80 624L180 733Q223 733 245 714T268 671Q268 651 259 638T229 606L135 525Q99 525 79 542T59 581Q59 592 64 602T80 624Z" />
<glyph unicode="&#xb5;" horiz-adv-x="573" d="M59 292H189L186 64Q193 15 198 -29T203 -123V-167Q193 -172 176 -176T139 -180Q98 -180 79 -165T59 -113V292ZM142 162V243L203 259V187Q203 140 228 119T296 98Q324 98 342 103T371 115V259H515V98Q515 74 506
58T476 28Q450 11 411 -2T316 -15Q252 -15 214 8T159 70T142 162ZM515 214H371V477Q380 480 397 482T435 485Q477 485 496 471T515 418V214ZM203 214H59V477Q69 480 86 482T124 485Q166 485 184 471T203 418V214Z" />
<glyph unicode="&#xb6;" horiz-adv-x="518" d="M241 613H380Q417 613 438 601T459 545V-69Q451 -71 432 -74T395 -77Q357 -77 336 -64T315 -10V491H247V241Q247 228 233 220T186 212Q145 212 106 232T42 296T16 405Q16 476 47 521T130 590T241 613Z" />
<glyph unicode="&#xb7;" horiz-adv-x="210" d="M20 266V266Q20 302 43 327T105 352Q144 352 167 327T190 266Q190 230 167 205T105 180Q66 180 43 205T20 266Z" />
<glyph unicode="&#xb8;" horiz-adv-x="195" d="M43 4L122 32Q157 11 171 -19T185 -84Q185 -134 154 -166T68 -198Q31 -198 9 -181T-13 -132Q-13 -116 -9 -103H3Q35 -103 49 -88T64 -50Q64 -38 59 -23T43 4Z" />
<glyph unicode="&#xb9;" horiz-adv-x="219" d="M87 410V601L40 584Q30 589 20 601T10 630Q10 646 18 656T39 671L112 699H127Q148 699 160 686T173 651V375Q167 373 157 371T134 369Q112 369 100 377T87 410Z" />
<glyph unicode="&#xba;" horiz-adv-x="391" d="M356 458V458Q356 378 311 336T193 293Q121 293 76 336T31 458Q31 535 76 578T193 622Q266 622 311 578T356 458ZM193 545V545Q163 545 146 523T129 458Q129 415 146 393T193 370Q223 370 240 393T257 458Q257 499
240 522T193 545Z" />
<glyph unicode="&#xbb;" horiz-adv-x="544" d="M394 237L266 369Q266 394 282 414T332 434Q352 434 367 424T398 397L499 292Q505 282 509 268T513 240Q513 212 506 196T489 170L342 26Q310 35 293 52T276 90Q276 110 284 124T317 162L394 237ZM162 237L34 369Q34
394 50 414T100 434Q120 434 135 424T166 397L267 292Q273 282 277 268T281 240Q281 212 274 196T256 170L110 26Q78 35 61 52T44 90Q44 110 52 124T85 162L162 237Z" />
<glyph unicode="&#xbc;" horiz-adv-x="622" d="M85 330V521L38 504Q28 509 18 521T8 550Q8 566 16 576T37 591L110 619H125Q146 619 158 606T171 571V295Q165 293 155 291T132 289Q110 289 98 297T85 330ZM562 278V134H606Q609 129 611 120T614 100Q614 81 605
73T584 65H351Q339 70 332 81T324 109Q324 122 327 131T337 150L457 316Q466 318 478 320T503 323Q525 323 543 313T562 278ZM482 134V180Q482 190 482 206T484 238L417 134H482ZM480 35V102H562V2Q556 0 546 -2T524 -4Q502 -4 491 4T480 35ZM93 94L449 615Q476
612 493 601T511 570Q511 557 505 544T488 514L132 -6Q104 -3 88 8T69 38Q69 52 75 65T93 94Z" />
<glyph unicode="&#xbd;" horiz-adv-x="632" d="M85 330V521L38 504Q28 509 18 521T8 550Q8 566 16 576T37 591L110 619H125Q146 619 158 606T171 571V295Q165 293 155 291T132 289Q110 289 98 297T85 330ZM478 329V329Q536 329 569 302T602 225Q602 194 584 166T530
110L482 72H599Q602 66 605 57T608 37Q608 19 600 11T576 2H397Q388 9 382 19T376 45Q376 61 380 72T391 89L468 157Q496 182 505 196T515 223Q515 240 503 249T471 259Q450 259 434 252T406 237Q399 243 393 253T387 277Q387 302 412 315T478 329ZM93 94L449 615Q476
612 493 601T511 570Q511 557 505 544T488 514L132 -6Q104 -3 88 8T69 38Q69 52 75 65T93 94Z" />
<glyph unicode="&#xbe;" horiz-adv-x="675" d="M77 493H125Q143 493 152 500T162 521Q162 536 149 544T113 552Q93 552 76 547T46 534Q36 541 30 551T24 574Q24 598 52 611T126 624Q185 624 217 598T249 530Q249 508 237 490T205 463Q226 454 240 435T255 385Q255
339 219 314T126 288Q74 288 45 303T15 343Q15 356 22 367T40 383Q55 374 73 367T117 359Q141 359 154 368T168 393Q168 409 158 417T127 425H77Q73 431 71 439T68 459Q68 481 77 493ZM614 278V134H658Q661 129 663 120T666 100Q666 81 657 73T636 65H403Q391 70
384 81T376 109Q376 122 379 131T389 150L509 316Q518 318 530 320T555 323Q577 323 595 313T614 278ZM534 134V180Q534 190 534 206T536 238L469 134H534ZM532 35V102H614V2Q608 0 598 -2T576 -4Q554 -4 543 4T532 35ZM146 94L502 615Q529 612 546 601T564 570Q564
557 558 544T541 514L185 -6Q157 -3 141 8T122 38Q122 52 128 65T146 94Z" />
<glyph unicode="&#xbf;" horiz-adv-x="487" d="M244 228L341 260Q358 250 373 227T388 178Q388 154 373 141T330 119L268 97Q226 83 203 59T180 -5Q180 -40 205 -67T285 -94Q324 -94 356 -81T417 -46Q432 -56 443 -71T454 -110Q454 -143 429 -166T362 -203T267
-216Q191 -216 138 -190T57 -116T29 -5Q29 59 53 101T126 174T244 228ZM376 399V399Q376 363 353 340T291 317Q253 317 230 340T207 399Q207 435 230 458T291 482Q330 482 353 459T376 399Z" />
<glyph unicode="&#xc0;" horiz-adv-x="617" d="M314 484H308Q297 452 284 412T255 328T227 241L210 156Q204 137 198 116T186 74T175 34T165 0Q154 -4 141 -7T108 -10Q68 -10 47 5T25 47Q25 60 28 72T37 102Q46 134 62 184T99 293T139 408T178 514T207 592Q221
600 250 607T309 615Q351 615 384 603T425 564Q445 511 467 441T513 295T558 148T596 18Q586 7 566 -1T518 -9Q477 -9 461 5T436 49L402 164L386 246Q373 291 360 334T335 416T314 484ZM145 136L202 252H439L459 136H145ZM249 676L158 747Q157 751 157 757T157
767Q157 798 174 815T218 833Q251 833 281 802L367 712Q364 683 346 668T307 653Q289 653 277 660T249 676Z" />
<glyph unicode="&#xc1;" horiz-adv-x="617" d="M314 484H308Q297 452 284 412T255 328T227 241L210 156Q204 137 198 116T186 74T175 34T165 0Q154 -4 141 -7T108 -10Q68 -10 47 5T25 47Q25 60 28 72T37 102Q46 134 62 184T99 293T139 408T178 514T207 592Q221
600 250 607T309 615Q351 615 384 603T425 564Q445 511 467 441T513 295T558 148T596 18Q586 7 566 -1T518 -9Q477 -9 461 5T436 49L402 164L386 246Q373 291 360 334T335 416T314 484ZM145 136L202 252H439L459 136H145ZM275 747L383 838Q420 838 440 821T460
778Q460 760 452 746T419 716L323 653Q290 653 272 668T254 704Q254 715 258 725T275 747Z" />
<glyph unicode="&#xc2;" horiz-adv-x="617" d="M316 739V739Q295 718 271 695T223 652Q196 652 178 667T160 706Q160 725 169 738T201 769L239 802Q284 837 318 837Q341 837 359 829T397 800L479 716Q479 686 463 671T420 655Q402 655 387 666T351 700L316 739ZM314
484H308Q297 452 284 412T255 328T227 241L210 156Q204 137 198 116T186 74T175 34T165 0Q154 -4 141 -7T108 -10Q68 -10 47 5T25 47Q25 60 28 72T37 102Q46 134 62 184T99 293T139 408T178 514T207 592Q221 600 250 607T309 615Q351 615 384 603T425 564Q445 511
467 441T513 295T558 148T596 18Q586 7 566 -1T518 -9Q477 -9 461 5T436 49L402 164L386 246Q373 291 360 334T335 416T314 484ZM145 136L202 252H439L459 136H145Z" />
<glyph unicode="&#xc3;" horiz-adv-x="617" d="M314 484H308Q297 452 284 412T255 328T227 241L210 156Q204 137 198 116T186 74T175 34T165 0Q154 -4 141 -7T108 -10Q68 -10 47 5T25 47Q25 60 28 72T37 102Q46 134 62 184T99 293T139 408T178 514T207 592Q221
600 250 607T309 615Q351 615 384 603T425 564Q445 511 467 441T513 295T558 148T596 18Q586 7 566 -1T518 -9Q477 -9 461 5T436 49L402 164L386 246Q373 291 360 334T335 416T314 484ZM145 136L202 252H439L459 136H145ZM231 826V826Q259 826 284 819T331 804T368
796Q389 796 400 808T416 832H420Q448 832 468 814T489 764Q489 725 464 705T398 684Q367 684 342 692T297 707T260 715Q239 715 229 703T213 679H209Q181 679 160 697T139 747Q139 774 152 791T187 817T231 826Z" />
<glyph unicode="&#xc4;" horiz-adv-x="617" d="M314 484H308Q297 452 284 412T255 328T227 241L210 156Q204 137 198 116T186 74T175 34T165 0Q154 -4 141 -7T108 -10Q68 -10 47 5T25 47Q25 60 28 72T37 102Q46 134 62 184T99 293T139 408T178 514T207 592Q221
600 250 607T309 615Q351 615 384 603T425 564Q445 511 467 441T513 295T558 148T596 18Q586 7 566 -1T518 -9Q477 -9 461 5T436 49L402 164L386 246Q373 291 360 334T335 416T314 484ZM145 136L202 252H439L459 136H145ZM283 745V745Q283 715 263 694T208 673Q176
673 156 694T135 745Q135 775 155 796T208 818Q242 818 262 797T283 745ZM486 745V745Q486 715 466 694T412 673Q380 673 359 694T338 745Q338 775 359 796T412 818Q445 818 465 797T486 745Z" />
<glyph unicode="&#xc5;" horiz-adv-x="617" d="M314 484H308Q297 452 284 412T255 328T227 241L210 156Q204 137 198 116T186 74T175 34T165 0Q154 -4 141 -7T108 -10Q68 -10 47 5T25 47Q25 60 28 72T37 102Q46 134 62 184T99 293T139 408T178 514T207 592Q221
600 250 607T309 615Q351 615 384 603T425 564Q445 511 467 441T513 295T558 148T596 18Q586 7 566 -1T518 -9Q477 -9 461 5T436 49L402 164L386 246Q373 291 360 334T335 416T314 484ZM145 136L202 252H439L459 136H145ZM190 751V751Q190 795 223 825T314 855Q375
855 408 825T442 751Q442 708 409 678T314 648Q257 648 224 678T190 751ZM279 751V751Q279 736 289 727T315 717Q331 717 342 726T353 751Q353 767 342 776T315 785Q300 785 290 776T279 751Z" />
<glyph unicode="&#xc6;" horiz-adv-x="866" d="M495 483H389L262 215L243 177L161 1Q149 -3 138 -6T107 -9Q68 -9 50 5T31 47Q31 59 34 72T46 103Q60 132 83 180T135 284T193 398T249 504T293 587Q306 596 330 604T384 612Q403 612 426 608T469 593T495 565V483ZM147
136L204 252H438L458 136H147ZM395 526H539V7Q530 4 512 1T474 -2Q438 -2 417 19T395 77V526ZM474 251V367H775Q782 358 786 344T791 311Q791 280 777 266T739 251H474ZM474 -2V116H809Q814 107 819 92T824 58Q824 27 811 13T773 -2H474ZM439 489V568Q451 585 469
596T512 607H804Q810 598 815 583T820 550Q820 520 806 505T768 489H439Z" />
<glyph unicode="&#xc7;" horiz-adv-x="576" d="M539 525V525Q539 503 527 486T500 460Q475 477 444 490T368 504Q314 504 275 481T214 412T193 303Q193 205 242 155T375 104Q419 104 450 116T508 143Q523 133 532 116T542 76Q542 57 532 41T497 12Q478 2 443 -7T356
-17Q268 -17 197 17T83 123T41 303Q41 407 82 478T194 587T348 624Q407 624 449 611T515 575T539 525ZM290 4L369 32Q404 11 418 -19T432 -84Q432 -134 401 -166T315 -198Q278 -198 256 -181T234 -132Q234 -116 238 -103H250Q282 -103 296 -88T311 -50Q311 -38
306 -23T290 4Z" />
<glyph unicode="&#xc8;" horiz-adv-x="546" d="M75 420H219V7Q210 4 192 1T154 -2Q117 -2 96 19T75 77V420ZM219 186L75 187V528Q75 564 96 585T154 607Q174 607 192 604T219 598V186ZM154 251V367H455Q461 358 466 344T471 311Q471 280 457 266T419 251H154ZM154
-2V116H489Q494 107 499 92T504 58Q504 27 491 13T452 -2H154ZM154 489V607H484Q490 598 495 583T500 550Q500 520 486 505T448 489H154ZM250 676L159 747Q158 751 158 757T158 767Q158 798 175 815T219 833Q252 833 282 802L368 712Q365 683 347 668T308 653Q290
653 278 660T250 676Z" />
<glyph unicode="&#xc9;" horiz-adv-x="546" d="M75 420H219V7Q210 4 192 1T154 -2Q117 -2 96 19T75 77V420ZM219 186L75 187V528Q75 564 96 585T154 607Q174 607 192 604T219 598V186ZM154 251V367H455Q461 358 466 344T471 311Q471 280 457 266T419 251H154ZM154
-2V116H489Q494 107 499 92T504 58Q504 27 491 13T452 -2H154ZM154 489V607H484Q490 598 495 583T500 550Q500 520 486 505T448 489H154ZM265 747L373 838Q410 838 430 821T450 778Q450 760 442 746T409 716L313 653Q280 653 262 668T244 704Q244 715 248 725T265
747Z" />
<glyph unicode="&#xca;" horiz-adv-x="546" d="M75 420H219V7Q210 4 192 1T154 -2Q117 -2 96 19T75 77V420ZM219 186L75 187V528Q75 564 96 585T154 607Q174 607 192 604T219 598V186ZM154 251V367H455Q461 358 466 344T471 311Q471 280 457 266T419 251H154ZM154
-2V116H489Q494 107 499 92T504 58Q504 27 491 13T452 -2H154ZM154 489V607H484Q490 598 495 583T500 550Q500 520 486 505T448 489H154ZM294 739V739Q272 718 248 695T200 652Q173 652 155 667T137 706Q137 725 146 738T178 769L216 802Q261 837 296 837Q319 837
337 829T375 800L456 716Q456 686 440 671T397 655Q380 655 365 666T329 700L294 739Z" />
<glyph unicode="&#xcb;" horiz-adv-x="546" d="M75 420H219V7Q210 4 192 1T154 -2Q117 -2 96 19T75 77V420ZM219 186L75 187V528Q75 564 96 585T154 607Q174 607 192 604T219 598V186ZM154 251V367H455Q461 358 466 344T471 311Q471 280 457 266T419 251H154ZM154
-2V116H489Q494 107 499 92T504 58Q504 27 491 13T452 -2H154ZM154 489V607H484Q490 598 495 583T500 550Q500 520 486 505T448 489H154ZM264 742V742Q264 712 244 691T189 670Q157 670 137 691T116 742Q116 772 136 793T189 815Q223 815 243 794T264 742ZM467
742V742Q467 712 447 691T393 670Q361 670 340 691T319 742Q319 772 340 793T393 815Q426 815 446 794T467 742Z" />
<glyph unicode="&#xcc;" horiz-adv-x="293" d="M72 419H220V1Q211 -1 192 -4T152 -7Q108 -7 90 8T72 63V419ZM220 236H72V607Q82 609 102 612T141 616Q183 616 201 602T220 546V236ZM334 676L243 747Q242 751 242 757T242 767Q242 798 259 815T303 833Q336 833
366 802L452 712Q449 683 431 668T392 653Q374 653 362 660T334 676Z" />
<glyph unicode="&#xcd;" horiz-adv-x="293" d="M72 419H220V1Q211 -1 192 -4T152 -7Q108 -7 90 8T72 63V419ZM220 236H72V607Q82 609 102 612T141 616Q183 616 201 602T220 546V236ZM105 747L213 838Q250 838 270 821T290 778Q290 760 282 746T249 716L153 653Q120
653 102 668T84 704Q84 715 88 725T105 747Z" />
<glyph unicode="&#xce;" horiz-adv-x="293" d="M72 419H220V1Q211 -1 192 -4T152 -7Q108 -7 90 8T72 63V419ZM220 236H72V607Q82 609 102 612T141 616Q183 616 201 602T220 546V236ZM402 739V739Q380 718 356 695T308 652Q281 652 263 667T245 706Q245 725 254
738T286 769L324 802Q369 837 404 837Q427 837 445 829T483 800L564 716Q564 686 548 671T505 655Q488 655 473 666T437 700L402 739Z" />
<glyph unicode="&#xcf;" horiz-adv-x="293" d="M72 419H220V1Q211 -1 192 -4T152 -7Q108 -7 90 8T72 63V419ZM220 236H72V607Q82 609 102 612T141 616Q183 616 201 602T220 546V236ZM371 742V742Q371 712 351 691T296 670Q264 670 244 691T223 742Q223 772 243
793T296 815Q330 815 350 794T371 742ZM574 742V742Q574 712 554 691T500 670Q468 670 447 691T426 742Q426 772 447 793T500 815Q533 815 553 794T574 742Z" />
<glyph unicode="&#xd0;" horiz-adv-x="695" d="M183 364V247H327Q351 247 365 262T379 307Q379 326 374 340T364 364H183ZM210 247V364H69Q45 364 31 350T17 303Q17 286 22 272T33 247H210ZM502 304V304Q502 205 454 155T323 105Q306 105 286 107T252 112V497Q268
499 285 500T321 502Q375 502 415 481T479 415T502 304ZM654 306V306Q654 413 611 483T492 587T313 622Q275 622 230 618T145 601Q126 594 116 584T105 554V73Q105 27 156 8Q195 -6 242 -10T323 -15Q423 -15 497 20T612 127T654 306Z" />
<glyph unicode="&#xd1;" horiz-adv-x="673" d="M72 440L206 442Q210 400 212 358T214 277T215 200V1Q206 -1 187 -4T149 -7Q107 -7 90 8T72 60V440ZM602 169L467 167Q460 241 459 308T458 437V608Q468 610 486 613T525 616Q567 616 584 601T602 549V169ZM602 216V307V18Q589
7 566 0T512 -7Q479 -7 451 3T403 51L278 287Q266 310 255 332T234 377T213 423L72 391V581Q84 598 109 606T162 615Q195 615 224 604T271 557L397 320Q409 298 420 275T441 230T461 184L602 216ZM248 826V826Q276 826 301 819T348 804T385 796Q406 796 417 808T433
832H437Q465 832 485 814T506 764Q506 725 481 705T415 684Q384 684 359 692T314 707T277 715Q256 715 246 703T230 679H226Q198 679 177 697T156 747Q156 774 169 791T204 817T248 826Z" />
<glyph unicode="&#xd2;" horiz-adv-x="699" d="M658 304V304Q658 200 618 129T507 20T349 -17Q261 -17 191 20T81 128T41 304Q41 408 82 479T193 587T349 624Q436 624 506 587T617 479T658 304ZM506 304V304Q506 402 464 453T349 504Q278 504 236 453T193 304Q193
205 235 155T350 104Q421 104 463 154T506 304ZM292 676L201 747Q200 751 200 757T200 767Q200 798 217 815T261 833Q294 833 324 802L410 712Q407 683 389 668T350 653Q332 653 320 660T292 676Z" />
<glyph unicode="&#xd3;" horiz-adv-x="699" d="M658 304V304Q658 200 618 129T507 20T349 -17Q261 -17 191 20T81 128T41 304Q41 408 82 479T193 587T349 624Q436 624 506 587T617 479T658 304ZM506 304V304Q506 402 464 453T349 504Q278 504 236 453T193 304Q193
205 235 155T350 104Q421 104 463 154T506 304ZM321 747L429 838Q466 838 486 821T506 778Q506 760 498 746T465 716L369 653Q336 653 318 668T300 704Q300 715 304 725T321 747Z" />
<glyph unicode="&#xd4;" horiz-adv-x="699" d="M658 304V304Q658 200 618 129T507 20T349 -17Q261 -17 191 20T81 128T41 304Q41 408 82 479T193 587T349 624Q436 624 506 587T617 479T658 304ZM506 304V304Q506 402 464 453T349 504Q278 504 236 453T193 304Q193
205 235 155T350 104Q421 104 463 154T506 304ZM352 739V739Q330 718 306 695T258 652Q231 652 213 667T195 706Q195 725 204 738T236 769L274 802Q319 837 354 837Q377 837 395 829T433 800L514 716Q514 686 498 671T455 655Q438 655 423 666T387 700L352 739Z"
/>
<glyph unicode="&#xd5;" horiz-adv-x="699" d="M658 304V304Q658 200 618 129T507 20T349 -17Q261 -17 191 20T81 128T41 304Q41 408 82 479T193 587T349 624Q436 624 506 587T617 479T658 304ZM506 304V304Q506 402 464 453T349 504Q278 504 236 453T193 304Q193
205 235 155T350 104Q421 104 463 154T506 304ZM267 826V826Q295 826 320 819T367 804T404 796Q425 796 436 808T452 832H456Q484 832 504 814T525 764Q525 725 500 705T434 684Q403 684 378 692T333 707T296 715Q275 715 265 703T249 679H245Q217 679 196 697T175
747Q175 774 188 791T223 817T267 826Z" />
<glyph unicode="&#xd6;" horiz-adv-x="699" d="M658 304V304Q658 200 618 129T507 20T349 -17Q261 -17 191 20T81 128T41 304Q41 408 82 479T193 587T349 624Q436 624 506 587T617 479T658 304ZM506 304V304Q506 402 464 453T349 504Q278 504 236 453T193 304Q193
205 235 155T350 104Q421 104 463 154T506 304ZM321 742V742Q321 712 301 691T246 670Q214 670 194 691T173 742Q173 772 193 793T246 815Q280 815 300 794T321 742ZM524 742V742Q524 712 504 691T450 670Q418 670 397 691T376 742Q376 772 397 793T450 815Q483
815 503 794T524 742Z" />
<glyph unicode="&#xd7;" horiz-adv-x="501" d="M317 309L464 142Q456 114 437 96T389 78Q378 78 365 84T342 102L237 226L193 265L38 426Q45 451 66 472T112 494Q124 494 134 489T153 474L277 340L317 309ZM426 379L313 261L259 220L119 72Q87 78 64 99T41 142Q41
153 47 163T65 186L183 308L233 341L382 497Q408 489 428 470T449 424Q449 413 444 402T426 379Z" />
<glyph unicode="&#xd8;" horiz-adv-x="699" d="M190 70L106 -17Q75 -10 57 5T39 44Q39 60 48 74T76 106L111 139L190 70ZM615 502L583 470L517 551L587 625Q617 618 635 602T654 564Q654 549 643 534T615 502ZM524 415L225 101L178 198L457 493L524 415ZM658 304V304Q658
200 618 129T508 20T349 -17Q262 -17 192 21T81 132T41 304Q41 408 82 479T192 587T349 624Q435 624 505 586T616 477T658 304ZM510 304V304Q510 401 466 452T349 504Q279 504 234 453T189 304Q189 206 233 155T350 104Q421 104 465 154T510 304Z" />
<glyph unicode="&#xd9;" horiz-adv-x="660" d="M330 -17V-17Q248 -17 190 12T101 95T70 219V286H217V223Q217 166 249 135T330 104Q379 104 410 135T442 223V286H590V219Q590 148 559 95T470 13T330 -17ZM217 255H70V607Q80 609 99 612T138 616Q180 616 198 602T217
546V255ZM590 253H442V607Q452 609 472 612T511 616Q552 616 571 602T590 546V253ZM259 676L168 747Q167 751 167 757T167 767Q167 798 184 815T228 833Q261 833 291 802L377 712Q374 683 356 668T317 653Q299 653 287 660T259 676Z" />
<glyph unicode="&#xda;" horiz-adv-x="660" d="M330 -17V-17Q248 -17 190 12T101 95T70 219V286H217V223Q217 166 249 135T330 104Q379 104 410 135T442 223V286H590V219Q590 148 559 95T470 13T330 -17ZM217 255H70V607Q80 609 99 612T138 616Q180 616 198 602T217
546V255ZM590 253H442V607Q452 609 472 612T511 616Q552 616 571 602T590 546V253ZM296 747L404 838Q441 838 461 821T481 778Q481 760 473 746T440 716L344 653Q311 653 293 668T275 704Q275 715 279 725T296 747Z" />
<glyph unicode="&#xdb;" horiz-adv-x="660" d="M330 -17V-17Q248 -17 190 12T101 95T70 219V286H217V223Q217 166 249 135T330 104Q379 104 410 135T442 223V286H590V219Q590 148 559 95T470 13T330 -17ZM217 255H70V607Q80 609 99 612T138 616Q180 616 198 602T217
546V255ZM590 253H442V607Q452 609 472 612T511 616Q552 616 571 602T590 546V253ZM335 739V739Q313 718 289 695T241 652Q214 652 196 667T178 706Q178 725 187 738T219 769L257 802Q302 837 337 837Q360 837 378 829T416 800L497 716Q497 686 481 671T438 655Q421
655 406 666T370 700L335 739Z" />
<glyph unicode="&#xdc;" horiz-adv-x="660" d="M330 -17V-17Q248 -17 190 12T101 95T70 219V286H217V223Q217 166 249 135T330 104Q379 104 410 135T442 223V286H590V219Q590 148 559 95T470 13T330 -17ZM217 255H70V607Q80 609 99 612T138 616Q180 616 198 602T217
546V255ZM590 253H442V607Q452 609 472 612T511 616Q552 616 571 602T590 546V253ZM300 742V742Q300 712 280 691T225 670Q193 670 173 691T152 742Q152 772 172 793T225 815Q259 815 279 794T300 742ZM503 742V742Q503 712 483 691T429 670Q397 670 376 691T355
742Q355 772 376 793T429 815Q462 815 482 794T503 742Z" />
<glyph unicode="&#xdd;" horiz-adv-x="567" d="M359 197H227Q201 235 170 283T109 382T53 481T10 567Q20 583 39 596T87 610Q120 610 140 596T180 545Q184 538 195 517T220 469T249 413T275 365T289 338H294Q318 385 337 425T374 506T413 595Q427 602 445 606T480
610Q510 610 530 595T551 548Q551 537 542 513T510 448T451 346T359 197ZM220 251H364V1Q355 -1 336 -4T298 -7Q254 -7 237 8T220 61V251ZM242 747L350 838Q387 838 407 821T427 778Q427 760 419 746T386 716L290 653Q257 653 239 668T221 704Q221 715 225 725T242
747Z" />
<glyph unicode="&#xde;" horiz-adv-x="576" d="M215 215V398H285Q336 398 364 376T393 306Q393 260 365 238T285 215H215ZM68 515V97H304Q424 97 483 155T543 306Q543 402 484 458T304 515H68ZM216 167H68V62Q68 24 86 9T148 -7Q168 -7 187 -4T216 1V167ZM68 422H216V546Q216
586 198 601T137 616Q118 616 98 613T68 608V422Z" />
<glyph unicode="&#xdf;" horiz-adv-x="610" d="M205 284H62V460Q62 533 92 581T176 652T293 676Q362 676 414 650T496 576T526 459Q526 416 491 399L454 381Q437 372 429 363T421 340Q421 327 429 318T456 298Q497 277 524 255T564 206T577 139Q577 63 526 23T396
-17Q337 -17 301 1T265 55Q265 75 274 89T296 113Q312 104 330 97T372 90Q398 90 414 103T430 138Q430 159 418 173T377 201Q326 229 300 260T273 342Q273 382 297 411T365 458L383 465Q383 505 359 532T294 559Q256 559 231 535T205 460V284ZM62 319H205V0Q196
-2 179 -5T141 -8Q100 -8 81 7T62 60V319Z" />
<glyph unicode="&#xe0;" horiz-adv-x="531" d="M254 92V92Q278 92 301 97T334 108V207L247 199Q212 196 192 184T172 147Q172 122 191 107T254 92ZM248 493V493Q351 493 412 451T473 317V89Q473 64 461 49T429 22Q399 5 355 -5T254 -15Q152 -15 92 24T32 142Q32
210 74 246T199 291L333 305V318Q333 353 307 368T231 384Q193 384 156 375T90 353Q79 361 71 377T62 410Q62 452 107 470Q135 482 173 487T248 493ZM212 550L115 643Q114 647 114 653T113 663Q113 694 131 711T176 728Q193 728 208 721T238 697L328 586Q325 556
307 542T268 527Q250 527 238 532T212 550Z" />
<glyph unicode="&#xe1;" horiz-adv-x="531" d="M254 92V92Q278 92 301 97T334 108V207L247 199Q212 196 192 184T172 147Q172 122 191 107T254 92ZM248 493V493Q351 493 412 451T473 317V89Q473 64 461 49T429 22Q399 5 355 -5T254 -15Q152 -15 92 24T32 142Q32
210 74 246T199 291L333 305V318Q333 353 307 368T231 384Q193 384 156 375T90 353Q79 361 71 377T62 410Q62 452 107 470Q135 482 173 487T248 493ZM219 624L319 733Q362 733 384 714T407 671Q407 651 398 638T368 606L274 525Q238 525 218 542T198 581Q198 592
203 602T219 624Z" />
<glyph unicode="&#xe2;" horiz-adv-x="531" d="M254 92V92Q278 92 301 97T334 108V207L247 199Q212 196 192 184T172 147Q172 122 191 107T254 92ZM248 493V493Q351 493 412 451T473 317V89Q473 64 461 49T429 22Q399 5 355 -5T254 -15Q152 -15 92 24T32 142Q32
210 74 246T199 291L333 305V318Q333 353 307 368T231 384Q193 384 156 375T90 353Q79 361 71 377T62 410Q62 452 107 470Q135 482 173 487T248 493ZM310 567L262 624Q237 595 219 575T179 530Q147 531 127 546T107 585Q107 602 116 615T145 646L186 690Q204 706
222 716T265 726Q288 726 307 717T349 680L423 589Q423 566 409 549T367 532Q350 532 337 541T310 567Z" />
<glyph unicode="&#xe3;" horiz-adv-x="531" d="M254 92V92Q278 92 301 97T334 108V207L247 199Q212 196 192 184T172 147Q172 122 191 107T254 92ZM248 493V493Q351 493 412 451T473 317V89Q473 64 461 49T429 22Q399 5 355 -5T254 -15Q152 -15 92 24T32 142Q32
210 74 246T199 291L333 305V318Q333 353 307 368T231 384Q193 384 156 375T90 353Q79 361 71 377T62 410Q62 452 107 470Q135 482 173 487T248 493ZM179 696V696Q207 696 232 689T279 674T316 666Q337 666 348 678T364 702H368Q396 702 416 684T437 634Q437 595
412 575T346 554Q315 554 290 562T245 577T208 585Q187 585 177 573T161 549H157Q129 549 108 567T87 617Q87 644 100 661T135 687T179 696Z" />
<glyph unicode="&#xe4;" horiz-adv-x="531" d="M254 92V92Q278 92 301 97T334 108V207L247 199Q212 196 192 184T172 147Q172 122 191 107T254 92ZM248 493V493Q351 493 412 451T473 317V89Q473 64 461 49T429 22Q399 5 355 -5T254 -15Q152 -15 92 24T32 142Q32
210 74 246T199 291L333 305V318Q333 353 307 368T231 384Q193 384 156 375T90 353Q79 361 71 377T62 410Q62 452 107 470Q135 482 173 487T248 493ZM240 878V878Q240 848 220 827T165 806Q133 806 113 827T92 878Q92 908 112 929T165 951Q199 951 219 930T240
878ZM443 878V878Q443 848 423 827T369 806Q337 806 316 827T295 878Q295 908 316 929T369 951Q402 951 422 930T443 878Z" />
<glyph unicode="&#xe5;" horiz-adv-x="531" d="M254 92V92Q278 92 301 97T334 108V207L247 199Q212 196 192 184T172 147Q172 122 191 107T254 92ZM248 493V493Q351 493 412 451T473 317V89Q473 64 461 49T429 22Q399 5 355 -5T254 -15Q152 -15 92 24T32 142Q32
210 74 246T199 291L333 305V318Q333 353 307 368T231 384Q193 384 156 375T90 353Q79 361 71 377T62 410Q62 452 107 470Q135 482 173 487T248 493ZM139 633V633Q139 677 172 708T263 739Q324 739 357 708T390 633Q390 588 357 558T263 527Q205 527 172 557T139
633ZM228 633V633Q228 615 238 605T264 595Q280 595 290 605T301 632Q301 650 291 660T264 670Q249 670 239 661T228 633Z" />
<glyph unicode="&#xe6;" horiz-adv-x="825" d="M410 171L405 269L656 307Q653 338 631 362T564 387Q517 387 487 356T455 266L459 200Q468 144 506 119T599 94Q641 94 678 106T737 132Q752 123 761 108T771 74Q771 45 748 25T683 -5T590 -15Q479 -15 414 47T344
220Q344 225 342 232T340 245Q340 331 371 385T453 466T564 493Q632 493 683 466T763 392T792 283Q792 253 776 238T730 218L410 171ZM254 92V92Q278 92 301 97T334 108V207L247 199Q212 196 192 184T172 147Q172 122 191 107T254 92ZM248 493V493Q344 493 394
449T445 317V87Q445 62 434 46T408 21Q379 5 344 -5T252 -15Q150 -15 91 24T32 142Q32 210 74 246T199 291L333 305V318Q333 353 307 368T231 384Q193 384 156 375T90 353Q79 361 71 377T62 410Q62 452 107 470Q135 482 173 487T248 493Z" />
<glyph unicode="&#xe7;" horiz-adv-x="486" d="M315 379V379Q260 379 221 343T182 238Q182 169 219 135T315 100Q348 100 373 108T415 127Q432 116 441 102T450 67Q450 31 410 9T300 -14Q221 -14 162 14T69 98T36 238Q36 324 71 380T166 465T296 493Q364 493 403
469T443 407Q443 390 435 376T415 352Q396 362 372 370T315 379ZM231 4L310 32Q345 11 359 -19T373 -84Q373 -134 342 -166T256 -198Q219 -198 197 -181T175 -132Q175 -116 179 -103H191Q223 -103 237 -88T252 -50Q252 -38 247 -23T231 4Z" />
<glyph unicode="&#xe8;" horiz-adv-x="540" d="M125 171L120 269L371 307Q369 338 347 362T279 387Q233 387 203 356T170 266L175 200Q184 144 222 119T315 94Q357 94 393 106T452 132Q467 123 476 108T486 74Q486 45 463 25T398 -5T305 -15Q227 -15 167 14T71
101T36 245Q36 309 56 356T110 433T188 478T279 493Q347 493 398 466T478 392T507 283Q507 253 491 238T445 218L125 171ZM220 550L123 643Q122 647 122 653T121 663Q121 694 139 711T184 728Q201 728 216 721T246 697L336 586Q333 556 315 542T276 527Q258 527
246 532T220 550Z" />
<glyph unicode="&#xe9;" horiz-adv-x="540" d="M125 171L120 269L371 307Q369 338 347 362T279 387Q233 387 203 356T170 266L175 200Q184 144 222 119T315 94Q357 94 393 106T452 132Q467 123 476 108T486 74Q486 45 463 25T398 -5T305 -15Q227 -15 167 14T71
101T36 245Q36 309 56 356T110 433T188 478T279 493Q347 493 398 466T478 392T507 283Q507 253 491 238T445 218L125 171ZM238 624L338 733Q381 733 403 714T426 671Q426 651 417 638T387 606L293 525Q257 525 237 542T217 581Q217 592 222 602T238 624Z" />
<glyph unicode="&#xea;" horiz-adv-x="540" d="M125 171L120 269L371 307Q369 338 347 362T279 387Q233 387 203 356T170 266L175 200Q184 144 222 119T315 94Q357 94 393 106T452 132Q467 123 476 108T486 74Q486 45 463 25T398 -5T305 -15Q227 -15 167 14T71
101T36 245Q36 309 56 356T110 433T188 478T279 493Q347 493 398 466T478 392T507 283Q507 253 491 238T445 218L125 171ZM327 567L279 624Q254 595 236 575T196 530Q164 531 144 546T124 585Q124 602 133 615T162 646L203 690Q221 706 239 716T282 726Q305 726
324 717T366 680L440 589Q440 566 426 549T384 532Q367 532 354 541T327 567Z" />
<glyph unicode="&#xeb;" horiz-adv-x="540" d="M125 171L120 269L371 307Q369 338 347 362T279 387Q233 387 203 356T170 266L175 200Q184 144 222 119T315 94Q357 94 393 106T452 132Q467 123 476 108T486 74Q486 45 463 25T398 -5T305 -15Q227 -15 167 14T71
101T36 245Q36 309 56 356T110 433T188 478T279 493Q347 493 398 466T478 392T507 283Q507 253 491 238T445 218L125 171ZM244 878V878Q244 848 224 827T169 806Q137 806 117 827T96 878Q96 908 116 929T169 951Q203 951 223 930T244 878ZM447 878V878Q447 848
427 827T373 806Q341 806 320 827T299 878Q299 908 320 929T373 951Q406 951 426 930T447 878Z" />
<glyph unicode="&#xec;" horiz-adv-x="270" d="M63 282H207V0Q198 -2 181 -5T143 -8Q102 -8 83 7T63 60V282ZM207 234H63V473Q72 476 89 478T127 481Q169 481 188 467T207 414V234ZM78 550L-19 643Q-20 647 -20 653T-21 663Q-21 694 -3 711T42 728Q60 728 75 721T105
697L194 586Q191 556 173 542T134 527Q116 527 104 532T78 550Z" />
<glyph unicode="&#xed;" horiz-adv-x="270" d="M63 282H207V0Q198 -2 181 -5T143 -8Q102 -8 83 7T63 60V282ZM207 234H63V473Q72 476 89 478T127 481Q169 481 188 467T207 414V234ZM96 624L196 733Q239 733 261 714T284 671Q284 651 275 638T245 606L151 525Q115
525 96 542T76 581Q76 592 80 602T96 624Z" />
<glyph unicode="&#xee;" horiz-adv-x="270" d="M63 282H207V0Q198 -2 181 -5T143 -8Q102 -8 83 7T63 60V282ZM207 234H63V473Q72 476 89 478T127 481Q169 481 188 467T207 414V234ZM182 567L135 624Q110 595 92 575T52 530Q19 531 0 546T-20 585Q-20 602 -11 615T17
646L59 690Q76 706 94 716T137 726Q160 726 179 717T221 680L296 589Q296 566 282 549T239 532Q222 532 209 541T182 567Z" />
<glyph unicode="&#xef;" horiz-adv-x="270" d="M63 282H207V0Q198 -2 181 -5T143 -8Q102 -8 83 7T63 60V282ZM207 234H63V473Q72 476 89 478T127 481Q169 481 188 467T207 414V234ZM107 622V622Q107 591 87 570T32 549Q0 549 -20 570T-41 622Q-41 652 -21 673T32
694Q66 694 86 673T107 622ZM310 622V622Q310 591 290 570T236 549Q204 549 183 570T161 622Q161 652 182 673T236 694Q269 694 289 673T310 622Z" />
<glyph unicode="&#xf0;" horiz-adv-x="571" d="M375 552L327 533L147 466Q135 476 125 492T114 526Q114 555 145 567L217 597L302 630L440 686Q453 677 463 661T474 626Q474 606 466 596T441 580L375 552ZM412 391L395 282Q377 310 350 326T291 342Q238 342 211
309T184 223Q184 166 211 133T288 99Q338 99 362 133T386 226Q386 256 383 281T373 331Q370 346 371 357T373 379T369 401Q350 441 328 473T269 535Q261 543 249 552T227 568Q202 586 174 597T113 618Q115 657 135 676T184 696Q224 696 268 678T353 626Q361 619
367 614T382 601Q424 561 458 507T513 388T534 254Q534 174 507 114T426 19T287 -15Q171 -15 104 48T36 223Q36 300 69 350T154 426T263 451Q314 451 351 434T412 391Z" />
<glyph unicode="&#xf1;" horiz-adv-x="576" d="M517 311V216H373V306Q373 344 351 362T292 380Q266 380 245 374T206 358V216H62V373Q62 398 72 414T103 444Q135 465 184 479T293 493Q400 493 458 446T517 311ZM62 262H206V1Q196 -1 179 -4T141 -7Q100 -7 81 7T62
60V262ZM373 262H517V1Q508 -1 491 -4T452 -7Q411 -7 392 7T373 60V262ZM205 696V696Q233 696 258 689T305 674T342 666Q363 666 374 678T390 702H394Q422 702 442 684T463 634Q463 595 438 575T372 554Q341 554 316 562T271 577T234 585Q213 585 203 573T187 549H183Q155
549 134 567T113 617Q113 644 126 661T161 687T205 696Z" />
<glyph unicode="&#xf2;" horiz-adv-x="576" d="M540 240V240Q540 161 509 104T422 16T288 -15Q212 -15 156 15T68 103T36 240Q36 318 68 374T156 462T289 493Q364 493 420 462T508 374T540 240ZM288 380V380Q240 380 212 343T184 240Q184 171 211 135T288 98Q338
98 365 135T393 240Q393 305 365 342T288 380ZM254 550L157 643Q156 647 156 653T155 663Q155 694 173 711T218 728Q235 728 250 721T280 697L370 586Q367 556 349 542T310 527Q292 527 280 532T254 550Z" />
<glyph unicode="&#xf3;" horiz-adv-x="576" d="M540 240V240Q540 161 509 104T422 16T288 -15Q212 -15 156 15T68 103T36 240Q36 318 68 374T156 462T289 493Q364 493 420 462T508 374T540 240ZM288 380V380Q240 380 212 343T184 240Q184 171 211 135T288 98Q338
98 365 135T393 240Q393 305 365 342T288 380ZM232 624L332 733Q375 733 397 714T420 671Q420 651 411 638T381 606L287 525Q251 525 231 542T211 581Q211 592 216 602T232 624Z" />
<glyph unicode="&#xf4;" horiz-adv-x="576" d="M540 240V240Q540 161 509 104T422 16T288 -15Q212 -15 156 15T68 103T36 240Q36 318 68 374T156 462T289 493Q364 493 420 462T508 374T540 240ZM288 380V380Q240 380 212 343T184 240Q184 171 211 135T288 98Q338
98 365 135T393 240Q393 305 365 342T288 380ZM334 567L286 624Q261 595 243 575T203 530Q171 531 151 546T131 585Q131 602 140 615T169 646L210 690Q228 706 246 716T289 726Q312 726 331 717T373 680L447 589Q447 566 433 549T391 532Q374 532 361 541T334 567Z"
/>
<glyph unicode="&#xf5;" horiz-adv-x="576" d="M540 240V240Q540 161 509 104T422 16T288 -15Q212 -15 156 15T68 103T36 240Q36 318 68 374T156 462T289 493Q364 493 420 462T508 374T540 240ZM288 380V380Q240 380 212 343T184 240Q184 171 211 135T288 98Q338
98 365 135T393 240Q393 305 365 342T288 380ZM207 696V696Q235 696 260 689T307 674T344 666Q365 666 376 678T392 702H396Q424 702 444 684T465 634Q465 595 440 575T374 554Q343 554 318 562T273 577T236 585Q215 585 205 573T189 549H185Q157 549 136 567T115
617Q115 644 128 661T163 687T207 696Z" />
<glyph unicode="&#xf6;" horiz-adv-x="576" d="M540 240V240Q540 161 509 104T422 16T288 -15Q212 -15 156 15T68 103T36 240Q36 318 68 374T156 462T289 493Q364 493 420 462T508 374T540 240ZM288 380V380Q240 380 212 343T184 240Q184 171 211 135T288 98Q338
98 365 135T393 240Q393 305 365 342T288 380ZM260 878V878Q260 848 240 827T185 806Q153 806 133 827T112 878Q112 908 132 929T185 951Q219 951 239 930T260 878ZM463 878V878Q463 848 443 827T389 806Q357 806 336 827T315 878Q315 908 336 929T389 951Q422
951 442 930T463 878Z" />
<glyph unicode="&#xf7;" horiz-adv-x="524" d="M435 235H50Q44 245 40 258T36 289Q36 321 51 335T90 349H474Q479 340 483 325T488 292Q488 262 474 249T435 235ZM193 124V124Q193 155 212 176T265 197Q297 197 316 176T335 124Q335 94 316 74T265 53Q232 53 213
73T193 124ZM193 458V458Q193 489 212 509T265 530Q297 530 316 510T335 458Q335 427 316 407T265 387Q232 387 213 407T193 458Z" />
<glyph unicode="&#xf8;" horiz-adv-x="576" d="M436 388L383 450L442 540Q455 540 469 534T493 519T503 496Q503 486 496 476L436 388ZM208 46L135 -61Q122 -61 108 -55T84 -38T74 -17Q74 -6 81 4L134 81L208 46ZM226 76L180 146L342 390L412 357L226 76ZM540
240V240Q540 161 509 104T422 16T288 -15Q212 -15 156 15T68 103T36 240Q36 317 68 374T156 462T288 493Q364 493 420 462T508 374T540 240ZM288 381V381Q240 381 207 345T174 240Q174 171 206 134T288 97Q338 97 370 133T402 240Q402 308 370 344T288 381Z" />
<glyph unicode="&#xf9;" horiz-adv-x="573" d="M59 186V259H203V187Q203 140 227 119T295 98Q323 98 342 103T370 115V259H514V98Q514 74 505 57T475 28Q444 8 398 -3T294 -15Q224 -15 171 6T88 71T59 186ZM514 214H370V477Q379 480 397 482T435 485Q477 485 495
471T514 418V214ZM203 214H59V477Q68 480 85 482T124 485Q165 485 184 471T203 418V214ZM222 550L125 643Q124 647 124 653T123 663Q123 694 141 711T186 728Q203 728 218 721T248 697L338 586Q335 556 317 542T278 527Q260 527 248 532T222 550Z" />
<glyph unicode="&#xfa;" horiz-adv-x="573" d="M59 186V259H203V187Q203 140 227 119T295 98Q323 98 342 103T370 115V259H514V98Q514 74 505 57T475 28Q444 8 398 -3T294 -15Q224 -15 171 6T88 71T59 186ZM514 214H370V477Q379 480 397 482T435 485Q477 485 495
471T514 418V214ZM203 214H59V477Q68 480 85 482T124 485Q165 485 184 471T203 418V214ZM255 624L355 733Q398 733 420 714T443 671Q443 651 434 638T404 606L310 525Q274 525 254 542T234 581Q234 592 239 602T255 624Z" />
<glyph unicode="&#xfb;" horiz-adv-x="573" d="M59 186V259H203V187Q203 140 227 119T295 98Q323 98 342 103T370 115V259H514V98Q514 74 505 57T475 28Q444 8 398 -3T294 -15Q224 -15 171 6T88 71T59 186ZM514 214H370V477Q379 480 397 482T435 485Q477 485 495
471T514 418V214ZM203 214H59V477Q68 480 85 482T124 485Q165 485 184 471T203 418V214ZM333 567L285 624Q260 595 242 575T202 530Q170 531 150 546T130 585Q130 602 139 615T168 646L209 690Q227 706 245 716T288 726Q311 726 330 717T372 680L446 589Q446 566
432 549T390 532Q373 532 360 541T333 567Z" />
<glyph unicode="&#xfc;" horiz-adv-x="573" d="M59 186V259H203V187Q203 140 227 119T295 98Q323 98 342 103T370 115V259H514V98Q514 74 505 57T475 28Q444 8 398 -3T294 -15Q224 -15 171 6T88 71T59 186ZM514 214H370V477Q379 480 397 482T435 485Q477 485 495
471T514 418V214ZM203 214H59V477Q68 480 85 482T124 485Q165 485 184 471T203 418V214ZM256 878V878Q256 848 236 827T181 806Q149 806 129 827T108 878Q108 908 128 929T181 951Q215 951 235 930T256 878ZM459 878V878Q459 848 439 827T385 806Q353 806 332 827T311
878Q311 908 332 929T385 951Q418 951 438 930T459 878Z" />
<glyph unicode="&#xfd;" horiz-adv-x="533" d="M140 118V118Q124 151 105 198T66 310T23 458Q35 470 55 479T99 489Q128 489 147 476T177 428Q200 354 224 282T273 135H277Q294 180 312 237T345 355T371 473Q385 480 400 484T433 489Q463 489 484 476T506 431Q506
404 498 364T476 275T442 177T402 81T360 -3Q307 -96 262 -142T173 -189Q138 -189 115 -168T88 -114Q109 -95 132 -71T177 -20T215 33Q198 38 180 55T140 118ZM213 624L313 733Q356 733 378 714T401 671Q401 651 392 638T362 606L268 525Q232 525 212 542T192 581Q192
592 197 602T213 624Z" />
<glyph unicode="&#xfe;" horiz-adv-x="577" d="M61 54H205V592Q205 630 186 644T125 659Q105 659 88 657T61 651V54ZM296 -14V-14Q366 -14 421 15T507 101T539 242Q539 330 507 385T420 467T300 493Q258 493 225 483T171 463L179 346Q204 365 229 372T279 380Q312
380 338 366T378 322T392 242Q392 171 361 136T274 100Q242 100 218 112T175 139V16Q197 4 227 -5T296 -14ZM205 90H61V-112Q61 -150 80 -164T140 -179Q160 -179 177 -176T205 -171V90Z" />
<glyph unicode="&#xff;" horiz-adv-x="533" d="M140 118V118Q124 151 105 198T66 310T23 458Q35 470 55 479T99 489Q128 489 147 476T177 428Q200 354 224 282T273 135H277Q294 180 312 237T345 355T371 473Q385 480 400 484T433 489Q463 489 484 476T506 431Q506
404 498 364T476 275T442 177T402 81T360 -3Q307 -96 262 -142T173 -189Q138 -189 115 -168T88 -114Q109 -95 132 -71T177 -20T215 33Q198 38 180 55T140 118ZM236 878V878Q236 848 216 827T161 806Q129 806 109 827T88 878Q88 908 108 929T161 951Q195 951 215
930T236 878ZM439 878V878Q439 848 419 827T365 806Q333 806 312 827T291 878Q291 908 312 929T365 951Q398 951 418 930T439 878Z" />
<glyph unicode="&#x2013;" horiz-adv-x="539" d="M456 198H45Q40 208 35 223T30 255Q30 286 44 300T83 315H494Q499 306 504 291T509 258Q509 227 495 213T456 198Z" />
<glyph unicode="&#x2014;" horiz-adv-x="773" d="M683 199H52Q47 209 42 224T37 256Q37 287 52 301T90 315H721Q726 307 731 292T736 259Q736 228 722 214T683 199Z" />
<glyph unicode="&#x2018;" horiz-adv-x="196" d="M66 652V652Q75 668 88 675T122 683Q137 683 151 680T177 670Q174 634 170 594T162 514T157 440Q145 434 127 429T90 423Q62 423 41 435T19 479Q19 504 25 537T43 602T66 652Z" />
<glyph unicode="&#x2019;" horiz-adv-x="194" d="M130 455V455Q120 439 107 431T74 423Q58 423 45 427T19 437Q22 473 26 513T33 593T38 666Q51 673 69 678T106 683Q133 683 155 671T177 627Q177 603 170 570T153 505T130 455Z" />
<glyph unicode="&#x201a;" horiz-adv-x="200" d="M130 -50V-50Q120 -66 107 -74T74 -82Q58 -82 45 -78T19 -68Q22 -32 26 8T33 88T38 161Q51 168 69 173T106 178Q133 178 155 166T177 122Q177 98 170 65T153 0T130 -50Z" />
<glyph unicode="&#x201c;" horiz-adv-x="371" d="M248 652V652Q258 668 270 675T301 683Q317 683 329 680T353 671Q350 636 346 595T338 513T332 439Q320 433 304 428T269 423Q240 423 221 435T202 479Q202 504 208 537T226 602T248 652ZM65 652V652Q74 668 86
675T117 683Q133 683 145 680T169 671Q166 636 162 595T154 513T148 439Q136 433 120 428T85 423Q56 423 37 435T18 479Q18 504 24 537T42 602T65 652Z" />
<glyph unicode="&#x201d;" horiz-adv-x="371" d="M123 455V455Q113 439 102 431T70 423Q54 423 43 426T19 436Q22 472 26 513T33 594T38 667Q51 674 67 678T102 683Q131 683 150 671T169 627Q169 603 163 570T146 505T123 455ZM307 455V455Q297 439 286 431T254
423Q238 423 226 426T202 436Q206 472 210 513T217 594T222 667Q235 674 251 678T286 683Q315 683 333 671T352 627Q352 603 346 570T329 505T307 455Z" />
<glyph unicode="&#x201e;" horiz-adv-x="376" d="M123 -50V-50Q113 -66 102 -74T70 -82Q54 -82 43 -79T19 -69Q22 -33 26 8T33 89T38 162Q51 169 67 173T102 178Q131 178 150 166T169 122Q169 98 163 65T146 0T123 -50ZM307 -50V-50Q297 -66 286 -74T254 -82Q238
-82 226 -79T202 -69Q206 -33 210 8T217 89T222 162Q235 169 251 173T286 178Q315 178 333 166T352 122Q352 98 346 65T329 0T307 -50Z" />
<glyph unicode="&#x2022;" horiz-adv-x="299" d="M39 282V282Q39 328 69 360T149 393Q199 393 229 361T259 282Q259 236 229 204T149 172Q99 172 69 204T39 282Z" />
<glyph unicode="&#x2039;" horiz-adv-x="312" d="M149 222L277 91Q277 66 261 46T211 26Q192 26 176 36T145 63L44 168Q39 177 35 191T31 220Q31 247 37 263T55 289L201 434Q234 425 250 408T267 369Q267 350 260 336T227 297L149 222Z" />
<glyph unicode="&#x203a;" horiz-adv-x="312" d="M162 237L34 369Q34 394 50 414T100 434Q120 434 135 424T166 397L267 292Q273 282 277 268T281 240Q281 212 274 196T256 170L110 26Q78 35 61 52T44 90Q44 110 52 124T85 162L162 237Z" />
</font>
</defs>
</svg>
