<?xml version="1.0" standalone="no"?>
<!DOCTYPE svg PUBLIC "-//W3C//DTD SVG 1.1//EN" "http://www.w3.org/Graphics/SVG/1.1/DTD/svg11.dtd">
<svg xmlns="http://www.w3.org/2000/svg">
<defs >
<font id="BalooBhaina2" horiz-adv-x="556" ><font-face
    font-family="Baloo Bhaina 2 SemiBold"
    units-per-em="1000"
    panose-1="0 0 0 0 0 0 0 0 0 0"
    ascent="1185"
    descent="-827"
    alphabetic="0" />
<glyph unicode=" " horiz-adv-x="200" />
<glyph unicode="!" horiz-adv-x="271" d="M196 619V619Q196 597 196 560T193 476T189 380T185 286T180 206Q173 201 159 198T133 194Q113 194 99 202T82 228Q80 251 78 292T74 384T71 487T69 585T68 661Q99 679 136 679Q196 679 196 619ZM60 59V59Q60 90 80 111T134
132Q168 132 188 111T208 59Q208 27 188 7T134 -14Q100 -14 80 6T60 59Z" />
<glyph unicode="&quot;" horiz-adv-x="332" d="M126 450V450Q117 446 107 445T83 443Q64 443 52 451T37 478L28 663Q39 671 53 675T86 679Q112 679 125 668T139 631Q139 614 137 580T132 511T126 450ZM289 450V450Q280 446 269 445T245 443Q226 443 214 451T200
478L191 663Q202 671 216 675T248 679Q275 679 288 668T302 630Q302 613 300 580T295 511T289 450Z" />
<glyph unicode="#" horiz-adv-x="689" d="M582 147H49Q44 155 41 166T37 191Q37 216 49 227T81 239H615Q619 231 622 220T626 194Q626 170 615 159T582 147ZM610 378H77Q73 386 69 397T65 422Q65 448 77 459T110 470H643Q647 462 651 451T655 425Q655 401 643
390T610 378ZM324 493L218 -2Q209 -4 200 -4T182 -5Q156 -5 141 6T125 44Q125 61 130 82T138 118L244 613Q253 614 262 614T280 615Q305 615 321 605T337 567Q337 550 332 530T324 493ZM551 493L445 -2Q436 -4 427 -4T409 -5Q383 -5 368 6T352 44Q352 61 357 82T365
118L471 613Q480 614 489 614T507 615Q532 615 548 605T564 567Q564 550 559 530T551 493Z" />
<glyph unicode="$" horiz-adv-x="541" d="M215 62H321V-70Q315 -72 302 -74T274 -76Q244 -76 230 -65T215 -27V62ZM321 563H215V714Q221 716 234 718T262 720Q293 720 307 709T321 670V563ZM256 103V103Q315 103 343 127T372 187Q372 219 350 239T283 272L216
293Q167 309 130 330T73 385T53 466Q53 546 113 593T277 640Q333 640 376 629T445 598T470 551Q470 533 461 519T438 495Q414 513 374 526T287 539Q235 539 207 519T178 466Q178 440 197 424T259 395L317 377Q402 351 449 307T497 186Q497 104 436 53T259 2Q198
2 151 15T77 52T49 102Q49 125 62 140T93 163Q118 141 159 122T256 103Z" />
<glyph unicode="%" horiz-adv-x="784" d="M342 528V528Q342 458 300 418T192 378Q128 378 85 418T42 528Q42 597 85 636T192 676Q257 676 299 637T342 528ZM135 528V528Q135 492 151 474T192 456Q217 456 233 474T249 528Q249 562 233 580T192 598Q168 598 152
580T135 528ZM191 87L558 677Q587 673 606 663T626 634Q626 621 620 609T604 581L237 -7Q208 -5 189 7T169 37Q169 48 175 60T191 87ZM741 142V142Q741 73 699 33T592 -8Q528 -8 485 32T442 142Q442 211 485 251T592 291Q656 291 698 251T741 142ZM535 142V142Q535
106 551 88T592 70Q617 70 632 88T648 142Q648 176 633 194T592 212Q567 212 551 194T535 142Z" />
<glyph unicode="&amp;" horiz-adv-x="654" d="M530 108L484 64Q446 25 393 5T279 -15Q206 -15 154 10T73 81T44 186Q44 237 64 274T117 337T191 375L246 297Q224 291 205 277T173 242T161 191Q161 143 193 112T284 81Q312 81 348 93T417 140L453 193Q468 226 475
271T482 365Q495 370 508 373T533 376Q566 376 578 358T590 309Q590 260 575 206T530 108ZM565 -14V-14Q536 -14 508 16L213 318L188 353Q153 389 141 419T129 478Q129 520 149 552T207 603T301 622Q358 622 385 604T412 556Q412 543 406 530T389 509Q375 516 357
520T319 525Q286 525 267 510T247 467Q247 443 260 424T301 377L627 49Q625 21 608 4T565 -14Z" />
<glyph unicode="&apos;" horiz-adv-x="174" d="M132 452V452Q123 448 111 446T86 443Q65 443 52 452T37 480L28 661Q39 669 54 674T88 679Q116 679 130 667T145 628Q145 611 143 579T138 512T132 452Z" />
<glyph unicode="(" horiz-adv-x="276" d="M212 -65V-65Q186 -65 166 -48T130 -4Q93 55 71 138T49 330Q49 438 73 522T130 660Q146 687 166 704T212 721Q232 721 247 710T270 685Q219 614 191 528T163 330Q163 219 189 135T270 -29Q262 -43 247 -54T212 -65Z" />
<glyph unicode=")" horiz-adv-x="276" d="M65 -65V-65Q92 -65 111 -48T147 -4Q184 55 206 138T228 330Q228 438 204 522T147 660Q131 687 112 704T65 721Q45 721 30 710T7 685Q58 614 86 528T114 330Q114 219 88 135T7 -29Q15 -43 30 -54T65 -65Z" />
<glyph unicode="*" horiz-adv-x="322" d="M149 591L177 509L24 556Q20 570 20 583Q20 603 31 614T61 625Q67 625 73 623T87 618L149 591ZM207 554L118 423Q113 422 109 422T100 421Q75 421 62 431T49 459Q49 469 54 477T66 495L109 546L207 554ZM140 527L182 587L279
460Q275 443 263 432T233 421Q216 421 206 431T187 456L140 527ZM131 567L268 635Q280 629 290 617T300 589Q300 572 291 565T265 550L191 517L131 567ZM197 567L125 529L122 685Q128 689 138 694T163 699Q181 699 191 690T202 663Q202 658 201 638T199 597T197
567Z" />
<glyph unicode="+" horiz-adv-x="547" d="M458 246H53Q48 255 45 266T41 292Q41 319 54 331T88 343H494Q498 335 501 323T505 295Q505 270 493 258T458 246ZM330 476V62Q322 59 308 57T279 54Q250 54 235 65T220 109V523Q229 525 243 528T272 531Q301 531 315
520T330 476Z" />
<glyph unicode="," horiz-adv-x="190" d="M105 -84V-84Q82 -118 46 -118Q13 -118 -8 -98Q3 -65 14 -26T35 53T51 123Q63 129 79 133T112 138Q136 138 152 127T169 88Q169 64 159 30T133 -35T105 -84Z" />
<glyph unicode="-" horiz-adv-x="373" d="M283 209H55Q51 218 47 230T43 257Q43 283 56 295T90 307H317Q321 300 325 287T330 260Q330 234 318 222T283 209Z" />
<glyph unicode="." horiz-adv-x="186" d="M19 60V60Q19 92 39 113T93 135Q127 135 147 114T167 60Q167 29 147 7T93 -15Q59 -15 39 7T19 60Z" />
<glyph unicode="/" horiz-adv-x="322" d="M293 625L112 -61Q103 -62 94 -62T75 -63Q46 -63 31 -50T15 -9Q15 9 20 29T30 64L211 750Q221 751 230 751T248 752Q276 752 292 740T308 700Q308 682 303 663T293 625Z" />
<glyph unicode="0" horiz-adv-x="599" d="M438 311V311Q438 391 420 442T370 517T299 541Q260 541 229 517T180 441T162 311Q162 198 198 139T299 80Q365 80 401 139T438 311ZM300 -14V-14Q225 -14 168 21T78 129T46 311Q46 424 80 495T172 601T300 636Q369 636
426 602T518 495T553 311Q553 203 521 131T432 22T300 -14Z" />
<glyph unicode="1" horiz-adv-x="372" d="M284 195H170V512L49 461Q35 467 24 480T13 516Q13 556 63 575L196 629H222Q251 629 267 612T284 566V195ZM170 270H284V0Q278 -3 264 -5T232 -8Q200 -8 185 4T170 45V270Z" />
<glyph unicode="2" horiz-adv-x="520" d="M58 548V548Q58 573 81 593T145 624T236 636Q307 636 357 613T433 548T459 452Q459 397 428 345T327 229L172 92H455Q459 85 463 73T467 47Q467 24 456 12T426 0H67Q53 10 45 25T37 60Q37 83 46 100T68 130L238 286Q297
340 319 376T342 449Q342 490 313 515T226 541Q183 541 149 527T91 496Q79 503 69 516T58 548Z" />
<glyph unicode="3" horiz-adv-x="518" d="M227 636V636Q330 636 391 591T452 462Q452 425 437 397T400 352T357 327Q385 318 410 298T452 248T469 173Q469 113 439 72T354 9T229 -13Q168 -13 123 -1T54 32T29 76Q29 96 39 109T63 131Q87 113 124 97T220 81Q282
81 318 106T354 180Q354 224 323 250T226 277H136Q131 284 128 296T124 322Q124 338 127 350T136 369H221Q282 369 309 392T337 455Q337 497 305 519T215 542Q169 542 134 529T75 499Q63 508 54 521T44 552Q44 577 67 595T132 625T227 636Z" />
<glyph unicode="4" horiz-adv-x="579" d="M40 254L315 620Q328 623 345 626T375 629Q395 629 413 623T442 603T454 563V234H549Q553 228 557 216T561 189Q561 165 550 153T519 141H454V-1Q447 -2 433 -5T404 -8Q375 -8 359 2T343 41V141H66Q51 149 40 165T29 205Q29
219 31 231T40 254ZM346 234L347 511H345L153 234H346Z" />
<glyph unicode="5" horiz-adv-x="538" d="M220 622L193 546L178 374Q196 382 223 389T284 397Q349 397 397 373T471 303T498 195Q498 137 471 90T391 14T257 -14Q198 -14 153 -2T83 33T57 80Q57 100 70 115T97 137Q122 116 160 98T253 79Q316 79 349 112T382 195Q382
246 350 275T260 304Q226 304 201 295T150 272Q115 274 94 292T72 345Q72 350 72 358T74 376L89 558Q91 587 107 604T153 622H220ZM167 527V622H459Q464 615 468 603T473 577Q473 553 462 540T430 527H167Z" />
<glyph unicode="6" horiz-adv-x="560" d="M473 564V564Q473 549 465 535T446 514Q422 525 393 533T333 541Q285 541 248 520T188 455T161 345Q181 363 220 381T313 400Q404 400 461 348T519 196Q519 134 492 87T414 13T292 -14Q219 -14 164 19T77 120T46 293Q46
385 68 450T129 557T218 617T324 636Q367 636 400 628T453 603T473 564ZM292 79V79Q342 79 372 110T403 197Q403 252 372 280T293 309Q250 309 216 291T161 245L163 240Q163 165 198 122T292 79Z" />
<glyph unicode="7" horiz-adv-x="475" d="M65 622H429Q441 614 450 600T459 567Q459 542 447 515L206 -5Q198 -6 190 -6T173 -6Q144 -6 125 6T105 45Q105 61 112 78T130 116L331 527H35Q31 534 27 546T22 573Q22 597 33 609T65 622Z" />
<glyph unicode="8" horiz-adv-x="572" d="M207 340L271 355Q334 368 366 393T399 459Q399 500 369 523T287 546Q237 546 207 523T176 459Q176 427 193 406T241 375T307 360L372 336Q411 327 447 307T505 252T528 166Q528 110 498 69T413 7T287 -15Q215 -15 161
6T77 69T47 167Q47 219 70 254T131 311T207 340ZM376 314L297 291Q233 282 198 251T162 171Q162 126 195 101T287 75Q344 75 378 100T413 172Q413 224 368 254T245 290L196 312Q135 329 99 366T63 463Q63 517 91 555T169 615T287 636Q392 636 452 590T512 462Q512
400 473 364T376 314Z" />
<glyph unicode="9" horiz-adv-x="562" d="M76 59V59Q76 74 84 88T103 110Q126 98 157 89T224 80Q275 80 314 100T377 164T400 276Q390 266 370 254T322 232T258 223Q199 223 150 244T72 309T43 424Q43 487 71 534T151 609T269 636Q343 636 398 602T484 501T516
329Q516 208 480 132T382 21T235 -14Q167 -14 122 5T76 59ZM279 314V314Q320 314 353 333T399 378V376Q399 454 365 498T268 542Q220 542 189 511T158 426Q158 368 193 341T279 314Z" />
<glyph unicode=":" horiz-adv-x="221" d="M39 393V393Q39 425 59 447T113 469Q147 469 167 447T187 393Q187 362 167 341T113 319Q79 319 59 340T39 393ZM36 60V60Q36 92 56 113T110 135Q144 135 164 114T184 60Q184 29 164 7T110 -15Q76 -15 56 7T36 60Z" />
<glyph unicode=";" horiz-adv-x="231" d="M42 393V393Q42 425 62 447T116 469Q150 469 170 447T190 393Q190 362 170 341T116 319Q82 319 62 340T42 393ZM123 -84V-84Q99 -118 63 -118Q31 -118 9 -98Q21 -65 32 -26T53 53T68 123Q80 129 96 133T130 138Q154 138
170 127T186 88Q186 64 176 30T150 -35T123 -84Z" />
<glyph unicode="&lt;" horiz-adv-x="481" d="M159 289L448 147Q449 142 449 136T450 124Q450 100 437 82T394 64Q381 64 367 70T333 86L60 231Q43 254 43 290Q43 317 51 333T74 357L392 518Q423 509 435 493T448 459Q448 434 435 420T397 392L159 289Z" />
<glyph unicode="=" horiz-adv-x="514" d="M424 349H54Q49 357 46 369T42 395Q42 422 55 434T89 446H460Q464 438 467 426T471 398Q471 373 459 361T424 349ZM424 144H54Q49 152 46 164T42 190Q42 216 55 228T89 241H460Q464 233 467 220T471 193Q471 167 459 156T424
144Z" />
<glyph unicode="&gt;" horiz-adv-x="474" d="M316 296L33 435Q32 440 32 446T31 458Q31 481 44 499T86 518Q100 518 115 512T147 496L415 353Q432 329 432 293Q432 266 425 251T402 226L91 65Q59 74 47 90T35 124Q35 149 48 163T86 191L316 296Z" />
<glyph unicode="?" horiz-adv-x="476" d="M227 238L130 207Q116 216 104 235T92 275Q92 296 105 307T142 326L207 347Q259 365 286 393T313 470Q313 512 284 544T191 576Q153 576 119 563T57 528Q45 537 36 550T26 584Q26 612 49 633T112 667T203 679Q278 679
330 653T411 579T439 470Q439 408 415 365T344 291T227 238ZM104 59V59Q104 90 124 111T177 132Q212 132 231 111T251 59Q251 28 232 7T177 -14Q144 -14 124 7T104 59Z" />
<glyph unicode="@" horiz-adv-x="1032" d="M426 199V199Q426 146 452 121T522 95Q555 95 580 111T626 156L651 55Q629 31 592 16T503 0Q414 0 359 52T304 199Q304 271 334 324T418 406T545 435Q590 435 626 424T688 398Q728 375 728 341Q728 335 728 329T726 316L699
57L586 56L612 323Q599 330 582 334T541 338Q491 338 459 302T426 199ZM623 34V34Q625 53 634 70T659 97T695 108Q703 102 716 96T747 90Q803 90 833 141T863 272Q863 358 822 423T708 526T537 563Q427 563 344 518T215 391T169 204Q169 103 210 29T326 -86T497
-127Q537 -127 566 -123T616 -114Q623 -123 627 -134T632 -157Q632 -178 619 -193T575 -216T488 -224Q419 -224 355 -207T235 -155T139 -69T75 51T52 204Q52 308 87 391T188 534T341 625T536 657Q636 657 718 630T858 552T947 430T979 271Q979 140 919 68T747 -5Q717
-5 683 5T623 34Z" />
<glyph unicode="A" horiz-adv-x="608" d="M308 505H303Q291 470 275 424T242 327T209 230L196 170Q190 151 183 128T169 81T155 36T144 -1Q134 -4 123 -6T95 -9Q63 -9 45 3T27 40Q27 52 30 63T38 90Q48 123 65 172T102 280T144 397T184 507T218 595Q230 602 254
608T304 614Q338 614 366 605T401 572Q422 517 446 446T496 298T544 148T585 16Q575 5 558 -2T518 -9Q485 -9 471 3T449 42L408 174L394 237Q379 287 363 337T333 431T308 505ZM141 145L187 244H438L457 145H141Z" />
<glyph unicode="B" horiz-adv-x="608" d="M401 358V266H158V358H401ZM311 266L330 337Q407 337 458 316T535 259T561 173Q561 78 492 33T294 -13Q268 -13 239 -12T181 -5T126 7Q78 24 78 66V557Q78 575 88 585T116 601Q150 612 194 616T287 621Q406 621 472 579T538
451Q538 406 513 371T438 317T311 298L303 358Q359 358 386 380T413 443Q413 483 382 503T288 524Q262 524 239 522T199 517V94Q219 89 246 87T300 85Q363 85 398 107T434 177Q434 221 403 243T311 266Z" />
<glyph unicode="C" horiz-adv-x="580" d="M537 530V530Q537 512 527 498T502 475Q477 492 444 506T363 521Q306 521 264 496T197 422T173 303Q173 196 226 142T368 87Q415 87 449 100T509 130Q522 122 531 107T541 72Q541 56 533 43T503 18Q483 6 446 -4T354 -15Q268
-15 198 19T86 124T45 303Q45 408 86 479T196 586T347 623Q405 623 447 610T513 576T537 530Z" />
<glyph unicode="D" horiz-adv-x="658" d="M486 306V306Q486 198 434 143T286 88Q265 88 243 90T202 96V513Q219 516 239 517T282 519Q340 519 386 497T459 427T486 306ZM613 308V308Q613 414 571 483T453 586T277 621Q238 621 195 617T116 602Q98 596 88 586T78
558V65Q78 24 126 7Q164 -6 209 -9T286 -13Q385 -13 458 22T572 128T613 308Z" />
<glyph unicode="E" horiz-adv-x="539" d="M78 401H200V7Q193 5 177 2T145 -1Q114 -1 96 17T78 65V401ZM200 208L78 209V541Q78 571 96 589T145 607Q161 607 177 604T200 599V208ZM145 261V360H446Q451 353 455 340T459 312Q459 286 448 274T415 261H145ZM145 -1V99H480Q485
92 489 79T493 50Q493 25 482 12T449 -1H145ZM145 507V607H476Q480 600 484 587T489 559Q489 534 477 521T444 507H145Z" />
<glyph unicode="F" horiz-adv-x="523" d="M201 248H78V541Q78 571 96 589T145 607Q161 607 177 604T201 599V248ZM144 240V341H442Q447 333 451 321T456 293Q456 267 444 254T411 240H144ZM145 505V607H477Q482 600 486 587T490 559Q490 533 478 519T445 505H145ZM78
327H203V1Q195 -1 179 -3T146 -6Q110 -6 94 7T78 51V327Z" />
<glyph unicode="G" horiz-adv-x="651" d="M590 294V82Q590 58 580 45T546 19Q520 5 472 -5T375 -15Q280 -15 206 18T88 122T45 303Q45 409 89 480T206 587T369 623Q428 623 472 610T541 576T566 530Q566 512 556 497T532 474Q506 491 469 506T377 521Q319 521
273 496T200 422T173 303Q173 229 199 181T272 110T377 86Q406 86 431 91T470 104V247H339Q335 255 331 268T326 295Q326 321 338 333T370 346H538Q562 346 576 332T590 294Z" />
<glyph unicode="H" horiz-adv-x="662" d="M78 399H203V2Q194 -1 178 -3T145 -6Q109 -6 94 7T78 52V399ZM203 256H78V607Q86 609 102 612T136 615Q171 615 187 603T203 557V256ZM460 399H584V2Q576 -1 560 -3T527 -6Q491 -6 476 7T460 52V399ZM584 256H460V607Q468
609 484 612T517 615Q552 615 568 602T584 556V256ZM529 256H139V356H529V256Z" />
<glyph unicode="I" horiz-adv-x="282" d="M78 399H203V2Q195 -1 179 -3T146 -6Q110 -6 94 7T78 52V399ZM203 257H78V607Q87 609 103 612T136 615Q171 615 187 603T203 557V257Z" />
<glyph unicode="J" horiz-adv-x="397" d="M197 289H321V163Q321 103 298 64T235 6T141 -13Q86 -13 55 3T23 55Q23 71 29 83T41 103Q58 97 76 93T113 89Q155 89 176 110T197 175V289ZM321 241H197V607Q205 609 221 612T254 615Q289 615 305 603T321 557V241Z" />
<glyph unicode="K" horiz-adv-x="589" d="M153 317L281 345Q374 251 444 177T560 59Q559 27 539 9T492 -9Q464 -9 445 6T407 41L153 317ZM288 274L139 276L447 612Q492 611 512 593T533 550Q533 531 524 515T494 478L288 274ZM78 402H203V1Q194 -1 178 -4T145
-7Q109 -7 94 6T78 51V402ZM203 259H78V607Q86 609 102 612T136 615Q171 615 187 603T203 557V259Z" />
<glyph unicode="L" horiz-adv-x="507" d="M78 395H203V7L145 -1Q114 -1 96 17T78 65V395ZM145 -1V101H463Q469 94 473 81T478 52Q478 26 466 13T432 -1H145ZM203 256H78V607Q86 609 102 612T136 615Q171 615 187 603T203 557V256Z" />
<glyph unicode="M" horiz-adv-x="788" d="M458 154V154Q448 147 433 142T397 136Q371 136 354 142T330 166Q289 267 260 342T212 469H208Q205 401 202 344T197 233T192 123T185 2Q176 -1 162 -4T131 -7Q99 -7 83 4T67 42Q67 60 69 103T74 206T82 331T91 462T100
580Q108 590 128 600T182 611Q219 611 241 599T275 558Q295 516 315 464T356 359T393 261H398Q432 356 467 445T527 596Q539 603 557 607T595 611Q630 611 651 600T678 567Q682 549 686 508T696 413T706 299T715 183T722 81T727 8Q714 0 700 -3T666 -7Q641 -7 623
3T602 41Q597 127 593 207T587 354T581 465H577Q560 418 531 344T458 154Z" />
<glyph unicode="N" horiz-adv-x="669" d="M78 475L189 478Q193 440 195 398T198 315T199 236V1Q192 -1 176 -3T143 -6Q108 -6 93 6T78 50V475ZM591 134L479 131Q471 208 470 282T469 426V607Q478 609 493 612T526 615Q561 615 576 603T591 559V134ZM591 175V235V16Q579
6 560 0T514 -7Q484 -7 460 3T418 46L270 312Q257 336 244 362T218 413T196 460L78 433V586Q89 600 110 607T155 614Q185 614 210 604T251 561L400 296Q414 272 427 246T452 194T473 148L591 175Z" />
<glyph unicode="O" horiz-adv-x="695" d="M650 304V304Q650 200 610 129T502 21T347 -15Q261 -15 193 21T85 128T45 304Q45 408 85 479T194 586T347 623Q432 623 500 587T609 479T650 304ZM522 304V304Q522 409 475 465T347 521Q269 521 221 466T173 304Q173 198
220 143T348 87Q428 87 475 142T522 304Z" />
<glyph unicode="P" horiz-adv-x="573" d="M202 303H276Q338 303 373 330T409 413Q409 467 376 493T278 520Q256 520 237 519T202 513V303ZM284 204H78V557Q78 575 88 585T116 601Q147 611 191 616T273 621Q405 621 470 565T535 413Q535 350 506 303T422 230T284
204ZM78 260H203V2Q194 -1 178 -3T145 -6Q109 -6 94 7T78 52V260Z" />
<glyph unicode="Q" horiz-adv-x="697" d="M332 3L457 30Q505 5 542 -12T613 -42T679 -66Q681 -72 681 -76T681 -85Q681 -122 661 -140T608 -158Q569 -158 519 -132T409 -58L332 3ZM650 304V304Q650 200 610 129T502 22T347 -14Q261 -14 193 22T85 129T45 304Q45
408 85 479T194 586T347 623Q432 623 500 587T609 479T650 304ZM522 304V304Q522 410 475 465T347 521Q269 521 221 466T173 304Q173 198 220 143T348 88Q427 88 474 143T522 304Z" />
<glyph unicode="R" horiz-adv-x="598" d="M201 312H286Q346 312 381 338T416 416Q416 467 381 493T277 520Q257 520 238 518T201 513V312ZM295 214H78V557Q78 575 88 585T116 601Q147 611 190 616T279 621Q410 621 476 567T542 417Q542 357 512 312T426 240T295
214ZM279 246L384 277Q410 245 436 211T487 145T532 87T563 45Q556 20 537 6T494 -8Q465 -8 449 5T417 41L279 246ZM78 258H203V2Q194 -1 178 -3T145 -6Q109 -6 94 7T78 52V258Z" />
<glyph unicode="S" horiz-adv-x="536" d="M254 87V87Q313 87 341 110T369 170Q369 201 347 221T281 254L215 274Q166 291 129 312T71 366T50 448Q50 529 110 576T276 623Q331 623 375 612T444 580T469 533Q469 515 460 501T437 477Q413 494 373 507T286 520Q234
520 206 501T178 448Q178 422 197 406T258 378L315 360Q402 334 449 290T497 169Q497 87 435 36T257 -15Q196 -15 149 -2T75 34T48 85Q48 108 61 123T91 147Q117 125 158 106T254 87Z" />
<glyph unicode="T" horiz-adv-x="538" d="M226 505L223 607H502Q507 600 511 587T515 559Q515 533 504 519T471 505H226ZM312 607L314 505H35Q30 513 26 526T22 555Q22 581 34 594T67 607H312ZM205 532H330V2Q322 -1 306 -3T272 -6Q237 -6 221 7T205 52V532Z" />
<glyph unicode="U" horiz-adv-x="656" d="M328 -15V-15Q249 -15 193 13T106 94T76 216V288H200V221Q200 156 236 122T328 87Q383 87 419 121T455 221V288H580V216Q580 146 550 94T464 14T328 -15ZM200 253H76V607Q84 609 100 612T134 615Q169 615 184 603T200
557V253ZM580 252H455V607Q463 609 479 612T513 615Q548 615 564 603T580 557V252Z" />
<glyph unicode="V" horiz-adv-x="606" d="M384 14V14Q375 6 354 0T308 -7Q278 -7 256 1T226 26Q211 56 191 105T148 215T101 342T59 469T25 583Q34 594 53 603T93 612Q121 612 136 600T160 559Q197 443 232 336T307 116H312Q336 186 361 266T411 432T456 598Q468
605 482 608T514 612Q541 612 558 600T576 560Q576 542 566 501T538 404T499 290T455 175T415 77T384 14Z" />
<glyph unicode="W" horiz-adv-x="831" d="M353 457V457Q362 462 379 466T415 471Q445 471 465 462T490 435Q510 370 527 317T559 213T589 107H594Q610 194 623 273T650 432T674 599Q699 612 729 612Q756 612 774 600T793 562Q793 541 788 502T774 412T754 305T730
194T705 94T680 17Q668 8 645 2T596 -5Q563 -5 540 4T510 31Q499 62 484 108T452 210T419 321Q405 266 389 208T357 100T329 16Q318 8 297 2T249 -5Q216 -5 192 5T159 31Q149 54 135 102T106 212T77 342T51 472T33 586Q43 596 61 604T100 612Q127 612 143 600T165
559Q180 478 191 415T211 300T230 201T250 107H254Q266 150 277 188T299 265T324 350T353 457Z" />
<glyph unicode="X" horiz-adv-x="596" d="M258 277L233 283L37 555Q44 577 63 595T113 613Q135 613 151 601T184 564L326 355L359 331L561 50Q555 24 536 9T487 -7Q465 -7 450 4T418 40L258 277ZM354 282L319 258L137 -5Q131 -6 125 -6T112 -7Q76 -7 57 9T38 49Q38
69 47 85T72 122L233 331L284 372L449 607Q455 609 464 610T483 612Q515 612 532 597T550 558Q550 539 541 523T515 487Q476 436 436 385T354 282Z" />
<glyph unicode="Y" horiz-adv-x="561" d="M343 204H232Q206 244 175 291T114 388T58 485T14 572Q22 587 38 599T79 612Q107 612 124 599T157 555Q164 543 177 519T206 466T237 409T265 357T285 323H290Q317 374 339 418T383 506T427 599Q439 605 454 608T482 612Q508
612 524 599T541 559Q541 548 530 521T494 451T433 347T343 204ZM226 253H348V2Q341 -1 325 -3T292 -6Q256 -6 241 7T226 51V253Z" />
<glyph unicode="Z" horiz-adv-x="558" d="M74 136L441 608H481Q512 583 512 544Q512 525 504 508T481 473L117 0H71Q59 10 51 26T43 63Q43 82 52 100T74 136ZM91 0L135 103H505Q510 95 514 82T519 53Q519 27 507 14T473 0H91ZM456 608L422 505H65Q60 514 56 526T51
555Q51 582 63 595T97 608H456Z" />
<glyph unicode="[" horiz-adv-x="284" d="M59 11V637H169V11H59ZM59 31H265Q269 23 272 12T276 -13Q276 -37 264 -48T232 -60H116Q87 -60 73 -44T59 -4V31ZM116 713H265Q269 706 272 695T276 670Q276 645 264 634T232 623H59V657Q59 681 73 697T116 713Z" />
<glyph unicode="\" horiz-adv-x="350" d="M139 628L321 -34Q311 -45 293 -53T258 -61Q239 -61 225 -53T205 -22L22 641Q33 652 51 659T85 667Q105 667 119 659T139 628Z" />
<glyph unicode="]" horiz-adv-x="290" d="M225 645V16H114V645H225ZM225 623H19Q14 630 11 641T8 666Q8 691 20 702T52 713H168Q197 713 211 697T225 657V623ZM168 -60H19Q14 -52 11 -41T8 -16Q8 9 20 20T52 31H225V-4Q225 -27 211 -43T168 -60Z" />
<glyph unicode="^" horiz-adv-x="475" d="M175 644V644Q183 651 199 655T236 660Q285 660 299 635Q312 614 330 578T367 499T403 415T429 343Q421 334 406 326T373 318Q350 318 337 327T314 363L236 552H230Q224 537 214 511T191 454T168 390T148 330Q137 323
124 320T96 317Q75 317 60 327T45 360Q45 372 55 399T82 463T116 535T150 601T175 644Z" />
<glyph unicode="_" horiz-adv-x="485" d="M438 -153H11Q7 -145 4 -133T0 -107Q0 -81 12 -69T47 -56H474Q477 -64 481 -77T485 -104Q485 -129 473 -141T438 -153Z" />
<glyph unicode="`" horiz-adv-x="302" d="M136 544L40 640Q39 644 39 649T38 657Q38 683 53 697T92 712Q107 712 120 706T145 686L235 574Q232 549 218 537T184 524Q169 524 158 529T136 544Z" />
<glyph unicode="a" horiz-adv-x="520" d="M249 78V78Q280 78 304 84T339 97V212L239 203Q198 199 177 185T155 141Q155 112 178 95T249 78ZM245 487V487Q342 487 399 446T457 315V84Q457 60 446 47T417 22Q389 6 346 -4T249 -15Q150 -15 93 23T36 138Q36 205 78
240T202 284L339 298V316Q339 357 311 375T233 393Q194 393 157 383T91 359Q81 367 74 380T66 409Q66 445 105 462Q133 474 170 480T245 487Z" />
<glyph unicode="b" horiz-adv-x="568" d="M300 487V487Q364 487 415 460T497 377T527 237Q527 154 496 98T408 14T277 -14Q220 -14 178 -1T107 31Q86 45 76 61T66 100V423H187V107Q201 98 223 91T276 83Q333 83 368 121T403 237Q403 317 369 353T279 390Q243 390
216 377T170 346L162 445Q184 459 219 473T300 487ZM188 395H66V650Q74 652 89 655T122 658Q156 658 172 646T188 602V395Z" />
<glyph unicode="c" horiz-adv-x="483" d="M306 389V389Q246 389 205 350T164 235Q164 161 203 122T306 83Q342 83 368 93T413 114Q428 105 436 93T444 63Q444 29 404 8T296 -14Q220 -14 163 13T73 97T41 235Q41 319 75 375T166 459T293 487Q359 487 399 464T439
407Q439 392 431 380T411 359Q392 370 367 379T306 389Z" />
<glyph unicode="d" horiz-adv-x="565" d="M378 103V418H499V90Q499 69 490 55T459 27Q435 11 394 -1T300 -14Q221 -14 163 12T73 94T41 235Q41 322 73 377T160 460T282 487Q319 487 349 478T399 456V352Q383 367 357 378T297 390Q259 390 229 374T182 324T164
233Q164 155 200 119T299 83Q326 83 345 89T378 103ZM499 393L377 392V650Q385 652 400 655T432 658Q467 658 483 646T499 602V393Z" />
<glyph unicode="e" horiz-adv-x="533" d="M118 174L113 260L382 299Q379 338 353 366T276 395Q224 395 190 359T155 256L158 205Q166 141 207 111T311 80Q353 80 389 92T446 120Q459 111 467 98T476 69Q476 43 454 25T392 -4T303 -14Q226 -14 167 14T74 100T41
241Q41 303 59 349T110 425T186 471T276 487Q342 487 391 461T469 387T497 279Q497 251 483 238T443 221L118 174Z" />
<glyph unicode="f" horiz-adv-x="413" d="M164 347V442H366Q370 435 374 423T378 395Q378 370 367 359T335 347H164ZM183 490V362H66V495Q66 558 91 597T162 655T266 674Q331 674 364 657T398 606Q398 591 392 579T376 559Q358 567 334 572T284 577Q231 577 207
557T183 490ZM66 397H188V2Q180 -1 165 -3T133 -6Q99 -6 83 6T66 50V397Z" />
<glyph unicode="g" horiz-adv-x="550" d="M261 17V17Q202 17 152 39T72 114T41 251Q41 328 72 381T158 460T285 487Q336 487 379 474T448 444Q465 432 475 417T486 380V68H368V369Q354 378 335 384T288 390Q232 390 198 356T163 251Q163 173 196 142T280 111Q318
111 341 124T381 152L386 53Q367 39 336 28T261 17ZM369 -3V95H486V-8Q486 -75 455 -117T371 -180T252 -200Q200 -200 162 -190T105 -169Q72 -149 72 -115Q72 -97 80 -83T99 -62Q124 -78 161 -90T241 -103Q301 -103 335 -79T369 -3Z" />
<glyph unicode="h" horiz-adv-x="567" d="M502 202H380V292Q380 344 353 367T283 390Q248 390 220 377T170 346L162 445Q186 459 222 473T304 487Q393 487 447 440T502 298V202ZM66 264H188V2Q180 -1 165 -3T133 -6Q99 -6 83 6T66 50V264ZM380 263H502V2Q494 -1
479 -3T447 -6Q412 -6 396 6T380 50V263ZM188 202H66V650Q74 652 89 655T122 658Q156 658 172 646T188 602V202Z" />
<glyph unicode="i" horiz-adv-x="260" d="M59 614V614Q59 643 79 662T130 682Q161 682 180 663T200 614Q200 586 181 566T130 546Q99 546 79 566T59 614ZM69 264H190V2Q183 -1 168 -3T135 -6Q102 -6 86 6T69 50V264ZM190 202H69V469Q77 471 92 474T124 477Q159
477 174 465T190 420V202Z" />
<glyph unicode="j" horiz-adv-x="263" d="M0 -126V-126Q24 -114 40 -101T64 -67T73 -13V270H194V-28Q194 -90 175 -126T126 -178T69 -195Q35 -195 19 -175T0 -126ZM60 614V614Q60 643 80 662T131 682Q163 682 182 663T202 614Q202 586 183 566T131 546Q101 546
81 566T60 614ZM194 196L73 202V469Q81 471 96 474T128 477Q163 477 178 465T194 420V196Z" />
<glyph unicode="k" horiz-adv-x="518" d="M243 199L159 256L385 481Q422 481 444 465T466 423Q466 401 452 385T408 344L243 199ZM161 238L254 283L489 63Q486 30 469 12T422 -7Q400 -7 382 4T342 40L161 238ZM66 266L188 260V2Q180 -1 165 -3T133 -6Q99 -6 83
6T66 50V266ZM188 198L66 204V650Q74 652 89 655T122 658Q156 658 172 646T188 602V198Z" />
<glyph unicode="l" horiz-adv-x="263" d="M71 264L192 258V2Q185 -1 170 -3T138 -6Q104 -6 88 6T71 50V264ZM192 196L71 202V650Q79 652 94 655T126 658Q161 658 176 646T192 602V196Z" />
<glyph unicode="m" horiz-adv-x="830" d="M476 326V212H354V313Q354 353 331 371T270 390Q245 390 223 382T186 365V212H64V372Q64 396 74 411T105 440Q135 460 180 473T274 487Q323 487 364 472T431 428Q438 421 444 415T454 401Q463 387 469 368T476 326ZM765
317V212H644V313Q644 353 622 371T562 390Q534 390 509 379T464 349L404 424Q434 449 476 468T577 487Q630 487 672 470T740 415T765 317ZM64 261H186V2Q178 -1 163 -3T131 -6Q97 -6 81 6T64 50V261ZM354 261H476V2Q468 -1 453 -3T421 -6Q386 -6 370 6T354 50V261ZM644
261H765V2Q758 -1 743 -3T710 -6Q676 -6 660 6T644 50V261Z" />
<glyph unicode="n" horiz-adv-x="565" d="M500 309V211H379V304Q379 349 354 369T285 390Q255 390 230 383T186 364V211H64V372Q64 396 74 411T105 440Q134 459 181 473T286 487Q387 487 443 442T500 309ZM64 261H186V2Q178 -1 163 -3T131 -6Q97 -6 81 6T64 50V261ZM379
261H500V2Q493 -1 478 -3T445 -6Q411 -6 395 6T379 50V261Z" />
<glyph unicode="o" horiz-adv-x="568" d="M527 237V237Q527 160 497 104T413 17T284 -14Q211 -14 156 16T71 103T41 237Q41 314 71 370T157 456T285 487Q357 487 411 456T496 369T527 237ZM284 390V390Q229 390 197 350T165 237Q165 163 196 123T284 82Q340 82
371 123T403 237Q403 308 372 349T284 390Z" />
<glyph unicode="p" horiz-adv-x="564" d="M286 -14V-14Q355 -14 408 14T492 99T523 238Q523 325 491 380T401 461T271 487Q218 487 175 475T104 445Q83 432 74 417T64 379V51H185V368Q201 376 222 383T271 390Q308 390 337 375T382 327T399 238Q399 159 364 121T268
83Q232 83 206 96T160 125V20Q181 7 213 -3T286 -14ZM186 85L64 86V-130Q64 -162 80 -174T131 -187Q148 -187 163 -185T186 -179V85Z" />
<glyph unicode="q" horiz-adv-x="565" d="M500 69L379 70V369Q366 378 346 384T299 390Q260 390 230 374T182 324T164 234Q164 155 200 119T296 83Q327 83 351 93T391 117V14Q373 2 344 -6T278 -14Q210 -14 156 12T72 94T41 234Q41 319 73 375T163 459T296 487Q348
487 392 474T462 445Q479 434 489 419T500 381V69ZM378 86L500 87V-182Q492 -185 477 -187T445 -190Q410 -190 394 -178T378 -133V86Z" />
<glyph unicode="r" horiz-adv-x="395" d="M186 361V223H64V370Q64 395 76 412T110 444Q140 463 186 475T285 487Q378 487 378 429Q378 416 374 404T364 384Q354 386 339 387T308 389Q271 389 240 381T186 361ZM64 264L186 258V2Q178 -1 163 -3T131 -6Q97 -6 81
6T64 50V264Z" />
<glyph unicode="s" horiz-adv-x="468" d="M429 133V133Q429 64 377 25T227 -15Q147 -15 96 9T45 72Q45 90 53 104T74 126Q102 108 139 94T223 80Q309 80 309 133Q309 155 294 168T247 189L189 203Q116 219 81 253T46 344Q46 407 97 447T242 487Q290 487 327 478T386
451T408 408Q408 391 401 378T381 357Q369 365 349 373T302 387T250 393Q211 393 189 381T166 344Q166 327 178 315T223 295L274 283Q355 264 392 228T429 133Z" />
<glyph unicode="t" horiz-adv-x="384" d="M66 264H186V145Q186 112 206 98T262 83Q278 83 296 87T328 98Q336 90 341 79T347 53Q347 24 320 5T235 -14Q157 -14 112 21T66 137V264ZM139 367V463H335Q340 456 344 443T348 416Q348 391 337 379T305 367H139ZM186
237H66V597Q74 600 89 603T121 606Q155 606 170 594T186 550V237Z" />
<glyph unicode="u" horiz-adv-x="565" d="M64 180V260H186V182Q186 129 213 106T291 82Q323 82 345 88T379 102V260H500V92Q500 69 493 54T464 26Q436 9 392 -2T290 -14Q221 -14 170 6T92 69T64 180ZM500 212H379V471Q387 474 402 476T434 479Q469 479 484 467T500
422V212ZM186 212H64V471Q72 474 87 476T120 479Q154 479 170 467T186 422V212Z" />
<glyph unicode="v" horiz-adv-x="518" d="M429 483V483Q454 483 471 471T488 433Q488 417 477 380T449 293T412 190T370 89T332 9Q324 2 305 -3T262 -8Q234 -8 214 -1T186 23Q175 43 159 81T123 168T86 269T51 369T25 455Q36 466 53 474T90 483Q115 483 131 471T156
430L207 263Q215 237 225 207T245 148T260 101H265Q295 189 323 284T374 469Q397 483 429 483Z" />
<glyph unicode="w" horiz-adv-x="758" d="M382 311V311Q368 256 350 199T316 93T288 11Q278 2 261 -3T220 -8Q193 -8 172 0T143 25Q133 45 122 82T98 167T72 268T49 369T32 456Q42 466 58 474T96 483Q122 483 137 470T158 427Q167 369 176 318T195 224T210 152T221
106H225Q231 129 245 179T279 295T318 426Q332 434 347 438T382 442Q408 442 426 434T449 407Q470 344 487 283T518 176T538 106H543Q560 189 579 282T612 468Q637 483 667 483Q692 483 708 472T724 434Q724 421 718 390T703 317T681 230T657 141T633 64T614 11Q605
3 585 -2T542 -8Q481 -8 471 22Q459 52 444 99T412 201T382 311Z" />
<glyph unicode="x" horiz-adv-x="501" d="M213 284L235 288Q273 338 307 383T379 479Q383 480 386 480T392 480Q425 480 444 466T464 428Q464 410 456 396T427 357Q397 321 366 286T306 215L269 193Q233 144 197 94T125 -6Q123 -6 117 -6T108 -7Q72 -7 54 8T35
46Q35 61 42 74T69 111Q104 155 140 197T213 284ZM285 276L312 260Q352 207 392 156T472 52Q469 24 452 8T408 -8Q382 -8 366 6T332 44Q305 83 276 124T220 202L196 221Q153 272 114 320T34 418Q40 446 57 463T98 480Q123 480 136 468T166 435Q194 398 223 357T285
276Z" />
<glyph unicode="y" horiz-adv-x="518" d="M150 113V113Q134 146 113 195T70 310T25 455Q36 466 53 474T90 483Q115 483 131 471T157 430Q182 352 209 276T267 120H271Q289 164 308 223T345 347T375 469Q387 475 399 479T427 483Q452 483 470 472T488 433Q488 410
480 371T456 283T422 182T381 82T337 -7Q286 -97 244 -143T161 -190Q130 -190 111 -172T88 -127Q110 -108 134 -82T182 -25T221 35Q204 40 187 55T150 113Z" />
<glyph unicode="z" horiz-adv-x="475" d="M113 0H65Q54 10 47 23T40 54Q40 70 47 84T65 112L361 473H405Q417 462 423 449T430 418Q430 403 423 389T405 361L113 0ZM383 473V377H58Q53 384 49 397T45 424Q45 450 56 461T87 473H383ZM92 0V95H427Q431 89 435 76T440
48Q440 23 429 12T397 0H92Z" />
<glyph unicode="{" horiz-adv-x="306" d="M156 330V330Q186 315 202 284T219 204V82Q219 47 233 33T275 15Q277 9 277 3T277 -10Q277 -37 262 -50T219 -64Q171 -64 140 -32T109 65V179Q109 228 92 254T38 288Q34 296 33 307T31 330Q31 341 33 352T38 372Q75 380
92 406T109 481V590Q109 655 140 687T220 719Q248 719 262 706T277 664Q277 658 277 652T275 639Q248 636 234 622T219 572V456Q219 408 203 377T156 330Z" />
<glyph unicode="|" horiz-adv-x="264" d="M186 687V-116Q177 -118 164 -120T137 -123Q108 -123 93 -112T78 -69V734Q87 737 100 739T128 741Q156 741 171 730T186 687Z" />
<glyph unicode="}" horiz-adv-x="306" d="M150 330V330Q120 315 104 284T87 204V82Q87 47 72 33T31 15Q30 9 30 3T29 -10Q29 -37 44 -50T87 -64Q135 -64 165 -32T196 65V179Q196 228 213 254T268 288Q271 296 273 307T275 330Q275 341 273 352T268 372Q231 380
214 406T196 481V590Q196 655 165 687T86 719Q58 719 44 706T29 664Q29 658 29 652T31 639Q57 636 72 622T87 572V456Q87 408 103 377T150 330Z" />
<glyph unicode="~" horiz-adv-x="473" d="M318 296V296Q344 296 356 310T377 339Q408 339 430 321T452 272Q452 232 422 210T346 188Q310 188 278 197T216 215T156 225Q130 225 118 211T97 182Q67 182 45 200T22 249Q22 277 37 296T76 324T128 334Q166 334 198
325T260 306T318 296Z" />
<glyph unicode="&#xa0;" horiz-adv-x="200" />
<glyph unicode="&#xa1;" horiz-adv-x="272" d="M76 -157V-157Q76 -135 77 -97T79 -13T83 82T87 176T92 256Q99 262 113 265T139 268Q160 268 173 261T190 235Q192 211 194 170T198 78T201 -25T203 -122T204 -199Q174 -217 136 -217Q76 -217 76 -157ZM212 404V404Q212
372 192 352T138 331Q104 331 84 351T64 404Q64 435 84 456T138 477Q172 477 192 456T212 404Z" />
<glyph unicode="&#xa2;" horiz-adv-x="483" d="M211 47H320V-98Q313 -100 300 -102T272 -104Q242 -104 227 -93T211 -54V47ZM320 410H211V572Q219 575 232 577T260 579Q291 579 305 568T320 528V410ZM305 389V389Q245 389 204 350T163 235Q163 161 202 122T305
83Q341 83 367 93T412 114Q427 105 435 93T443 63Q443 29 403 8T294 -14Q219 -14 162 13T72 97T40 235Q40 319 74 375T165 459T292 487Q358 487 398 464T438 407Q438 392 430 380T410 359Q391 370 366 379T305 389Z" />
<glyph unicode="&#xa3;" horiz-adv-x="504" d="M373 252H90Q72 252 60 263T48 302Q48 316 52 327T60 348H403Q407 339 411 328T415 302Q415 275 404 264T373 252ZM132 224V224Q132 247 129 281T121 352T117 415Q117 488 146 533T224 601T332 623Q398 623 431 602T465
548Q465 535 458 520T439 498Q419 510 398 517T348 524Q293 524 265 496T237 406Q237 381 240 345T247 276T250 222Q250 181 239 150T206 96H466Q471 88 474 76T478 49Q478 23 467 12T436 0H100Q78 0 62 16T45 61Q45 70 46 76Q89 96 110 128T132 224Z" />
<glyph unicode="&#xa4;" horiz-adv-x="543" d="M143 379L214 423L164 484Q153 498 140 510T112 523Q96 523 82 513T58 481L143 379ZM363 295V295Q363 243 338 216T270 188Q228 188 202 215T176 295Q176 346 202 373T270 401Q312 401 337 374T363 295ZM334 424L397
365L446 427Q458 442 465 455T472 482Q472 502 455 513T415 529L334 424ZM468 295V295Q468 357 441 399T370 464T269 486Q215 486 170 464T98 400T71 295Q71 232 98 190T170 125T270 103Q325 103 369 125T441 189T468 295ZM399 206L328 161L377 101Q389 87 402
74T430 61Q446 61 460 72T484 104L399 206ZM210 160L147 219L98 158Q87 143 79 130T71 103Q71 83 88 72T129 55L210 160Z" />
<glyph unicode="&#xa5;" horiz-adv-x="569" d="M385 303L201 297Q171 344 139 394T80 493T35 578Q45 591 61 602T99 614Q126 614 142 602T175 559L288 359H294Q320 405 338 441T374 514T417 601Q429 608 443 611T472 614Q497 614 512 601T528 564Q528 554 519
533T491 479T446 402T385 303ZM227 183H350V1Q342 -1 326 -3T294 -6Q258 -6 243 7T227 50V183ZM258 268L276 350H511Q515 341 518 331T522 309Q522 288 512 278T487 268H258ZM309 350L324 268H66Q61 274 58 285T54 309Q54 331 64 340T89 350H309ZM486 127H66Q61
133 58 144T54 168Q54 191 64 200T88 209H510Q514 201 517 190T521 167Q521 147 511 137T486 127Z" />
<glyph unicode="&#xa6;" horiz-adv-x="293" d="M187 628V311Q178 309 165 307T137 304Q108 304 93 315T78 358V675Q87 678 100 680T128 682Q157 682 172 671T187 628ZM187 142V-175Q178 -177 165 -179T137 -182Q108 -182 93 -171T78 -128V189Q87 192 100 194T128
196Q157 196 172 185T187 142Z" />
<glyph unicode="&#xa7;" horiz-adv-x="523" d="M468 87V87Q468 21 413 -17T249 -56Q194 -56 151 -46T82 -15T57 31Q57 50 65 63T86 85Q118 66 157 52T246 38Q298 38 323 51T348 89Q348 110 332 120T279 137L203 152Q134 165 96 197T57 292Q57 349 98 380T205 418L223
362Q200 354 186 337T172 295Q172 275 187 260T233 239L320 221Q391 207 429 177T468 87ZM468 281V281Q468 249 455 224T420 182T375 157L302 205Q325 219 339 235T353 276Q353 298 336 311T283 333L202 349Q160 358 128 373T78 416T61 484Q61 550 114 586T258
623Q308 623 348 614T412 587T436 545Q436 528 429 515T410 494Q396 502 372 510T321 523T266 529Q226 529 203 517T180 481Q180 461 194 452T238 436L312 423Q387 408 427 375T468 281Z" />
<glyph unicode="&#xa8;" horiz-adv-x="374" d="M158 617V617Q158 591 140 572T92 553Q64 553 46 572T27 617Q27 644 45 662T92 681Q121 681 139 663T158 617ZM350 617V617Q350 591 332 572T285 553Q257 553 238 572T219 617Q219 644 238 662T285 681Q314 681 332
663T350 617Z" />
<glyph unicode="&#xa9;" horiz-adv-x="713" d="M45 303V303Q45 390 84 460T192 572T355 614Q448 614 518 573T628 461T668 303Q668 217 628 148T518 39T355 -2Q262 -2 193 38T84 148T45 303ZM355 543V543Q285 543 234 512T156 427T128 303Q128 234 155 182T234
99T355 69Q426 69 477 99T555 181T582 303Q582 373 555 427T477 512T355 543ZM385 398V398Q350 398 324 376T297 307Q297 262 322 239T386 215Q410 215 425 221T451 233Q473 218 473 193Q473 174 447 157T373 140Q326 140 289 159T229 216T206 308Q206 365 231
401T294 456T371 474Q413 474 440 458T468 417Q468 406 462 396T448 380Q436 387 421 392T385 398Z" />
<glyph unicode="&#xaa;" horiz-adv-x="353" d="M169 362V362Q186 362 202 365T226 373V441L167 435Q140 433 126 425T111 400Q111 382 125 372T169 362ZM165 621V621Q228 621 267 596T307 507V356Q307 344 300 335T280 320Q238 297 169 297Q105 297 67 321T29
396Q29 441 57 464T142 494L225 502V508Q225 534 208 544T156 555Q132 555 107 548T64 532Q56 537 51 546T45 568Q45 581 51 589T71 604Q88 612 114 616T165 621Z" />
<glyph unicode="&#xab;" horiz-adv-x="517" d="M132 223L264 88Q264 67 250 49T207 31Q190 31 176 41T149 65L45 176Q40 185 36 197T32 222Q32 245 38 258T53 281L199 428Q227 421 241 406T256 373Q256 356 249 344T220 310L132 223ZM350 223L481 88Q481 67 467
49T425 31Q408 31 394 41T367 65L262 176Q257 185 253 197T249 222Q249 245 255 258T270 281L416 428Q445 421 459 406T473 373Q473 356 466 344T437 310L350 223Z" />
<glyph unicode="&#xac;" horiz-adv-x="536" d="M86 413H439Q464 413 479 399T494 358V182Q485 179 471 177T441 175Q411 175 396 186T380 231V318H53Q49 326 45 338T41 364Q41 389 53 401T86 413Z" />
<glyph unicode="&#xad;" horiz-adv-x="373" d="M283 209H55Q51 218 47 230T43 257Q43 283 56 295T90 307H317Q321 300 325 287T330 260Q330 234 318 222T283 209Z" />
<glyph unicode="&#xae;" horiz-adv-x="619" d="M49 444V444Q49 514 81 572T172 664T309 699Q386 699 444 665T536 572T570 444Q570 374 537 316T445 224T309 190Q231 190 173 224T82 316T49 444ZM119 444V444Q119 388 142 345T208 277T309 252Q367 252 409 276T475
344T498 444Q498 499 475 543T410 612T309 638Q251 638 209 613T143 543T119 444ZM303 413H284V334Q279 333 271 333T253 332Q238 332 230 337T222 359V545Q222 558 242 563Q256 567 270 568T301 570Q353 570 380 549T407 491Q407 466 394 449T360 423L414 354Q411
344 402 337T380 330Q366 330 358 337T341 355L303 413ZM284 459H308Q344 459 344 492Q344 507 334 514T305 522Q298 522 293 522T284 520V459Z" />
<glyph unicode="&#xaf;" horiz-adv-x="345" d="M280 567H35Q31 576 27 587T22 613Q22 639 34 650T65 661H310Q316 653 319 641T322 615Q322 589 311 578T280 567Z" />
<glyph unicode="&#xb0;" horiz-adv-x="360" d="M332 564V564Q332 520 312 489T257 441T181 424Q115 424 72 462T29 564Q29 607 49 638T104 685T180 702Q223 702 257 686T311 638T332 564ZM180 626V626Q157 626 139 611T120 564Q120 531 138 515T180 499Q205 499
222 515T240 564Q240 595 222 610T180 626Z" />
<glyph unicode="&#xb1;" horiz-adv-x="547" d="M440 316H70Q65 324 62 336T59 362Q59 389 72 401T106 413H476Q480 405 483 393T487 365Q487 340 475 328T440 316ZM440 0H70Q65 8 62 20T59 46Q59 72 72 84T106 97H476Q480 89 483 77T487 49Q487 24 475 12T440
0ZM330 509V169Q322 167 308 164T279 161Q250 161 235 172T220 216V556Q229 559 243 561T271 564Q300 564 315 553T330 509Z" />
<glyph unicode="&#xb2;" horiz-adv-x="278" d="M124 699V699Q180 699 212 672T244 596Q244 565 226 537T171 479L115 434H243Q246 429 248 421T250 403Q250 387 243 380T220 372H41Q33 379 28 388T23 411Q23 426 27 436T38 453L118 524Q145 547 156 563T167 595Q167
614 153 624T118 635Q98 635 82 629T52 612Q44 618 39 626T34 648Q34 672 60 685T124 699Z" />
<glyph unicode="&#xb3;" horiz-adv-x="278" d="M77 566H128Q147 566 157 575T168 599Q168 616 154 626T114 636Q93 636 75 630T45 616Q36 622 31 631T25 652Q25 675 53 687T124 699Q182 699 213 674T245 607Q245 584 233 566T200 538Q222 530 236 510T251 461Q251
413 215 389T124 364Q75 364 46 379T16 417Q16 430 22 440T39 454Q53 445 71 437T117 428Q143 428 158 438T174 468Q174 485 163 495T129 505H77Q73 511 71 518T68 536Q68 556 77 566Z" />
<glyph unicode="&#xb4;" horiz-adv-x="298" d="M84 608L182 717Q218 716 237 700T257 663Q257 646 249 634T222 605L130 522Q99 522 82 537T65 570Q65 581 69 589T84 608Z" />
<glyph unicode="&#xb5;" horiz-adv-x="566" d="M65 268H178L172 64Q178 23 182 -23T187 -120V-173Q179 -177 164 -180T133 -184Q98 -184 82 -171T65 -127V268ZM134 154V249L187 260V182Q187 129 215 106T292 82Q324 82 346 88T380 102V260H501V92Q501 69 493 54T465
26Q441 11 402 -1T308 -14Q250 -14 211 5T153 62T134 154ZM501 212H380V471Q388 474 402 476T435 479Q469 479 485 467T501 422V212ZM187 212H65V471Q73 474 88 476T120 479Q155 479 171 467T187 422V212Z" />
<glyph unicode="&#xb6;" horiz-adv-x="491" d="M231 613H362Q393 613 410 603T428 556V-69Q421 -70 406 -73T374 -76Q342 -76 325 -65T307 -20V510H239V253Q239 241 225 233T181 225Q141 225 103 245T40 306T15 413Q15 481 45 525T125 591T231 613Z" />
<glyph unicode="&#xb7;" horiz-adv-x="186" d="M19 261V261Q19 293 39 314T93 336Q127 336 147 315T167 261Q167 230 147 208T93 186Q59 186 39 208T19 261Z" />
<glyph unicode="&#xb8;" horiz-adv-x="195" d="M49 3L118 27Q151 7 164 -22T177 -85Q177 -134 146 -164T63 -195Q30 -195 11 -181T-8 -139Q-8 -124 -3 -112H10Q44 -112 59 -97T74 -58Q74 -44 68 -27T49 3Z" />
<glyph unicode="&#xb9;" horiz-adv-x="216" d="M92 405V610L40 589Q30 594 21 605T12 630Q12 644 19 653T40 667L113 696H126Q146 696 157 685T168 654V374Q162 372 153 370T132 368Q113 368 103 375T92 405Z" />
<glyph unicode="&#xba;" horiz-adv-x="386" d="M348 459V459Q348 381 305 339T192 297Q122 297 79 339T35 460Q35 537 79 579T192 621Q262 621 305 579T348 459ZM192 553V553Q159 553 140 529T121 460Q121 415 140 391T192 366Q224 366 243 390T262 459Q262 503
243 528T192 553Z" />
<glyph unicode="&#xbb;" horiz-adv-x="517" d="M384 236L253 371Q253 393 267 410T309 428Q327 428 341 418T368 394L473 283Q478 274 481 262T485 237Q485 214 479 201T464 178L318 31Q290 39 276 53T262 86Q262 103 269 115T297 149L384 236ZM167 236L36 371Q36
393 50 410T92 428Q110 428 124 418T151 394L256 283Q261 274 264 262T268 237Q268 214 262 201T246 178L100 31Q73 39 59 53T45 86Q45 103 52 115T80 149L167 236Z" />
<glyph unicode="&#xbc;" horiz-adv-x="615" d="M88 325V530L36 509Q26 514 17 525T8 550Q8 564 15 573T36 587L109 616H122Q142 616 153 605T164 574V294Q158 292 149 290T128 288Q109 288 99 295T88 325ZM553 282V129H599Q601 124 603 117T605 99Q605 82 597
75T577 67H346Q336 72 329 82T322 107Q322 118 324 126T334 144L460 316Q468 318 478 320T500 322Q521 322 537 313T553 282ZM482 129V182Q482 193 482 210T484 245L407 129H482ZM480 31V99H553V1Q547 -1 538 -2T519 -4Q500 -4 490 3T480 31ZM91 83L451 613Q475
610 490 600T505 574Q505 561 500 550T485 524L125 -6Q100 -3 86 7T70 33Q70 46 75 57T91 83Z" />
<glyph unicode="&#xbd;" horiz-adv-x="628" d="M88 325V530L36 509Q26 514 17 525T8 550Q8 564 15 573T36 587L109 616H122Q142 616 153 605T164 574V294Q158 292 149 290T128 288Q109 288 99 295T88 325ZM477 328V328Q533 328 565 301T597 225Q597 194 579 166T524
108L468 63H596Q599 58 601 50T603 32Q603 16 596 9T573 1H394Q386 8 381 17T376 40Q376 55 380 65T391 82L471 153Q498 176 509 192T520 224Q520 243 506 253T471 264Q451 264 435 258T405 241Q397 247 392 255T387 277Q387 301 413 314T477 328ZM91 83L451 613Q475
610 490 600T505 574Q505 561 500 550T485 524L125 -6Q100 -3 86 7T70 33Q70 46 75 57T91 83Z" />
<glyph unicode="&#xbe;" horiz-adv-x="665" d="M77 488H128Q147 488 157 497T168 521Q168 538 154 548T114 558Q93 558 75 552T45 538Q36 544 31 553T25 574Q25 597 53 609T124 621Q182 621 213 596T245 529Q245 506 233 488T200 460Q222 452 236 432T251 383Q251
335 215 311T124 286Q75 286 46 301T16 339Q16 352 22 362T39 376Q53 367 71 359T117 350Q143 350 158 360T174 390Q174 407 163 417T129 427H77Q73 433 71 440T68 458Q68 478 77 488ZM603 282V129H649Q651 124 653 117T655 99Q655 82 647 75T627 67H396Q386 72
379 82T372 107Q372 118 374 126T384 144L510 316Q518 318 528 320T550 322Q571 322 587 313T603 282ZM532 129V182Q532 193 532 210T534 245L457 129H532ZM530 31V99H603V1Q597 -1 588 -2T569 -4Q550 -4 540 3T530 31ZM143 83L503 613Q527 610 542 600T557 574Q557
561 552 550T537 524L177 -6Q152 -3 138 7T122 33Q122 46 127 57T143 83Z" />
<glyph unicode="&#xbf;" horiz-adv-x="477" d="M245 225L342 256Q356 246 368 228T380 188Q380 168 367 157T330 137L265 115Q213 98 186 70T159 -7Q159 -50 188 -81T281 -113Q320 -113 353 -100T415 -65Q428 -74 437 -87T446 -121Q446 -149 423 -170T360 -204T269
-216Q195 -216 142 -190T61 -116T33 -7Q33 56 57 99T128 172T245 225ZM368 404V404Q368 372 349 352T294 331Q261 331 241 351T221 404Q221 435 241 456T294 477Q329 477 348 456T368 404Z" />
<glyph unicode="&#xc0;" horiz-adv-x="608" d="M308 505H303Q291 470 275 424T242 327T209 230L196 170Q190 151 183 128T169 81T155 36T144 -1Q134 -4 123 -6T95 -9Q63 -9 45 3T27 40Q27 52 30 63T38 90Q48 123 65 172T102 280T144 397T184 507T218 595Q230 602
254 608T304 614Q338 614 366 605T401 572Q422 517 446 446T496 298T544 148T585 16Q575 5 558 -2T518 -9Q485 -9 471 3T449 42L408 174L394 237Q379 287 363 337T333 431T308 505ZM141 145L187 244H438L457 145H141ZM253 678L163 755Q162 759 162 764T162 772Q162
797 176 812T214 828Q243 828 267 801L352 707Q350 682 336 670T302 657Q287 657 276 663T253 678Z" />
<glyph unicode="&#xc1;" horiz-adv-x="608" d="M308 505H303Q291 470 275 424T242 327T209 230L196 170Q190 151 183 128T169 81T155 36T144 -1Q134 -4 123 -6T95 -9Q63 -9 45 3T27 40Q27 52 30 63T38 90Q48 123 65 172T102 280T144 397T184 507T218 595Q230 602
254 608T304 614Q338 614 366 605T401 572Q422 517 446 446T496 298T544 148T585 16Q575 5 558 -2T518 -9Q485 -9 471 3T449 42L408 174L394 237Q379 287 363 337T333 431T308 505ZM141 145L187 244H438L457 145H141ZM278 739L381 832Q412 831 429 816T446 780Q446
764 439 752T411 724L319 657Q290 658 275 670T260 700Q260 711 264 720T278 739Z" />
<glyph unicode="&#xc2;" horiz-adv-x="608" d="M310 743V743Q290 724 267 701T217 654Q194 655 178 668T162 701Q162 717 171 729T198 756L243 798Q280 829 311 829Q332 829 348 821T380 796L462 708Q462 684 449 671T412 657Q397 657 384 666T352 696L310 743ZM308
505H303Q291 470 275 424T242 327T209 230L196 170Q190 151 183 128T169 81T155 36T144 -1Q134 -4 123 -6T95 -9Q63 -9 45 3T27 40Q27 52 30 63T38 90Q48 123 65 172T102 280T144 397T184 507T218 595Q230 602 254 608T304 614Q338 614 366 605T401 572Q422 517
446 446T496 298T544 148T585 16Q575 5 558 -2T518 -9Q485 -9 471 3T449 42L408 174L394 237Q379 287 363 337T333 431T308 505ZM141 145L187 244H438L457 145H141Z" />
<glyph unicode="&#xc3;" horiz-adv-x="608" d="M308 505H303Q291 470 275 424T242 327T209 230L196 170Q190 151 183 128T169 81T155 36T144 -1Q134 -4 123 -6T95 -9Q63 -9 45 3T27 40Q27 52 30 63T38 90Q48 123 65 172T102 280T144 397T184 507T218 595Q230 602
254 608T304 614Q338 614 366 605T401 572Q422 517 446 446T496 298T544 148T585 16Q575 5 558 -2T518 -9Q485 -9 471 3T449 42L408 174L394 237Q379 287 363 337T333 431T308 505ZM141 145L187 244H438L457 145H141ZM231 812V812Q259 812 283 805T328 789T365
781Q385 781 395 793T410 817H415Q439 817 457 802T475 760Q475 725 452 706T391 687Q361 687 337 695T292 711T255 719Q235 719 226 707T211 682H206Q182 682 164 697T145 739Q145 764 157 780T190 804T231 812Z" />
<glyph unicode="&#xc4;" horiz-adv-x="608" d="M308 505H303Q291 470 275 424T242 327T209 230L196 170Q190 151 183 128T169 81T155 36T144 -1Q134 -4 123 -6T95 -9Q63 -9 45 3T27 40Q27 52 30 63T38 90Q48 123 65 172T102 280T144 397T184 507T218 595Q230 602
254 608T304 614Q338 614 366 605T401 572Q422 517 446 446T496 298T544 148T585 16Q575 5 558 -2T518 -9Q485 -9 471 3T449 42L408 174L394 237Q379 287 363 337T333 431T308 505ZM141 145L187 244H438L457 145H141ZM275 743V743Q275 717 257 698T209 679Q181
679 163 698T144 743Q144 770 162 788T209 807Q238 807 256 789T275 743ZM467 743V743Q467 717 449 698T402 679Q374 679 355 698T336 743Q336 770 355 788T402 807Q431 807 449 789T467 743Z" />
<glyph unicode="&#xc5;" horiz-adv-x="608" d="M308 505H303Q291 470 275 424T242 327T209 230L196 170Q190 151 183 128T169 81T155 36T144 -1Q134 -4 123 -6T95 -9Q63 -9 45 3T27 40Q27 52 30 63T38 90Q48 123 65 172T102 280T144 397T184 507T218 595Q230 602
254 608T304 614Q338 614 366 605T401 572Q422 517 446 446T496 298T544 148T585 16Q575 5 558 -2T518 -9Q485 -9 471 3T449 42L408 174L394 237Q379 287 363 337T333 431T308 505ZM141 145L187 244H438L457 145H141ZM190 749V749Q190 791 222 819T308 848Q365
848 397 820T429 749Q429 707 397 679T308 650Q254 650 222 678T190 749ZM269 748V748Q269 732 280 722T309 712Q327 712 338 722T350 749Q350 766 339 776T309 786Q292 786 281 776T269 748Z" />
<glyph unicode="&#xc6;" horiz-adv-x="858" d="M482 503H392L248 214L228 175L142 -1Q132 -4 123 -6T97 -9Q65 -9 50 3T34 39Q34 50 37 62T49 90Q62 117 85 163T138 266T199 383T260 497T312 592Q323 600 343 606T388 612Q406 612 425 608T460 596T481 573L482
503ZM144 145L190 244H436L455 145H144ZM398 534H520V7Q513 5 497 2T464 -1Q434 -1 416 17T398 65V534ZM464 261V360H765Q771 353 775 340T779 312Q779 286 767 274T735 261H464ZM464 -1V99H800Q804 92 808 79T813 50Q813 25 801 12T769 -1H464ZM437 507V569Q446
586 462 596T502 607H795Q800 600 804 587T809 559Q809 534 797 521T764 507H437Z" />
<glyph unicode="&#xc7;" horiz-adv-x="580" d="M537 530V530Q537 512 527 498T502 475Q477 492 444 506T363 521Q306 521 264 496T197 422T173 303Q173 196 226 142T368 87Q415 87 449 100T509 130Q522 122 531 107T541 72Q541 56 533 43T503 18Q483 6 446 -4T354
-15Q268 -15 198 19T86 124T45 303Q45 408 86 479T196 586T347 623Q405 623 447 610T513 576T537 530ZM296 3L365 27Q398 7 411 -22T424 -85Q424 -134 393 -164T310 -195Q277 -195 258 -181T239 -139Q239 -124 244 -112H257Q291 -112 306 -97T321 -58Q321 -44 315
-27T296 3Z" />
<glyph unicode="&#xc8;" horiz-adv-x="545" d="M84 401H206V7Q199 5 183 2T151 -1Q120 -1 102 17T84 65V401ZM206 208L84 209V541Q84 571 102 589T151 607Q167 607 183 604T206 599V208ZM151 261V360H452Q457 353 461 340T465 312Q465 286 454 274T421 261H151ZM151
-1V99H486Q491 92 495 79T499 50Q499 25 488 12T455 -1H151ZM151 507V607H482Q486 600 490 587T495 559Q495 534 483 521T450 507H151ZM260 678L170 755Q169 759 169 764T169 772Q169 797 183 812T221 828Q250 828 274 801L359 707Q357 682 343 670T309 657Q294
657 283 663T260 678Z" />
<glyph unicode="&#xc9;" horiz-adv-x="545" d="M84 401H206V7Q199 5 183 2T151 -1Q120 -1 102 17T84 65V401ZM206 208L84 209V541Q84 571 102 589T151 607Q167 607 183 604T206 599V208ZM151 261V360H452Q457 353 461 340T465 312Q465 286 454 274T421 261H151ZM151
-1V99H486Q491 92 495 79T499 50Q499 25 488 12T455 -1H151ZM151 507V607H482Q486 600 490 587T495 559Q495 534 483 521T450 507H151ZM270 739L373 832Q404 831 421 816T438 780Q438 764 431 752T403 724L311 657Q282 658 267 670T252 700Q252 711 256 720T270
739Z" />
<glyph unicode="&#xca;" horiz-adv-x="545" d="M84 401H206V7Q199 5 183 2T151 -1Q120 -1 102 17T84 65V401ZM206 208L84 209V541Q84 571 102 589T151 607Q167 607 183 604T206 599V208ZM151 261V360H452Q457 353 461 340T465 312Q465 286 454 274T421 261H151ZM151
-1V99H486Q491 92 495 79T499 50Q499 25 488 12T455 -1H151ZM151 507V607H482Q486 600 490 587T495 559Q495 534 483 521T450 507H151ZM295 743V743Q275 724 252 701T202 654Q178 655 163 668T147 701Q147 717 156 729T183 756L228 798Q265 829 296 829Q317 829
333 821T365 796L447 708Q447 684 433 671T397 657Q381 657 368 666T336 696L295 743Z" />
<glyph unicode="&#xcb;" horiz-adv-x="545" d="M84 401H206V7Q199 5 183 2T151 -1Q120 -1 102 17T84 65V401ZM206 208L84 209V541Q84 571 102 589T151 607Q167 607 183 604T206 599V208ZM151 261V360H452Q457 353 461 340T465 312Q465 286 454 274T421 261H151ZM151
-1V99H486Q491 92 495 79T499 50Q499 25 488 12T455 -1H151ZM151 507V607H482Q486 600 490 587T495 559Q495 534 483 521T450 507H151ZM264 738V738Q264 712 246 693T198 674Q170 674 152 693T133 738Q133 765 151 783T198 802Q227 802 245 784T264 738ZM456 738V738Q456
712 438 693T391 674Q363 674 344 693T325 738Q325 765 344 783T391 802Q420 802 438 784T456 738Z" />
<glyph unicode="&#xcc;" horiz-adv-x="282" d="M78 399H203V2Q195 -1 179 -3T146 -6Q110 -6 94 7T78 52V399ZM203 257H78V607Q87 609 103 612T136 615Q171 615 187 603T203 557V257ZM339 678L249 755Q248 759 248 764T248 772Q248 797 262 812T300 828Q329 828
353 801L438 707Q436 682 422 670T388 657Q373 657 362 663T339 678Z" />
<glyph unicode="&#xcd;" horiz-adv-x="282" d="M78 399H203V2Q195 -1 179 -3T146 -6Q110 -6 94 7T78 52V399ZM203 257H78V607Q87 609 103 612T136 615Q171 615 187 603T203 557V257ZM107 739L210 832Q241 831 258 816T275 780Q275 764 268 752T240 724L148 657Q119
658 104 670T89 700Q89 711 93 720T107 739Z" />
<glyph unicode="&#xce;" horiz-adv-x="282" d="M78 399H203V2Q195 -1 179 -3T146 -6Q110 -6 94 7T78 52V399ZM203 257H78V607Q87 609 103 612T136 615Q171 615 187 603T203 557V257ZM397 743V743Q377 724 354 701T304 654Q280 655 265 668T249 701Q249 717 258
729T285 756L330 798Q367 829 398 829Q419 829 435 821T467 796L549 708Q549 684 535 671T499 657Q483 657 470 666T438 696L397 743Z" />
<glyph unicode="&#xcf;" horiz-adv-x="282" d="M78 399H203V2Q195 -1 179 -3T146 -6Q110 -6 94 7T78 52V399ZM203 257H78V607Q87 609 103 612T136 615Q171 615 187 603T203 557V257ZM364 738V738Q364 712 346 693T298 674Q270 674 252 693T233 738Q233 765 251
783T298 802Q327 802 345 784T364 738ZM556 738V738Q556 712 538 693T491 674Q463 674 444 693T425 738Q425 765 444 783T491 802Q520 802 538 784T556 738Z" />
<glyph unicode="&#xd0;" horiz-adv-x="690" d="M172 355V255H329Q349 255 361 268T373 307Q373 323 369 335T360 355H172ZM211 255V355H59Q39 355 27 342T15 303Q15 288 19 276T28 255H211ZM517 306V306Q517 198 465 143T318 88Q296 88 274 90T233 96V513Q251
516 270 517T313 519Q372 519 417 497T490 427T517 306ZM644 308V308Q644 414 602 483T485 586T308 621Q270 621 227 617T147 602Q129 596 119 586T109 558V65Q109 24 157 7Q195 -6 240 -9T318 -13Q417 -13 490 22T603 128T644 308Z" />
<glyph unicode="&#xd1;" horiz-adv-x="669" d="M78 475L189 478Q193 440 195 398T198 315T199 236V1Q192 -1 176 -3T143 -6Q108 -6 93 6T78 50V475ZM591 134L479 131Q471 208 470 282T469 426V607Q478 609 493 612T526 615Q561 615 576 603T591 559V134ZM591 175V235V16Q579
6 560 0T514 -7Q484 -7 460 3T418 46L270 312Q257 336 244 362T218 413T196 460L78 433V586Q89 600 110 607T155 614Q185 614 210 604T251 561L400 296Q414 272 427 246T452 194T473 148L591 175ZM249 812V812Q277 812 301 805T346 789T383 781Q403 781 413 793T428
817H433Q457 817 475 802T493 760Q493 725 470 706T409 687Q379 687 355 695T310 711T273 719Q253 719 244 707T229 682H224Q200 682 182 697T163 739Q163 764 175 780T208 804T249 812Z" />
<glyph unicode="&#xd2;" horiz-adv-x="695" d="M650 304V304Q650 200 610 129T502 21T347 -15Q261 -15 193 21T85 128T45 304Q45 408 85 479T194 586T347 623Q432 623 500 587T609 479T650 304ZM522 304V304Q522 409 475 465T347 521Q269 521 221 466T173 304Q173
198 220 143T348 87Q428 87 475 142T522 304ZM299 678L209 755Q208 759 208 764T208 772Q208 797 222 812T260 828Q289 828 313 801L398 707Q396 682 382 670T348 657Q333 657 322 663T299 678Z" />
<glyph unicode="&#xd3;" horiz-adv-x="695" d="M650 304V304Q650 200 610 129T502 21T347 -15Q261 -15 193 21T85 128T45 304Q45 408 85 479T194 586T347 623Q432 623 500 587T609 479T650 304ZM522 304V304Q522 409 475 465T347 521Q269 521 221 466T173 304Q173
198 220 143T348 87Q428 87 475 142T522 304ZM324 739L427 832Q458 831 475 816T492 780Q492 764 485 752T457 724L365 657Q336 658 321 670T306 700Q306 711 310 720T324 739Z" />
<glyph unicode="&#xd4;" horiz-adv-x="695" d="M650 304V304Q650 200 610 129T502 21T347 -15Q261 -15 193 21T85 128T45 304Q45 408 85 479T194 586T347 623Q432 623 500 587T609 479T650 304ZM522 304V304Q522 409 475 465T347 521Q269 521 221 466T173 304Q173
198 220 143T348 87Q428 87 475 142T522 304ZM349 743V743Q329 724 306 701T256 654Q232 655 217 668T201 701Q201 717 210 729T237 756L282 798Q319 829 350 829Q371 829 387 821T419 796L501 708Q501 684 487 671T451 657Q435 657 422 666T390 696L349 743Z"
/>
<glyph unicode="&#xd5;" horiz-adv-x="695" d="M650 304V304Q650 200 610 129T502 21T347 -15Q261 -15 193 21T85 128T45 304Q45 408 85 479T194 586T347 623Q432 623 500 587T609 479T650 304ZM522 304V304Q522 409 475 465T347 521Q269 521 221 466T173 304Q173
198 220 143T348 87Q428 87 475 142T522 304ZM269 812V812Q297 812 321 805T366 789T403 781Q423 781 433 793T448 817H453Q477 817 495 802T513 760Q513 725 490 706T429 687Q399 687 375 695T330 711T293 719Q273 719 264 707T249 682H244Q220 682 202 697T183
739Q183 764 195 780T228 804T269 812Z" />
<glyph unicode="&#xd6;" horiz-adv-x="695" d="M650 304V304Q650 200 610 129T502 21T347 -15Q261 -15 193 21T85 128T45 304Q45 408 85 479T194 586T347 623Q432 623 500 587T609 479T650 304ZM522 304V304Q522 409 475 465T347 521Q269 521 221 466T173 304Q173
198 220 143T348 87Q428 87 475 142T522 304ZM316 738V738Q316 712 298 693T250 674Q222 674 204 693T185 738Q185 765 203 783T250 802Q279 802 297 784T316 738ZM508 738V738Q508 712 490 693T443 674Q415 674 396 693T377 738Q377 765 396 783T443 802Q472 802
490 784T508 738Z" />
<glyph unicode="&#xd7;" horiz-adv-x="499" d="M306 307L454 142Q448 119 432 104T391 88Q381 88 370 93T350 109L237 240L200 271L46 432Q52 453 69 471T108 490Q120 490 129 485T146 470L271 335L306 307ZM420 389L304 267L258 233L113 83Q87 88 68 105T48 142Q48
152 54 162T70 182L193 306L235 334L385 491Q406 484 423 468T441 429Q441 419 436 409T420 389Z" />
<glyph unicode="&#xd8;" horiz-adv-x="695" d="M187 72L102 -17Q74 -11 59 4T43 37Q43 52 51 64T76 93L116 133L187 72ZM611 516L570 474L511 546L585 626Q612 619 628 605T645 572Q645 559 636 546T611 516ZM527 433L205 87L163 174L467 503L527 433ZM650 304V304Q650
200 610 129T502 22T347 -15Q262 -15 193 23T85 132T45 304Q45 408 85 479T194 586T347 623Q432 623 500 585T609 476T650 304ZM525 304V304Q525 408 476 464T347 521Q269 521 220 466T171 304Q171 200 219 144T348 87Q427 87 476 142T525 304Z" />
<glyph unicode="&#xd9;" horiz-adv-x="656" d="M328 -15V-15Q249 -15 193 13T106 94T76 216V288H200V221Q200 156 236 122T328 87Q383 87 419 121T455 221V288H580V216Q580 146 550 94T464 14T328 -15ZM200 253H76V607Q84 609 100 612T134 615Q169 615 184 603T200
557V253ZM580 252H455V607Q463 609 479 612T513 615Q548 615 564 603T580 557V252ZM269 678L179 755Q178 759 178 764T178 772Q178 797 192 812T230 828Q259 828 283 801L368 707Q366 682 352 670T318 657Q303 657 292 663T269 678Z" />
<glyph unicode="&#xda;" horiz-adv-x="656" d="M328 -15V-15Q249 -15 193 13T106 94T76 216V288H200V221Q200 156 236 122T328 87Q383 87 419 121T455 221V288H580V216Q580 146 550 94T464 14T328 -15ZM200 253H76V607Q84 609 100 612T134 615Q169 615 184 603T200
557V253ZM580 252H455V607Q463 609 479 612T513 615Q548 615 564 603T580 557V252ZM301 739L404 832Q435 831 452 816T469 780Q469 764 462 752T434 724L342 657Q313 658 298 670T283 700Q283 711 287 720T301 739Z" />
<glyph unicode="&#xdb;" horiz-adv-x="656" d="M328 -15V-15Q249 -15 193 13T106 94T76 216V288H200V221Q200 156 236 122T328 87Q383 87 419 121T455 221V288H580V216Q580 146 550 94T464 14T328 -15ZM200 253H76V607Q84 609 100 612T134 615Q169 615 184 603T200
557V253ZM580 252H455V607Q463 609 479 612T513 615Q548 615 564 603T580 557V252ZM333 743V743Q313 724 290 701T240 654Q216 655 201 668T185 701Q185 717 194 729T221 756L266 798Q303 829 334 829Q355 829 371 821T403 796L485 708Q485 684 471 671T435 657Q419
657 406 666T374 696L333 743Z" />
<glyph unicode="&#xdc;" horiz-adv-x="656" d="M328 -15V-15Q249 -15 193 13T106 94T76 216V288H200V221Q200 156 236 122T328 87Q383 87 419 121T455 221V288H580V216Q580 146 550 94T464 14T328 -15ZM200 253H76V607Q84 609 100 612T134 615Q169 615 184 603T200
557V253ZM580 252H455V607Q463 609 479 612T513 615Q548 615 564 603T580 557V252ZM295 738V738Q295 712 277 693T229 674Q201 674 183 693T164 738Q164 765 182 783T229 802Q258 802 276 784T295 738ZM487 738V738Q487 712 469 693T422 674Q394 674 375 693T356
738Q356 765 375 783T422 802Q451 802 469 784T487 738Z" />
<glyph unicode="&#xdd;" horiz-adv-x="561" d="M343 204H232Q206 244 175 291T114 388T58 485T14 572Q22 587 38 599T79 612Q107 612 124 599T157 555Q164 543 177 519T206 466T237 409T265 357T285 323H290Q317 374 339 418T383 506T427 599Q439 605 454 608T482
612Q508 612 524 599T541 559Q541 548 530 521T494 451T433 347T343 204ZM226 253H348V2Q341 -1 325 -3T292 -6Q256 -6 241 7T226 51V253ZM246 739L349 832Q380 831 397 816T414 780Q414 764 407 752T379 724L287 657Q258 658 243 670T228 700Q228 711 232 720T246
739Z" />
<glyph unicode="&#xde;" horiz-adv-x="576" d="M199 203V409H283Q343 409 376 384T410 306Q410 254 377 229T283 203H199ZM76 509V103H302Q419 103 477 159T536 306Q536 399 478 454T302 509H76ZM200 165H76V51Q76 20 91 7T143 -6Q160 -6 176 -4T200 1V165ZM76
435H200V557Q200 589 184 602T133 615Q117 615 101 612T76 607V435Z" />
<glyph unicode="&#xdf;" horiz-adv-x="599" d="M189 285H68V465Q68 535 97 581T176 651T288 674Q352 674 402 650T480 577T509 461Q509 420 474 404L434 387Q414 377 405 367T396 340Q396 325 406 314T439 288Q480 266 507 245T548 196T562 131Q562 58 513 21T387
-17Q328 -17 294 1T259 51Q259 69 267 82T288 103Q305 92 325 84T372 76Q402 76 420 91T438 131Q438 154 425 169T375 204Q324 231 298 262T272 341Q272 382 295 410T361 456L388 467Q388 513 360 543T288 574Q247 574 218 548T189 465V285ZM68 338H189V-1Q182
-3 168 -5T136 -8Q101 -8 85 5T68 49V338Z" />
<glyph unicode="&#xe0;" horiz-adv-x="520" d="M249 78V78Q280 78 304 84T339 97V212L239 203Q198 199 177 185T155 141Q155 112 178 95T249 78ZM245 487V487Q342 487 399 446T457 315V84Q457 60 446 47T417 22Q389 6 346 -4T249 -15Q150 -15 93 23T36 138Q36
205 78 240T202 284L339 298V316Q339 357 311 375T233 393Q194 393 157 383T91 359Q81 367 74 380T66 409Q66 445 105 462Q133 474 170 480T245 487ZM212 544L116 640Q115 644 115 649T114 657Q114 683 129 697T168 712Q183 712 196 706T221 686L311 574Q308 549
294 537T260 524Q245 524 234 529T212 544Z" />
<glyph unicode="&#xe1;" horiz-adv-x="520" d="M249 78V78Q280 78 304 84T339 97V212L239 203Q198 199 177 185T155 141Q155 112 178 95T249 78ZM245 487V487Q342 487 399 446T457 315V84Q457 60 446 47T417 22Q389 6 346 -4T249 -15Q150 -15 93 23T36 138Q36
205 78 240T202 284L339 298V316Q339 357 311 375T233 393Q194 393 157 383T91 359Q81 367 74 380T66 409Q66 445 105 462Q133 474 170 480T245 487ZM219 608L317 717Q353 716 372 700T392 663Q392 646 384 634T357 605L265 522Q234 522 217 537T200 570Q200 581
204 589T219 608Z" />
<glyph unicode="&#xe2;" horiz-adv-x="520" d="M249 78V78Q280 78 304 84T339 97V212L239 203Q198 199 177 185T155 141Q155 112 178 95T249 78ZM245 487V487Q342 487 399 446T457 315V84Q457 60 446 47T417 22Q389 6 346 -4T249 -15Q150 -15 93 23T36 138Q36
205 78 240T202 284L339 298V316Q339 357 311 375T233 393Q194 393 157 383T91 359Q81 367 74 380T66 409Q66 445 105 462Q133 474 170 480T245 487ZM309 558L256 622Q231 593 212 572T171 526Q143 528 126 541T109 574Q109 589 117 600T141 627L190 678Q206 693
221 701T257 710Q278 710 294 702T328 672L406 578Q406 558 395 543T358 528Q343 528 332 536T309 558Z" />
<glyph unicode="&#xe3;" horiz-adv-x="520" d="M249 78V78Q280 78 304 84T339 97V212L239 203Q198 199 177 185T155 141Q155 112 178 95T249 78ZM245 487V487Q342 487 399 446T457 315V84Q457 60 446 47T417 22Q389 6 346 -4T249 -15Q150 -15 93 23T36 138Q36
205 78 240T202 284L339 298V316Q339 357 311 375T233 393Q194 393 157 383T91 359Q81 367 74 380T66 409Q66 445 105 462Q133 474 170 480T245 487ZM175 680V680Q203 680 227 673T272 657T309 649Q329 649 339 661T354 685H359Q383 685 401 670T419 628Q419 593
396 574T335 555Q305 555 281 563T236 579T199 587Q179 587 170 575T155 550H150Q126 550 108 565T89 607Q89 632 101 648T134 672T175 680Z" />
<glyph unicode="&#xe4;" horiz-adv-x="520" d="M249 78V78Q280 78 304 84T339 97V212L239 203Q198 199 177 185T155 141Q155 112 178 95T249 78ZM245 487V487Q342 487 399 446T457 315V84Q457 60 446 47T417 22Q389 6 346 -4T249 -15Q150 -15 93 23T36 138Q36
205 78 240T202 284L339 298V316Q339 357 311 375T233 393Q194 393 157 383T91 359Q81 367 74 380T66 409Q66 445 105 462Q133 474 170 480T245 487ZM230 870V870Q230 844 212 825T164 806Q136 806 118 825T99 870Q99 897 117 915T164 934Q193 934 211 916T230
870ZM422 870V870Q422 844 404 825T357 806Q329 806 310 825T291 870Q291 897 310 915T357 934Q386 934 404 916T422 870Z" />
<glyph unicode="&#xe5;" horiz-adv-x="520" d="M249 78V78Q280 78 304 84T339 97V212L239 203Q198 199 177 185T155 141Q155 112 178 95T249 78ZM245 487V487Q342 487 399 446T457 315V84Q457 60 446 47T417 22Q389 6 346 -4T249 -15Q150 -15 93 23T36 138Q36
205 78 240T202 284L339 298V316Q339 357 311 375T233 393Q194 393 157 383T91 359Q81 367 74 380T66 409Q66 445 105 462Q133 474 170 480T245 487ZM142 625V625Q142 668 173 697T259 727Q316 727 347 698T378 625Q378 583 347 554T259 524Q204 524 173 553T142
625ZM220 625V625Q220 606 231 596T259 585Q277 585 288 595T300 625Q300 645 289 655T259 666Q243 666 232 656T220 625Z" />
<glyph unicode="&#xe6;" horiz-adv-x="820" d="M405 174L400 260L670 299Q666 338 640 366T563 395Q511 395 477 359T442 256L445 205Q453 141 494 111T598 80Q640 80 675 92T733 120Q747 111 755 98T764 69Q764 43 741 25T679 -4T591 -14Q480 -14 418 47T352
214Q352 219 349 227T345 241Q345 323 374 377T453 459T563 487Q629 487 678 461T756 387T784 279Q784 251 770 238T731 221L405 174ZM249 78V78Q280 78 304 84T339 97V212L239 203Q198 199 177 185T155 141Q155 112 178 95T249 78ZM245 487V487Q336 487 385 445T434
315V81Q434 57 423 42T397 18Q370 4 336 -5T248 -15Q149 -15 93 23T36 138Q36 205 78 240T202 284L339 298V316Q339 357 311 375T233 393Q194 393 157 383T91 359Q81 367 74 380T66 409Q66 445 105 462Q133 474 170 480T245 487Z" />
<glyph unicode="&#xe7;" horiz-adv-x="483" d="M306 389V389Q246 389 205 350T164 235Q164 161 203 122T306 83Q342 83 368 93T413 114Q428 105 436 93T444 63Q444 29 404 8T296 -14Q220 -14 163 13T73 97T41 235Q41 319 75 375T166 459T293 487Q359 487 399 464T439
407Q439 392 431 380T411 359Q392 370 367 379T306 389ZM238 3L307 27Q340 7 353 -22T366 -85Q366 -134 335 -164T252 -195Q219 -195 200 -181T181 -139Q181 -124 186 -112H199Q233 -112 248 -97T263 -58Q263 -44 257 -27T238 3Z" />
<glyph unicode="&#xe8;" horiz-adv-x="533" d="M118 174L113 260L382 299Q379 338 353 366T276 395Q224 395 190 359T155 256L158 205Q166 141 207 111T311 80Q353 80 389 92T446 120Q459 111 467 98T476 69Q476 43 454 25T392 -4T303 -14Q226 -14 167 14T74 100T41
241Q41 303 59 349T110 425T186 471T276 487Q342 487 391 461T469 387T497 279Q497 251 483 238T443 221L118 174ZM225 544L129 640Q128 644 128 649T127 657Q127 683 142 697T181 712Q196 712 209 706T234 686L324 574Q321 549 307 537T273 524Q258 524 247 529T225
544Z" />
<glyph unicode="&#xe9;" horiz-adv-x="533" d="M118 174L113 260L382 299Q379 338 353 366T276 395Q224 395 190 359T155 256L158 205Q166 141 207 111T311 80Q353 80 389 92T446 120Q459 111 467 98T476 69Q476 43 454 25T392 -4T303 -14Q226 -14 167 14T74 100T41
241Q41 303 59 349T110 425T186 471T276 487Q342 487 391 461T469 387T497 279Q497 251 483 238T443 221L118 174ZM246 608L344 717Q380 716 399 700T419 663Q419 646 411 634T384 605L292 522Q261 522 244 537T227 570Q227 581 231 589T246 608Z" />
<glyph unicode="&#xea;" horiz-adv-x="533" d="M118 174L113 260L382 299Q379 338 353 366T276 395Q224 395 190 359T155 256L158 205Q166 141 207 111T311 80Q353 80 389 92T446 120Q459 111 467 98T476 69Q476 43 454 25T392 -4T303 -14Q226 -14 167 14T74 100T41
241Q41 303 59 349T110 425T186 471T276 487Q342 487 391 461T469 387T497 279Q497 251 483 238T443 221L118 174ZM330 558L277 622Q252 593 233 572T192 526Q164 528 147 541T130 574Q130 589 138 600T162 627L211 678Q227 693 242 701T278 710Q299 710 315 702T349
672L427 578Q427 558 416 543T379 528Q364 528 353 536T330 558Z" />
<glyph unicode="&#xeb;" horiz-adv-x="533" d="M118 174L113 260L382 299Q379 338 353 366T276 395Q224 395 190 359T155 256L158 205Q166 141 207 111T311 80Q353 80 389 92T446 120Q459 111 467 98T476 69Q476 43 454 25T392 -4T303 -14Q226 -14 167 14T74 100T41
241Q41 303 59 349T110 425T186 471T276 487Q342 487 391 461T469 387T497 279Q497 251 483 238T443 221L118 174ZM240 870V870Q240 844 222 825T174 806Q146 806 128 825T109 870Q109 897 127 915T174 934Q203 934 221 916T240 870ZM432 870V870Q432 844 414 825T367
806Q339 806 320 825T301 870Q301 897 320 915T367 934Q396 934 414 916T432 870Z" />
<glyph unicode="&#xec;" horiz-adv-x="260" d="M69 303H190V-1Q183 -3 168 -5T137 -8Q102 -8 86 5T69 49V303ZM190 255H69V468Q77 471 91 473T123 476Q158 476 174 463T190 419V255ZM80 544L-16 640Q-17 644 -17 649T-18 657Q-18 683 -2 697T37 712Q52 712 65
706T90 686L179 574Q177 549 162 537T129 524Q113 524 103 529T80 544Z" />
<glyph unicode="&#xed;" horiz-adv-x="260" d="M69 303H190V-1Q183 -3 168 -5T137 -8Q102 -8 86 5T69 49V303ZM190 255H69V468Q77 471 91 473T123 476Q158 476 174 463T190 419V255ZM99 608L198 717Q234 716 253 700T272 663Q272 646 264 634T238 605L145 522Q114
522 97 537T80 570Q80 581 85 589T99 608Z" />
<glyph unicode="&#xee;" horiz-adv-x="260" d="M69 303H190V-1Q183 -3 168 -5T137 -8Q102 -8 86 5T69 49V303ZM190 255H69V468Q77 471 91 473T123 476Q158 476 174 463T190 419V255ZM184 558L131 622Q106 593 87 572T46 526Q18 528 1 541T-16 574Q-16 589 -8 600T16
627L65 678Q81 693 96 701T132 710Q153 710 169 702T203 672L281 578Q281 558 270 543T234 528Q218 528 207 536T184 558Z" />
<glyph unicode="&#xef;" horiz-adv-x="260" d="M69 303H190V-1Q183 -3 168 -5T136 -8Q102 -8 86 5T69 49V303ZM190 255H69V468Q77 471 91 473T123 476Q158 476 174 463T190 419V255ZM99 614V614Q99 588 81 570T32 551Q4 551 -14 569T-32 614Q-32 641 -14 659T32
678Q62 678 80 660T99 614ZM291 614V614Q291 588 273 570T225 551Q198 551 179 569T160 614Q160 641 179 659T225 678Q254 678 272 660T291 614Z" />
<glyph unicode="&#xf0;" horiz-adv-x="559" d="M371 547L331 532L161 470Q149 478 140 492T131 522Q131 549 159 560L239 591L302 615L434 668Q446 659 455 645T465 615Q465 597 457 588T435 574L371 547ZM415 377L399 284Q380 316 351 334T285 352Q225 352 195
316T165 220Q165 157 196 120T282 83Q338 83 365 121T393 224Q393 255 390 281T381 333Q378 348 379 357T380 374T375 393Q356 435 333 469T274 534Q266 541 257 549T238 564Q213 583 185 594T124 616Q126 647 142 665T185 683Q222 683 263 665T345 614Q352 608
357 604T369 593Q410 553 443 500T497 383T517 249Q517 168 491 109T412 18T281 -14Q171 -14 106 48T41 220Q41 297 72 347T154 421T262 446Q315 446 353 426T415 377Z" />
<glyph unicode="&#xf1;" horiz-adv-x="571" d="M505 309V211H384V304Q384 349 359 369T290 390Q260 390 235 383T191 364V211H69V372Q69 396 79 411T110 440Q139 459 186 473T291 487Q392 487 448 442T505 309ZM69 261H191V2Q183 -1 168 -3T136 -6Q102 -6 86 6T69
50V261ZM384 261H505V2Q498 -1 483 -3T450 -6Q416 -6 400 6T384 50V261ZM204 680V680Q232 680 256 673T301 657T338 649Q358 649 368 661T383 685H388Q412 685 430 670T448 628Q448 593 425 574T364 555Q334 555 310 563T265 579T228 587Q208 587 199 575T184 550H179Q155
550 137 565T118 607Q118 632 130 648T163 672T204 680Z" />
<glyph unicode="&#xf2;" horiz-adv-x="568" d="M527 237V237Q527 160 497 104T413 17T284 -14Q211 -14 156 16T71 103T41 237Q41 314 71 370T157 456T285 487Q357 487 411 456T496 369T527 237ZM284 390V390Q229 390 197 350T165 237Q165 163 196 123T284 82Q340
82 371 123T403 237Q403 308 372 349T284 390ZM250 544L154 640Q153 644 153 649T152 657Q152 683 167 697T206 712Q221 712 234 706T259 686L349 574Q346 549 332 537T298 524Q283 524 272 529T250 544Z" />
<glyph unicode="&#xf3;" horiz-adv-x="568" d="M527 237V237Q527 160 497 104T413 17T284 -14Q211 -14 156 16T71 103T41 237Q41 314 71 370T157 456T285 487Q357 487 411 456T496 369T527 237ZM284 390V390Q229 390 197 350T165 237Q165 163 196 123T284 82Q340
82 371 123T403 237Q403 308 372 349T284 390ZM247 608L345 717Q381 716 400 700T420 663Q420 646 412 634T385 605L293 522Q262 522 245 537T228 570Q228 581 232 589T247 608Z" />
<glyph unicode="&#xf4;" horiz-adv-x="568" d="M527 237V237Q527 160 497 104T413 17T284 -14Q211 -14 156 16T71 103T41 237Q41 314 71 370T157 456T285 487Q357 487 411 456T496 369T527 237ZM284 390V390Q229 390 197 350T165 237Q165 163 196 123T284 82Q340
82 371 123T403 237Q403 308 372 349T284 390ZM336 558L283 622Q258 593 239 572T198 526Q170 528 153 541T136 574Q136 589 144 600T168 627L217 678Q233 693 248 701T284 710Q305 710 321 702T355 672L433 578Q433 558 422 543T385 528Q370 528 359 536T336 558Z"
/>
<glyph unicode="&#xf5;" horiz-adv-x="568" d="M527 237V237Q527 160 497 104T413 17T284 -14Q211 -14 156 16T71 103T41 237Q41 314 71 370T157 456T285 487Q357 487 411 456T496 369T527 237ZM284 390V390Q229 390 197 350T165 237Q165 163 196 123T284 82Q340
82 371 123T403 237Q403 308 372 349T284 390ZM207 680V680Q235 680 259 673T304 657T341 649Q361 649 371 661T386 685H391Q415 685 433 670T451 628Q451 593 428 574T367 555Q337 555 313 563T268 579T231 587Q211 587 202 575T187 550H182Q158 550 140 565T121
607Q121 632 133 648T166 672T207 680Z" />
<glyph unicode="&#xf6;" horiz-adv-x="568" d="M527 237V237Q527 160 497 104T413 17T284 -14Q211 -14 156 16T71 103T41 237Q41 314 71 370T157 456T285 487Q357 487 411 456T496 369T527 237ZM284 390V390Q229 390 197 350T165 237Q165 163 196 123T284 82Q340
82 371 123T403 237Q403 308 372 349T284 390ZM253 870V870Q253 844 235 825T187 806Q159 806 141 825T122 870Q122 897 140 915T187 934Q216 934 234 916T253 870ZM445 870V870Q445 844 427 825T380 806Q352 806 333 825T314 870Q314 897 333 915T380 934Q409
934 427 916T445 870Z" />
<glyph unicode="&#xf7;" horiz-adv-x="523" d="M435 246H53Q48 255 45 266T41 292Q41 319 54 331T88 343H470Q475 335 478 323T482 295Q482 270 470 258T435 246ZM199 128V128Q199 156 217 175T264 194Q293 194 310 175T328 128Q328 101 311 82T264 63Q235 63
217 82T199 128ZM199 458V458Q199 487 217 505T264 524Q293 524 310 506T328 458Q328 430 311 412T264 394Q235 394 217 412T199 458Z" />
<glyph unicode="&#xf8;" horiz-adv-x="568" d="M432 392L381 448L438 534Q451 534 464 529T486 515T495 493Q495 484 488 474L432 392ZM198 38L130 -61Q116 -61 103 -56T81 -41T73 -20Q73 -10 80 0L129 71L198 38ZM215 66L172 131L344 393L409 363L215 66ZM527
237V237Q527 160 497 104T413 17T284 -14Q211 -14 156 16T71 103T41 237Q41 313 71 369T157 456T284 487Q357 487 411 456T496 369T527 237ZM284 391V391Q229 391 194 351T158 237Q158 163 193 123T284 82Q340 82 375 121T410 237Q410 310 375 350T284 391Z" />
<glyph unicode="&#xf9;" horiz-adv-x="565" d="M64 180V260H186V182Q186 129 213 106T291 82Q323 82 345 88T379 102V260H500V92Q500 69 493 54T464 26Q436 9 392 -2T290 -14Q221 -14 170 6T92 69T64 180ZM500 212H379V471Q387 474 402 476T434 479Q469 479 484
467T500 422V212ZM186 212H64V471Q72 474 87 476T120 479Q154 479 170 467T186 422V212ZM227 544L131 640Q130 644 130 649T129 657Q129 683 144 697T183 712Q198 712 211 706T236 686L326 574Q323 549 309 537T275 524Q260 524 249 529T227 544Z" />
<glyph unicode="&#xfa;" horiz-adv-x="565" d="M64 180V260H186V182Q186 129 213 106T291 82Q323 82 345 88T379 102V260H500V92Q500 69 493 54T464 26Q436 9 392 -2T290 -14Q221 -14 170 6T92 69T64 180ZM500 212H379V471Q387 474 402 476T434 479Q469 479 484
467T500 422V212ZM186 212H64V471Q72 474 87 476T120 479Q154 479 170 467T186 422V212ZM257 608L355 717Q391 716 410 700T430 663Q430 646 422 634T395 605L303 522Q272 522 255 537T238 570Q238 581 242 589T257 608Z" />
<glyph unicode="&#xfb;" horiz-adv-x="565" d="M64 180V260H186V182Q186 129 213 106T291 82Q323 82 345 88T379 102V260H500V92Q500 69 493 54T464 26Q436 9 392 -2T290 -14Q221 -14 170 6T92 69T64 180ZM500 212H379V471Q387 474 402 476T434 479Q469 479 484
467T500 422V212ZM186 212H64V471Q72 474 87 476T120 479Q154 479 170 467T186 422V212ZM336 558L283 622Q258 593 239 572T198 526Q170 528 153 541T136 574Q136 589 144 600T168 627L217 678Q233 693 248 701T284 710Q305 710 321 702T355 672L433 578Q433 558
422 543T385 528Q370 528 359 536T336 558Z" />
<glyph unicode="&#xfc;" horiz-adv-x="565" d="M64 180V260H186V182Q186 129 213 106T291 82Q323 82 345 88T379 102V260H500V92Q500 69 493 54T464 26Q436 9 392 -2T290 -14Q221 -14 170 6T92 69T64 180ZM500 212H379V471Q387 474 402 476T434 479Q469 479 484
467T500 422V212ZM186 212H64V471Q72 474 87 476T120 479Q154 479 170 467T186 422V212ZM249 870V870Q249 844 231 825T183 806Q155 806 137 825T118 870Q118 897 136 915T183 934Q212 934 230 916T249 870ZM441 870V870Q441 844 423 825T376 806Q348 806 329 825T310
870Q310 897 329 915T376 934Q405 934 423 916T441 870Z" />
<glyph unicode="&#xfd;" horiz-adv-x="518" d="M150 113V113Q134 146 113 195T70 310T25 455Q36 466 53 474T90 483Q115 483 131 471T157 430Q182 352 209 276T267 120H271Q289 164 308 223T345 347T375 469Q387 475 399 479T427 483Q452 483 470 472T488 433Q488
410 480 371T456 283T422 182T381 82T337 -7Q286 -97 244 -143T161 -190Q130 -190 111 -172T88 -127Q110 -108 134 -82T182 -25T221 35Q204 40 187 55T150 113ZM220 608L318 717Q354 716 373 700T393 663Q393 646 385 634T358 605L266 522Q235 522 218 537T201
570Q201 581 205 589T220 608Z" />
<glyph unicode="&#xfe;" horiz-adv-x="569" d="M66 53H188V602Q188 632 172 645T121 658Q104 658 89 656T66 650V53ZM288 -14V-14Q357 -14 410 14T494 99T525 238Q525 325 493 380T408 461T289 487Q245 487 210 476T155 453L170 357Q193 374 219 382T273 390Q309
390 338 375T384 327T401 238Q401 159 366 121T270 83Q234 83 208 96T162 125V20Q183 7 215 -3T288 -14ZM188 85L66 86V-125Q66 -157 82 -169T133 -182Q150 -182 165 -179T188 -174V85Z" />
<glyph unicode="&#xff;" horiz-adv-x="518" d="M150 113V113Q134 146 113 195T70 310T25 455Q36 466 53 474T90 483Q115 483 131 471T157 430Q182 352 209 276T267 120H271Q289 164 308 223T345 347T375 469Q387 475 399 479T427 483Q452 483 470 472T488 433Q488
410 480 371T456 283T422 182T381 82T337 -7Q286 -97 244 -143T161 -190Q130 -190 111 -172T88 -127Q110 -108 134 -82T182 -25T221 35Q204 40 187 55T150 113ZM226 870V870Q226 844 208 825T160 806Q132 806 114 825T95 870Q95 897 113 915T160 934Q189 934 207
916T226 870ZM418 870V870Q418 844 400 825T353 806Q325 806 306 825T287 870Q287 897 306 915T353 934Q382 934 400 916T418 870Z" />
<glyph unicode="&#x2013;" horiz-adv-x="537" d="M452 209H50Q46 218 42 230T38 257Q38 283 51 295T85 307H487Q491 300 495 287T499 260Q499 234 487 222T452 209Z" />
<glyph unicode="&#x2014;" horiz-adv-x="771" d="M681 210H55Q51 219 47 231T43 258Q43 285 56 297T90 309H716Q720 301 724 288T728 261Q728 236 716 223T681 210Z" />
<glyph unicode="&#x2018;" horiz-adv-x="171" d="M60 650V650Q68 665 80 672T109 679Q122 679 134 676T156 667Q152 635 147 597T139 520T133 448Q122 443 108 439T77 435Q53 435 36 446T18 485Q18 508 24 540T40 602T60 650Z" />
<glyph unicode="&#x2019;" horiz-adv-x="169" d="M111 466V466Q103 451 92 444T62 436Q49 436 37 439T16 449Q20 481 24 519T32 595T38 666Q49 671 64 675T94 679Q118 679 135 668T153 629Q153 607 147 575T131 513T111 466Z" />
<glyph unicode="&#x201a;" horiz-adv-x="176" d="M111 -57V-57Q103 -72 92 -79T62 -87Q49 -87 37 -84T16 -74Q20 -42 24 -4T32 72T38 143Q49 148 64 152T94 156Q118 156 135 145T153 106Q153 84 147 52T131 -10T111 -57Z" />
<glyph unicode="&#x201c;" horiz-adv-x="331" d="M225 650V650Q234 665 244 672T272 679Q285 679 295 676T316 667Q312 636 307 597T299 519T293 447Q281 443 268 439T239 435Q214 435 199 446T184 485Q184 508 190 540T206 602T225 650ZM59 650V650Q67 665 77
672T106 679Q119 679 129 676T149 667Q146 636 141 597T132 519T126 447Q115 443 102 439T73 435Q48 435 33 446T17 485Q17 508 23 540T39 602T59 650Z" />
<glyph unicode="&#x201d;" horiz-adv-x="331" d="M106 466V466Q97 451 87 444T59 436Q46 436 36 439T16 448Q20 480 24 518T32 596T38 667Q49 672 62 675T91 679Q116 679 131 668T147 629Q147 607 141 575T125 513T106 466ZM272 466V466Q264 451 254 444T225 436Q212
436 202 439T182 448Q186 480 190 518T199 596T204 667Q215 672 228 675T258 679Q282 679 297 668T313 629Q313 607 307 575T292 513T272 466Z" />
<glyph unicode="&#x201e;" horiz-adv-x="336" d="M106 -57V-57Q97 -72 87 -79T59 -87Q46 -87 36 -84T16 -75Q20 -43 24 -5T32 73T38 144Q49 149 62 152T91 156Q116 156 131 145T147 106Q147 84 141 52T125 -10T106 -57ZM272 -57V-57Q264 -72 254 -79T225 -87Q212
-87 202 -84T182 -75Q186 -43 190 -5T199 73T204 144Q215 149 228 152T258 156Q282 156 297 145T313 106Q313 84 307 52T292 -10T272 -57Z" />
<glyph unicode="&#x2022;" horiz-adv-x="286" d="M43 282V282Q43 324 70 353T143 383Q188 383 215 354T243 282Q243 240 216 211T143 182Q97 182 70 211T43 282Z" />
<glyph unicode="&#x2039;" horiz-adv-x="300" d="M132 223L264 88Q264 67 250 49T207 31Q190 31 176 41T149 65L45 176Q40 185 36 197T32 222Q32 245 38 258T53 281L199 428Q227 421 241 406T256 373Q256 356 249 344T220 310L132 223Z" />
<glyph unicode="&#x203a;" horiz-adv-x="300" d="M167 236L36 371Q36 393 50 410T92 428Q110 428 124 418T151 394L256 283Q261 274 264 262T268 237Q268 214 262 201T246 178L100 31Q73 39 59 53T45 86Q45 103 52 115T80 149L167 236Z" />
</font>
</defs>
</svg>
