<?xml version="1.0" standalone="no"?>
<!DOCTYPE svg PUBLIC "-//W3C//DTD SVG 1.1//EN" "http://www.w3.org/Graphics/SVG/1.1/DTD/svg11.dtd">
<svg xmlns="http://www.w3.org/2000/svg">
<defs >
<font id="BalooBhaina2" horiz-adv-x="556" ><font-face
    font-family="Baloo Bhaina 2 Medium"
    units-per-em="1000"
    panose-1="0 0 0 0 0 0 0 0 0 0"
    ascent="1185"
    descent="-827"
    alphabetic="0" />
<glyph unicode=" " horiz-adv-x="200" />
<glyph unicode="!" horiz-adv-x="261" d="M180 624V624Q180 602 180 564T178 477T175 378T171 280T167 197Q161 192 150 189T127 186Q111 186 99 193T85 215Q83 239 82 281T79 376T76 481T75 582T74 660Q100 676 130 676Q180 676 180 624ZM63 52V52Q63 80 80 98T128
117Q159 117 176 99T193 52Q193 25 176 6T128 -13Q98 -13 81 6T63 52Z" />
<glyph unicode="&quot;" horiz-adv-x="301" d="M114 457V457Q106 454 97 453T77 451Q59 451 49 458T37 483L30 663Q39 669 51 672T78 676Q100 676 111 666T123 632Q123 615 122 583T118 516T114 457ZM262 457V457Q254 454 245 453T224 451Q206 451 196 458T185
483L177 663Q187 669 199 672T226 676Q248 676 259 666T271 631Q271 615 270 583T266 516T262 457Z" />
<glyph unicode="#" horiz-adv-x="679" d="M575 154H49Q46 161 43 170T40 191Q40 213 50 222T79 232H605Q608 225 611 216T614 194Q614 174 604 164T575 154ZM604 386H78Q75 393 72 402T68 424Q68 445 79 455T108 465H635Q638 458 641 448T644 427Q644 406 634
396T604 386ZM316 511L207 -2Q200 -4 193 -4T177 -5Q155 -5 143 5T130 37Q130 50 134 68T141 99L249 612Q257 613 265 613T280 614Q302 614 314 605T327 573Q327 560 323 543T316 511ZM538 511L429 -2Q422 -4 415 -4T399 -5Q377 -5 365 5T352 37Q352 50 356 68T362
99L471 612Q479 613 487 613T502 614Q524 614 536 605T549 573Q549 560 545 543T538 511Z" />
<glyph unicode="$" horiz-adv-x="531" d="M218 52H308V-70Q303 -72 292 -74T268 -76Q243 -76 231 -66T218 -34V52ZM308 575H218V714Q224 717 234 718T258 720Q283 720 295 710T308 678V575ZM257 89V89Q320 89 351 116T382 185Q382 221 358 244T283 283L207 306Q161
321 127 342T75 394T56 471Q56 549 114 594T271 640Q326 640 369 629T437 599T462 556Q462 540 454 528T433 508Q408 526 367 540T278 555Q222 555 191 532T160 471Q160 440 182 421T252 388L311 370Q394 346 440 303T487 184Q487 104 428 54T258 4Q197 4 151 17T78
52T52 98Q52 118 64 131T91 151Q116 129 157 109T257 89Z" />
<glyph unicode="%" horiz-adv-x="778" d="M338 528V528Q338 461 297 422T193 382Q132 382 90 421T48 528Q48 595 90 634T193 673Q255 673 296 634T338 528ZM130 528V528Q130 490 148 471T193 451Q221 451 238 470T256 528Q256 564 239 584T193 604Q166 604 148
584T130 528ZM189 76L561 673Q587 670 603 661T620 635Q620 624 615 613T602 589L229 -7Q204 -5 187 6T170 32Q170 42 175 52T189 76ZM730 138V138Q730 71 689 32T585 -8Q524 -8 482 31T440 138Q440 206 482 245T585 284Q647 284 688 245T730 138ZM522 138V138Q522
101 540 81T585 61Q613 61 630 81T648 138Q648 175 631 194T585 214Q558 214 540 195T522 138Z" />
<glyph unicode="&amp;" horiz-adv-x="646" d="M520 106L482 66Q446 28 395 7T279 -15Q208 -15 156 10T76 81T47 187Q47 237 67 275T121 339T197 376L243 307Q219 301 197 286T161 247T147 189Q147 135 182 102T282 68Q315 68 353 82T425 133L454 176Q470 209 478
256T487 359Q499 364 510 367T532 370Q559 370 570 355T582 313Q582 261 566 205T520 106ZM565 -14V-14Q540 -14 516 13L216 323L191 355Q158 389 145 419T131 481Q131 523 150 554T207 604T297 622Q352 622 379 605T407 562Q407 549 401 538T384 519Q370 527 350
532T309 538Q274 538 253 521T232 475Q232 448 247 427T290 376L619 40Q616 16 602 1T565 -14Z" />
<glyph unicode="&apos;" horiz-adv-x="157" d="M118 458V458Q110 455 100 453T78 451Q60 451 50 459T37 484L30 662Q39 668 51 672T80 676Q103 676 115 665T127 630Q127 614 126 582T122 517T118 458Z" />
<glyph unicode="(" horiz-adv-x="265" d="M208 -65V-65Q187 -65 171 -51T139 -13Q98 49 75 133T52 327Q52 437 78 522T139 663Q153 687 170 701T208 715Q225 715 238 705T257 682Q205 612 176 524T147 327Q147 219 173 134T257 -32Q251 -46 238 -55T208 -65Z" />
<glyph unicode=")" horiz-adv-x="265" d="M58 -65V-65Q79 -65 95 -51T127 -13Q168 49 191 133T214 327Q214 437 188 522T127 663Q112 687 96 701T58 715Q40 715 28 705T8 682Q61 612 90 524T119 327Q119 219 93 134T8 -32Q15 -46 27 -55T58 -65Z" />
<glyph unicode="*" horiz-adv-x="311" d="M148 587L172 517L24 565Q20 577 20 589Q20 606 29 615T56 625Q61 625 67 623T80 619L148 587ZM194 556L109 431Q105 430 101 430T94 429Q71 429 60 438T49 463Q49 472 53 479T64 494L111 549L194 556ZM138 532L172 585L269
464Q266 449 255 439T228 429Q214 429 205 438T187 460L138 532ZM127 565L261 635Q272 630 280 620T289 595Q289 580 281 574T260 561L180 524L127 565ZM187 567L125 534L122 686Q127 690 136 694T158 698Q173 698 182 691T192 667Q192 661 191 641T188 599T187
567Z" />
<glyph unicode="+" horiz-adv-x="547" d="M460 255H55Q51 263 49 273T46 295Q46 317 57 327T87 338H492Q495 331 498 321T502 298Q502 277 491 266T460 255ZM322 482V67Q314 64 303 62T279 60Q254 60 242 70T229 108V522Q237 525 248 527T274 530Q298 530 310
520T322 482Z" />
<glyph unicode="," horiz-adv-x="170" d="M88 -89V-89Q68 -119 38 -119Q11 -119 -8 -100Q3 -71 14 -34T35 42T51 110Q61 115 74 118T101 122Q123 122 136 112T149 78Q149 55 139 22T114 -42T88 -89Z" />
<glyph unicode="-" horiz-adv-x="380" d="M291 218H58Q54 226 51 236T48 258Q48 280 59 290T90 301H322Q325 294 328 284T332 261Q332 240 321 229T291 218Z" />
<glyph unicode="." horiz-adv-x="165" d="M18 52V52Q18 80 35 99T83 118Q114 118 131 99T148 52Q148 24 131 5T83 -14Q53 -14 36 5T18 52Z" />
<glyph unicode="/" horiz-adv-x="314" d="M283 643L101 -63Q93 -64 86 -64T69 -65Q45 -65 33 -54T20 -20Q20 -5 24 12T32 42L215 748Q223 749 231 749T246 750Q269 750 282 740T296 706Q296 691 292 675T283 643Z" />
<glyph unicode="0" horiz-adv-x="590" d="M443 308V308Q443 394 423 446T370 524T295 549Q254 549 221 524T167 445T147 308Q147 191 186 129T295 66Q366 66 404 128T443 308ZM295 -14V-14Q223 -14 168 21T81 128T50 308Q50 422 84 492T174 596T295 629Q360 629
416 596T506 492T540 308Q540 201 509 130T423 22T295 -14Z" />
<glyph unicode="1" horiz-adv-x="363" d="M267 212H172V523L47 468Q33 473 24 484T14 514Q14 547 56 565L193 623H216Q240 623 253 609T267 570V212ZM172 267H267V0Q262 -3 250 -5T224 -8Q198 -8 185 2T172 36V267Z" />
<glyph unicode="2" horiz-adv-x="514" d="M58 548V548Q58 569 81 587T143 617T231 629Q298 629 346 607T419 544T445 450Q445 394 415 342T312 223L152 78H443Q447 72 450 62T454 40Q454 21 445 11T418 0H62Q51 9 44 21T37 49Q37 67 44 82T65 109L241 275Q301
331 324 369T348 448Q348 493 317 520T224 548Q180 548 146 534T88 503Q77 508 68 519T58 548Z" />
<glyph unicode="3" horiz-adv-x="512" d="M221 629V629Q320 629 380 586T440 459Q440 421 424 393T386 348T344 324Q371 316 397 296T440 246T458 172Q458 112 428 71T346 9T224 -12Q166 -12 123 0T55 31T30 72Q30 89 39 100T61 119Q86 100 123 84T220 68Q285
68 323 95T362 176Q362 224 327 253T223 282H137Q132 289 129 299T126 321Q126 335 129 345T137 361H217Q285 361 315 387T345 455Q345 501 311 525T216 549Q169 549 133 535T73 505Q62 512 53 523T44 551Q44 572 67 589T130 618T221 629Z" />
<glyph unicode="4" horiz-adv-x="563" d="M35 237L320 615Q331 618 345 620T370 622Q387 622 402 617T426 600T435 566V224H533Q537 218 540 208T544 186Q544 167 535 156T508 145H435V-1Q430 -2 419 -5T394 -8Q369 -8 356 1T343 33V145H59Q46 152 37 166T28 200Q28
211 30 220T35 237ZM345 224L346 523H344L135 224H345Z" />
<glyph unicode="5" horiz-adv-x="538" d="M211 616L183 549L168 367Q185 376 214 384T277 392Q340 392 387 369T463 301T491 193Q491 135 464 88T386 14T257 -14Q200 -14 156 -1T87 32T62 74Q62 91 73 104T98 124Q121 104 160 85T256 65Q323 65 359 101T395 193Q395
250 359 281T261 313Q226 313 199 303T146 279Q115 281 97 297T78 341Q78 347 78 356T80 374L96 562Q98 587 112 601T150 616H211ZM164 535V616H457Q461 610 464 600T468 578Q468 558 459 547T431 535H164Z" />
<glyph unicode="6" horiz-adv-x="555" d="M464 564V564Q464 550 457 538T438 520Q416 532 388 540T327 548Q277 548 237 525T173 454T146 332Q166 351 207 372T305 393Q395 393 452 342T509 191Q509 130 483 84T407 12T290 -14Q220 -14 166 18T81 116T50 289Q50
383 72 448T133 552T221 610T322 629Q361 629 393 621T444 599T464 564ZM290 65V65Q345 65 379 99T413 193Q413 253 378 284T291 315Q241 315 204 294T144 242L147 243Q147 162 185 114T290 65Z" />
<glyph unicode="7" horiz-adv-x="466" d="M59 616H422Q434 609 441 597T448 569Q448 547 437 523L189 -5Q183 -6 176 -6T162 -6Q138 -6 122 5T106 37Q106 51 111 65T127 97L341 535H34Q31 542 27 552T23 574Q23 593 33 604T59 616Z" />
<glyph unicode="8" horiz-adv-x="570" d="M210 334L271 347Q340 360 374 386T409 457Q409 502 376 527T286 552Q231 552 197 526T163 457Q163 422 182 400T233 367T306 352L359 333Q399 324 435 304T495 249T518 163Q518 108 489 68T407 7T286 -14Q215 -14 163
7T82 68T53 165Q53 215 76 250T135 306T210 334ZM362 311L289 293Q225 283 187 251T149 166Q149 118 185 91T286 63Q348 63 385 90T423 167Q423 223 376 255T249 293L199 311Q139 327 104 364T68 459Q68 512 95 550T172 608T286 629Q387 629 445 584T504 458Q504
396 463 360T362 311Z" />
<glyph unicode="9" d="M79 54V54Q79 67 86 79T104 98Q125 86 156 77T226 67Q278 67 319 88T385 157T410 282Q401 271 381 258T330 234T261 224Q204 224 155 244T77 307T47 421Q47 485 75 531T153 603T265 629Q337 629 391 597T475 497T506 326Q506 205 472 130T376
20T232 -14Q167 -14 123 4T79 54ZM277 301V301Q324 301 360 324T410 376L409 368Q409 453 372 501T265 549Q212 549 178 516T143 424Q143 360 182 331T277 301Z" />
<glyph unicode=":" horiz-adv-x="206" d="M40 393V393Q40 421 57 440T104 459Q135 459 152 440T170 393Q170 365 153 346T104 327Q75 327 58 346T40 393ZM38 52V52Q38 80 55 99T103 118Q133 118 150 99T168 52Q168 24 151 5T103 -14Q72 -14 55 5T38 52Z" />
<glyph unicode=";" horiz-adv-x="218" d="M44 393V393Q44 421 61 440T109 459Q139 459 156 440T174 393Q174 365 157 346T109 327Q78 327 61 346T44 393ZM107 -89V-89Q87 -119 57 -119Q30 -119 11 -100Q22 -71 33 -34T54 42T70 110Q80 115 93 118T120 122Q142
122 155 112T168 78Q168 55 158 22T133 -42T107 -89Z" />
<glyph unicode="&lt;" horiz-adv-x="477" d="M147 295L444 144Q446 139 446 134T446 124Q446 104 435 90T399 75Q388 75 377 80T350 93L62 247Q48 267 48 295Q48 316 55 329T73 348L398 514Q423 506 433 493T444 465Q444 444 432 432T399 407L147 295Z" />
<glyph unicode="=" horiz-adv-x="516" d="M427 356H56Q52 363 49 373T46 395Q46 417 57 427T88 438H460Q463 431 466 421T469 398Q469 377 458 367T427 356ZM427 152H56Q52 159 49 169T46 191Q46 213 57 223T88 234H460Q463 227 466 217T469 194Q469 173 458 163T427
152Z" />
<glyph unicode="&gt;" horiz-adv-x="468" d="M323 299L33 446Q32 451 32 456T32 467Q32 486 43 500T78 515Q89 515 101 510T127 498L408 344Q422 325 422 296Q422 275 416 263T397 243L81 78Q56 85 46 98T35 127Q35 148 47 160T79 184L323 299Z" />
<glyph unicode="?" horiz-adv-x="468" d="M220 238L123 207Q111 216 103 231T94 263Q94 281 104 291T137 308L203 329Q264 349 294 381T325 469Q325 517 292 552T188 588Q151 588 116 576T54 540Q42 549 34 561T26 590Q26 614 48 633T108 664T196 676Q269 676
321 650T401 577T429 469Q429 408 406 364T337 290T220 238ZM104 52V52Q104 80 121 98T169 117Q200 117 217 99T234 52Q234 25 217 7T169 -12Q139 -12 122 6T104 52Z" />
<glyph unicode="@" horiz-adv-x="1017" d="M405 200V200Q405 142 434 112T513 82Q548 82 574 97T624 143L643 54Q621 31 585 16T498 0Q410 0 356 52T301 199Q301 272 331 324T413 404T537 432Q578 432 612 423T672 400Q712 378 712 346Q712 340 712 333T710 319L683
58H586L613 333Q599 340 579 345T533 350Q477 350 441 311T405 200ZM616 35V35Q620 53 628 68T648 91T674 100Q684 93 700 85T738 77Q798 77 829 131T860 270Q860 360 819 428T703 535T528 574Q415 574 331 528T200 398T153 204Q153 99 196 22T315 -98T492 -140Q531
-140 560 -136T610 -126Q616 -134 620 -144T624 -164Q624 -182 612 -195T569 -215T484 -222Q412 -222 347 -204T228 -151T135 -64T75 55T54 204Q54 307 88 390T185 532T334 623T527 655Q626 655 706 628T842 549T929 427T959 269Q959 139 903 67T738 -5Q707 -5
674 5T616 35Z" />
<glyph unicode="A" horiz-adv-x="601" d="M304 524H299Q286 485 268 434T230 327T194 222L185 182Q179 164 171 139T155 88T138 38T126 -1Q117 -4 108 -6T84 -9Q60 -9 44 2T28 35Q28 45 31 55T39 79Q50 113 67 162T105 270T148 387T190 502T227 598Q237 603 258
608T300 614Q328 614 351 606T381 579Q404 523 429 451T481 300T532 148T575 14Q567 4 552 -2T519 -8Q492 -8 480 2T460 36L413 182L402 229Q384 285 366 340T331 443T304 524ZM137 153L174 237H438L455 153H137Z" />
<glyph unicode="B" horiz-adv-x="604" d="M410 354V274H152V354H410ZM308 274L333 335Q406 335 454 314T527 255T551 171Q551 78 484 33T291 -12Q265 -12 237 -11T181 -5T128 7Q83 21 83 60V560Q83 578 92 587T119 602Q153 612 194 616T282 620Q399 620 463 579T528
453Q528 409 505 374T434 319T310 299L301 354Q362 354 392 378T422 448Q422 492 387 514T283 537Q254 537 230 535T186 529V82Q207 77 236 75T294 72Q367 72 405 97T444 174Q444 221 410 247T308 274Z" />
<glyph unicode="C" horiz-adv-x="584" d="M535 535V535Q535 519 526 507T503 487Q478 505 444 520T358 535Q300 535 255 509T183 431T157 303Q157 189 213 131T363 73Q412 73 448 87T510 119Q522 112 531 100T540 70Q540 56 533 45T509 23Q487 9 449 -2T352 -14Q268
-14 199 21T90 126T49 303Q49 408 90 479T199 586T347 622Q404 622 446 610T511 577T535 535Z" />
<glyph unicode="D" horiz-adv-x="656" d="M499 309V309Q499 193 443 134T283 74Q258 74 233 76T187 83V527Q206 530 227 532T276 534Q339 534 389 511T469 438T499 309ZM606 309V309Q606 414 564 482T448 585T274 620Q235 620 194 617T119 602Q102 597 93 588T83
561V59Q83 21 128 6Q165 -6 208 -9T283 -12Q381 -12 453 23T566 129T606 309Z" />
<glyph unicode="E" horiz-adv-x="535" d="M83 385H186V8Q181 6 168 3T139 -1Q114 -1 99 15T83 56V385ZM186 226L83 227V551Q83 577 98 592T139 608Q154 608 167 605T186 599V226ZM139 269V354H441Q445 348 448 337T452 313Q452 292 442 281T414 269H139ZM139 -1V85H476Q480
79 483 68T487 44Q487 23 477 11T449 -1H139ZM139 522V608H471Q475 602 478 591T482 567Q482 546 472 534T444 522H139Z" />
<glyph unicode="F" horiz-adv-x="521" d="M187 247L83 248V551Q83 577 98 592T139 608Q154 608 167 605T187 599V247ZM139 250V337H437Q441 330 444 320T448 296Q448 275 438 263T410 250H139ZM139 521V608H472Q476 602 479 591T483 567Q483 545 473 533T444 521H139ZM83
340H188V1Q182 0 169 -3T140 -6Q111 -6 97 5T83 42V340Z" />
<glyph unicode="G" horiz-adv-x="645" d="M581 291V77Q581 56 571 43T538 18Q512 5 466 -4T373 -14Q279 -14 206 19T91 123T49 303Q49 409 92 480T206 586T363 622Q422 622 466 610T534 578T558 536Q558 520 549 507T527 488Q501 505 464 520T370 535Q310 535
262 509T185 430T157 303Q157 224 185 173T263 98T374 73Q407 73 435 78T479 92V254H339Q335 260 332 271T328 294Q328 316 338 327T366 338H533Q554 338 567 326T581 291Z" />
<glyph unicode="H" horiz-adv-x="659" d="M83 382H188V2Q181 0 168 -3T140 -6Q110 -6 97 5T83 43V382ZM188 274H83V607Q90 609 103 611T132 614Q161 614 174 604T188 566V274ZM470 382H576V2Q568 0 555 -3T527 -6Q497 -6 484 5T470 43V382ZM576 274H470V607Q477
609 491 611T519 614Q548 614 562 603T576 565V274ZM528 264H139V350H528V264Z" />
<glyph unicode="I" horiz-adv-x="273" d="M84 383H188V2Q182 0 169 -3T140 -6Q111 -6 98 5T84 43V383ZM188 275H84V607Q91 609 104 611T133 614Q162 614 175 604T188 566V275Z" />
<glyph unicode="J" horiz-adv-x="392" d="M205 289H310V156Q310 96 287 59T226 5T138 -12Q83 -12 54 3T24 47Q24 63 30 74T42 91Q58 85 77 80T117 75Q161 75 183 96T205 165V289ZM310 252H205V607Q212 609 225 611T253 614Q282 614 296 604T310 566V252Z" />
<glyph unicode="K" horiz-adv-x="578" d="M153 314L251 348Q350 250 423 173T545 50Q544 23 528 8T489 -8Q466 -8 449 4T416 34L153 314ZM260 278L142 287L447 612Q483 611 500 596T517 560Q517 544 509 530T483 499L260 278ZM83 386H188V1Q181 -1 168 -3T140
-6Q110 -6 97 5T83 42V386ZM188 278H83V607Q90 609 103 611T132 614Q161 614 174 604T188 566V278Z" />
<glyph unicode="L" horiz-adv-x="504" d="M83 377H188V8L139 -1Q114 -1 99 15T83 56V377ZM139 -1V87H461Q466 81 470 70T474 45Q474 23 463 11T434 -1H139ZM188 274H83V607Q90 609 103 611T132 614Q161 614 174 604T188 566V274Z" />
<glyph unicode="M" horiz-adv-x="784" d="M447 156V156Q439 150 425 145T394 140Q373 140 358 146T337 166Q290 272 256 355T202 495H197Q194 424 191 363T185 245T179 129T172 1Q164 -1 152 -3T126 -6Q98 -6 85 4T72 36Q72 51 74 94T80 199T88 328T98 464T108
586Q116 594 134 602T179 611Q209 611 228 600T258 566Q281 519 304 464T349 352T391 247H396Q435 347 473 440T539 599Q550 604 566 607T599 611Q628 611 646 602T668 573Q672 555 677 514T687 418T696 303T705 186T713 82T717 7Q706 0 694 -3T665 -6Q645 -6 630
2T612 36Q607 127 602 213T594 372T588 492H584Q565 441 532 362T447 156Z" />
<glyph unicode="N" horiz-adv-x="665" d="M83 504L174 509Q178 474 181 432T185 348T186 266V2Q180 0 167 -3T139 -6Q110 -6 97 5T83 41V504ZM582 104L490 100Q481 180 480 260T478 416V607Q486 609 499 611T526 614Q555 614 568 604T582 567V104ZM582 140V175V14Q572
5 555 0T515 -6Q488 -6 467 3T430 43L263 333Q249 359 234 388T204 444T181 491L83 468V591Q93 602 111 608T150 614Q177 614 198 604T235 565L403 275Q418 250 433 221T461 164T484 117L582 140Z" />
<glyph unicode="O" horiz-adv-x="693" d="M643 304V304Q643 200 604 129T498 22T346 -14Q262 -14 195 22T88 129T49 304Q49 408 89 479T196 586T346 622Q430 622 497 586T603 479T643 304ZM535 304V304Q535 416 484 475T346 535Q261 535 209 476T157 304Q157 192
208 133T346 73Q433 73 484 132T535 304Z" />
<glyph unicode="P" horiz-adv-x="571" d="M187 295H272Q342 295 381 325T421 416Q421 477 384 505T275 534Q251 534 229 532T187 527V295ZM279 210H83V560Q83 578 92 587T119 602Q149 611 192 615T273 620Q403 620 465 565T527 417Q527 354 499 308T416 236T279
210ZM83 258H188V2Q181 0 168 -3T140 -6Q110 -6 97 5T83 43V258Z" />
<glyph unicode="Q" horiz-adv-x="694" d="M331 2L434 28Q489 -3 528 -22T601 -54T670 -79Q671 -86 671 -90T671 -99Q671 -128 655 -143T612 -158Q576 -158 525 -131T412 -58L331 2ZM643 304V304Q643 200 604 130T498 23T346 -14Q262 -14 195 22T88 129T49 304Q49
408 89 479T196 586T346 622Q430 622 497 586T603 479T643 304ZM535 304V304Q535 416 484 475T346 535Q261 535 209 476T157 304Q157 192 208 133T346 73Q433 73 484 132T535 304Z" />
<glyph unicode="R" horiz-adv-x="594" d="M187 306H286Q352 306 390 335T428 420Q428 476 389 505T275 534Q252 534 229 532T187 526V306ZM290 222H83V560Q83 578 92 587T119 602Q149 611 192 615T278 620Q406 620 470 567T534 421Q534 361 505 316T422 247T290
222ZM283 251L367 281Q394 248 422 212T476 143T523 82T556 38Q550 17 534 5T498 -8Q474 -8 461 3T433 34L283 251ZM83 255H188V2Q181 0 168 -3T140 -6Q110 -6 97 5T83 43V255Z" />
<glyph unicode="S" horiz-adv-x="530" d="M256 72V72Q318 72 349 99T380 167Q380 203 356 226T282 264L206 287Q160 301 126 322T73 375T54 452Q54 531 112 576T270 622Q325 622 368 611T436 580T461 537Q461 521 453 509T432 488Q408 507 367 521T277 535Q223
535 192 513T161 452Q161 422 183 404T252 371L311 353Q394 329 440 286T487 167Q487 86 427 36T257 -14Q196 -14 150 -1T77 34T51 81Q51 101 63 114T90 135Q115 113 156 93T256 72Z" />
<glyph unicode="T" horiz-adv-x="531" d="M242 521L238 608H496Q500 602 504 591T508 567Q508 545 498 533T469 521H242ZM290 608L293 521H35Q31 527 27 538T23 563Q23 585 33 596T62 608H290ZM213 548H317V2Q311 0 297 -3T269 -6Q240 -6 227 5T213 43V548Z" />
<glyph unicode="U" horiz-adv-x="653" d="M326 -14V-14Q249 -14 194 14T111 93T82 213V290H186V219Q186 147 226 110T326 73Q386 73 426 110T466 219V290H571V213Q571 145 543 94T459 14T326 -14ZM186 252H82V607Q88 609 102 611T130 614Q159 614 172 604T186
566V252ZM571 252H466V607Q473 609 486 611T515 614Q544 614 557 604T571 566V252Z" />
<glyph unicode="V" horiz-adv-x="596" d="M367 11V11Q360 5 342 0T303 -6Q278 -6 260 1T234 22Q219 52 198 102T153 216T106 345T62 474T28 587Q36 597 51 605T86 613Q109 613 121 602T142 568Q181 446 219 331T302 98H306Q332 171 360 255T416 428T464 602Q474
608 485 610T511 613Q534 613 548 602T563 568Q563 552 553 511T524 414T484 298T440 180T399 78T367 11Z" />
<glyph unicode="W" horiz-adv-x="818" d="M356 457V457Q364 462 379 465T410 469Q435 469 452 461T474 438Q497 370 515 313T550 202T584 90H588Q605 178 621 260T651 426T679 603Q699 613 724 613Q747 613 762 603T777 570Q777 550 772 512T758 422T737 314T712
201T686 97T660 14Q649 7 630 2T589 -4Q561 -4 542 4T516 27Q504 60 487 111T450 224T413 347Q397 287 378 223T341 104T309 14Q300 7 282 2T241 -4Q214 -4 194 5T167 27Q157 52 143 100T114 212T83 344T56 476T36 590Q44 599 59 606T93 613Q116 613 129 603T147
567Q161 495 172 434T195 317T217 206T242 90H247Q259 134 271 173T295 254T322 344T356 457Z" />
<glyph unicode="X" horiz-adv-x="594" d="M263 283L243 289L43 564Q49 583 64 598T106 614Q125 614 139 603T167 571L319 349L348 328L553 42Q548 20 533 7T492 -7Q473 -7 460 2T432 34L263 283ZM346 291L317 268L124 -5Q119 -6 113 -6T102 -7Q73 -7 57 6T41 40Q41
57 49 71T70 102L243 327L283 361L459 609Q465 610 472 611T488 612Q515 612 529 599T543 567Q543 553 536 539T516 509Q475 455 433 401T346 291Z" />
<glyph unicode="Y" d="M330 211H237Q210 251 180 298T119 394T63 490T17 577Q23 590 37 601T73 613Q97 613 111 602T139 564Q148 547 163 521T194 465T228 405T258 350T281 310H286Q317 364 342 412T391 507T440 603Q449 608 461 610T483 613Q506 613 519 602T533
569Q533 558 520 529T480 454T417 347T330 211ZM232 255H335V2Q329 0 316 -3T288 -6Q258 -6 245 5T232 42V255Z" />
<glyph unicode="Z" horiz-adv-x="558" d="M73 114L446 608H482Q507 587 507 556Q507 539 500 525T481 494L110 0H70Q60 9 53 22T46 52Q46 69 53 84T73 114ZM91 0L116 88H502Q507 81 510 70T514 45Q514 24 504 12T476 0H91ZM460 608L440 521H66Q62 528 58 539T54
563Q54 585 64 596T93 608H460Z" />
<glyph unicode="[" horiz-adv-x="276" d="M64 1V643H156V1H64ZM64 18H259Q262 11 264 2T267 -19Q267 -40 257 -49T228 -59H113Q89 -59 77 -46T64 -11V18ZM113 708H259Q262 701 264 692T267 671Q267 650 257 641T228 631H64V660Q64 681 76 694T113 708Z" />
<glyph unicode="\" horiz-adv-x="346" d="M126 633L312 -39Q303 -48 288 -55T258 -62Q242 -62 230 -55T213 -29L27 644Q37 653 52 659T81 666Q97 666 109 659T126 633Z" />
<glyph unicode="]" horiz-adv-x="280" d="M212 649V6H120V649H212ZM212 631H18Q14 638 12 647T9 668Q9 688 19 698T48 708H163Q188 708 200 695T212 660V631ZM163 -59H18Q14 -52 12 -43T9 -22Q9 -2 19 8T48 18H212V-11Q212 -32 200 -45T163 -59Z" />
<glyph unicode="^" horiz-adv-x="469" d="M184 645V645Q191 651 204 654T233 658Q274 658 284 638Q298 615 316 578T355 498T392 415T420 343Q413 335 401 328T373 321Q353 321 342 329T321 361L234 562H228Q223 549 212 523T187 464T160 396T137 331Q128 326
117 323T93 320Q75 320 62 328T49 357Q49 368 60 396T89 462T126 537T161 604T184 645Z" />
<glyph unicode="_" horiz-adv-x="476" d="M435 -139H9Q6 -132 3 -122T0 -100Q0 -78 11 -68T42 -57H467Q470 -64 473 -74T476 -97Q476 -118 465 -128T435 -139Z" />
<glyph unicode="`" horiz-adv-x="302" d="M144 540L49 637Q48 641 48 645T47 653Q47 674 60 686T94 699Q107 699 118 694T138 677L228 565Q226 544 214 533T186 521Q172 521 163 526T144 540Z" />
<glyph unicode="a" horiz-adv-x="510" d="M245 66V66Q281 66 306 73T344 88V217L233 206Q187 202 164 186T140 137Q140 104 166 85T245 66ZM242 482V482Q335 482 389 442T444 314V81Q444 58 434 45T406 22Q380 7 339 -3T245 -14Q148 -14 94 23T39 134Q39 200 82
235T204 278L344 292V315Q344 360 315 380T236 400Q196 400 159 389T92 364Q83 372 76 383T69 408Q69 439 103 455Q131 468 167 475T242 482Z" />
<glyph unicode="b" horiz-adv-x="559" d="M291 482V482Q354 482 405 455T485 373T514 235Q514 151 484 96T399 14T272 -14Q219 -14 178 -1T110 28Q89 43 80 57T71 93V420H174V96Q188 87 213 78T272 69Q334 69 372 109T410 235Q410 320 372 359T274 399Q237 399
208 385T160 352L148 435Q171 451 206 466T291 482ZM174 398H71V649Q78 651 91 654T119 657Q147 657 160 647T174 610V398Z" />
<glyph unicode="c" horiz-adv-x="481" d="M298 398V398Q235 398 192 356T149 233Q149 154 190 112T298 70Q337 70 364 80T411 104Q424 96 432 85T440 59Q440 28 399 8T293 -13Q220 -13 164 14T77 96T45 233Q45 316 78 371T167 454T290 482Q354 482 394 460T435
407Q435 393 428 382T409 364Q388 378 362 388T298 398Z" />
<glyph unicode="d" horiz-adv-x="557" d="M383 92V417H486V84Q486 63 477 50T448 25Q426 11 387 -1T297 -14Q221 -14 165 12T77 92T45 232Q45 319 76 374T161 455T279 482Q317 482 350 472T402 447V357Q384 374 356 386T291 399Q252 399 220 383T168 329T149 231Q149
147 189 108T296 69Q327 69 347 76T383 92ZM486 394H383V649Q390 651 403 654T430 657Q459 657 472 647T486 610V394Z" />
<glyph unicode="e" horiz-adv-x="527" d="M112 177L107 252L391 292Q388 339 358 370T273 402Q217 402 180 362T142 248L144 210Q152 139 195 104T308 68Q350 68 385 81T441 109Q453 102 460 90T468 64Q468 42 446 24T387 -4T302 -14Q225 -14 167 14T77 99T45
238Q45 297 62 342T111 419T184 466T274 482Q337 482 385 456T461 382T488 275Q488 250 476 239T442 224L112 177Z" />
<glyph unicode="f" horiz-adv-x="407" d="M154 358V439H360Q364 434 367 423T371 399Q371 378 362 368T334 358H154ZM171 494V371H71V499Q71 560 95 598T162 654T262 672Q323 672 356 656T389 612Q389 599 384 588T370 569Q352 578 327 583T275 589Q219 589 195
567T171 494ZM71 410H174V2Q167 0 155 -3T127 -6Q99 -6 85 5T71 41V410Z" />
<glyph unicode="g" horiz-adv-x="544" d="M264 16V16Q205 16 156 38T76 112T46 248Q46 325 76 377T159 455T283 482Q332 482 373 470T440 440Q456 429 466 415T476 381V71H375V375Q360 384 338 391T285 399Q224 399 187 362T149 249Q149 165 186 131T278 97Q319
97 344 111T385 141L390 55Q373 40 341 28T264 16ZM376 -8V93H476V-13Q476 -80 446 -121T365 -182T249 -201Q198 -201 161 -191T108 -171Q76 -152 76 -122Q76 -105 83 -94T101 -76Q124 -92 162 -104T243 -117Q307 -117 341 -91T376 -8Z" />
<glyph unicode="h" horiz-adv-x="560" d="M490 201H388V292Q388 347 358 373T280 399Q243 399 212 385T160 352L149 435Q172 451 210 466T296 482Q383 482 436 436T490 296V201ZM71 264H174V2Q167 0 155 -3T127 -6Q99 -6 85 5T71 41V264ZM388 263H490V2Q484 0
471 -3T443 -6Q415 -6 402 5T388 41V263ZM174 213H71V649Q78 651 91 654T119 657Q147 657 160 647T174 610V213Z" />
<glyph unicode="i" horiz-adv-x="251" d="M63 611V611Q63 637 81 654T125 671Q153 671 170 654T187 611Q187 586 170 569T125 551Q99 551 81 568T63 611ZM74 264H177V2Q170 0 158 -3T130 -6Q102 -6 88 5T74 41V264ZM177 213H74V465Q81 467 94 469T122 472Q150
472 163 462T177 425V213Z" />
<glyph unicode="j" horiz-adv-x="254" d="M3 -135V-135Q27 -124 43 -111T69 -77T78 -21V285H180V-36Q180 -96 160 -130T113 -180T61 -195Q32 -195 19 -178T3 -135ZM65 611V611Q65 637 83 654T128 671Q155 671 172 654T189 611Q189 586 172 569T128 551Q101 551
83 568T65 611ZM180 204L78 213V465Q84 467 97 469T125 472Q153 472 166 462T180 425V204Z" />
<glyph unicode="k" horiz-adv-x="504" d="M222 205L154 253L381 477Q412 476 430 463T448 427Q448 409 437 395T402 362L222 205ZM154 238L231 277L474 54Q471 26 457 10T418 -7Q399 -7 383 3T350 32L154 238ZM71 267L174 258V2Q167 0 155 -3T127 -6Q99 -6 85
5T71 41V267ZM174 207L71 216V649Q78 651 91 654T119 657Q147 657 160 647T174 610V207Z" />
<glyph unicode="l" horiz-adv-x="256" d="M77 264L179 255V2Q173 0 160 -3T132 -6Q104 -6 91 5T77 41V264ZM179 204L77 213V649Q83 651 96 654T123 657Q152 657 165 647T179 610V204Z" />
<glyph unicode="m" horiz-adv-x="824" d="M463 324V209H361V313Q361 358 335 378T268 399Q240 399 215 390T172 370V209H69V372Q69 394 78 409T109 437Q137 456 181 469T270 482Q320 482 360 467T423 423Q430 417 435 412T444 398Q452 384 457 365T463 324ZM754
318V209H652V313Q652 358 627 378T560 399Q529 399 501 386T450 351L402 418Q431 444 473 463T571 482Q624 482 665 465T730 411T754 318ZM69 260H172V2Q165 0 153 -3T125 -6Q97 -6 83 5T69 41V260ZM361 260H463V2Q457 0 444 -3T416 -6Q388 -6 375 5T361 41V260ZM652
260H754V2Q748 0 735 -3T708 -6Q679 -6 666 5T652 41V260Z" />
<glyph unicode="n" horiz-adv-x="558" d="M489 307V208H386V303Q386 353 358 376T283 399Q248 399 220 390T172 370V208H69V372Q69 395 78 409T109 437Q137 454 182 468T283 482Q380 482 434 439T489 307ZM69 260H172V2Q165 0 153 -3T125 -6Q97 -6 83 5T69 41V260ZM386
260H489V2Q482 0 469 -3T442 -6Q413 -6 400 5T386 41V260Z" />
<glyph unicode="o" horiz-adv-x="561" d="M517 234V234Q517 159 488 103T406 17T281 -14Q209 -14 156 16T74 102T45 234Q45 310 74 365T157 451T281 482Q352 482 405 452T487 366T517 234ZM281 399V399Q221 399 186 355T150 234Q150 156 184 113T281 69Q343 69
377 113T412 234Q412 311 377 355T281 399Z" />
<glyph unicode="p" d="M280 -13V-13Q347 -13 399 14T481 97T511 236Q511 322 479 376T392 456T267 482Q216 482 176 470T107 440Q86 427 78 414T69 379V50H172V373Q189 383 212 391T267 399Q305 399 337 383T388 332T407 236Q407 150 369 110T265 70Q226 70 198
83T150 114V23Q169 9 204 -2T280 -13ZM172 80L69 82V-139Q69 -165 83 -176T125 -187Q140 -187 152 -185T172 -179V80Z" />
<glyph unicode="q" d="M487 66L384 67V375Q370 384 348 391T294 399Q253 399 221 382T169 328T149 231Q149 147 188 108T292 69Q325 69 352 80T395 107V18Q376 5 347 -4T277 -14Q210 -14 157 12T75 92T45 231Q45 316 77 371T164 454T292 482Q342 482 383 470T451
440Q467 430 477 416T487 382V66ZM384 83L487 84V-182Q480 -185 467 -187T440 -190Q411 -190 398 -179T384 -142V83Z" />
<glyph unicode="r" horiz-adv-x="389" d="M172 368V221H69V370Q69 394 79 409T111 439Q139 457 184 469T284 481Q371 481 371 432Q371 420 368 410T359 392Q349 394 334 396T302 398Q261 398 228 390T172 368ZM69 264L172 255V2Q165 0 153 -3T125 -6Q97 -6 83
5T69 41V264Z" />
<glyph unicode="s" horiz-adv-x="458" d="M416 129V129Q416 62 367 24T223 -14Q145 -14 95 10T45 68Q45 83 52 95T73 116Q101 98 137 83T220 68Q314 68 314 128Q314 154 298 169T250 193L180 211Q113 226 81 259T49 344Q49 402 96 442T235 482Q282 482 318 473T375
446T396 408Q396 393 389 381T371 363Q359 370 339 379T294 394T241 400Q199 400 175 386T150 344Q150 325 164 311T211 289L270 274Q345 257 380 222T416 129Z" />
<glyph unicode="t" horiz-adv-x="378" d="M71 264H173V136Q173 100 194 85T253 70Q269 70 289 75T322 87Q329 80 334 70T340 46Q340 20 314 4T234 -13Q160 -13 116 20T71 130V264ZM129 376V458H328Q332 452 335 441T339 418Q339 397 330 387T303 376H129ZM173
236H71V597Q77 599 90 602T118 605Q146 605 159 594T173 558V236Z" />
<glyph unicode="u" horiz-adv-x="558" d="M69 175V260H172V178Q172 120 202 95T287 69Q323 69 348 76T386 92V260H489V88Q489 66 482 52T454 25Q429 10 386 -2T286 -14Q219 -14 170 6T95 68T69 175ZM489 210H386V466Q393 468 406 471T433 474Q462 474 475 464T489
426V210ZM172 210H69V466Q76 468 89 471T117 474Q145 474 158 464T172 426V210Z" />
<glyph unicode="v" horiz-adv-x="508" d="M425 477V477Q447 477 461 467T475 434Q475 420 464 383T436 297T397 193T355 90T315 7Q308 1 292 -3T256 -7Q234 -7 217 -1T194 19Q183 40 166 78T130 165T91 266T55 367T28 452Q36 463 51 470T82 477Q104 477 117 467T139
431L195 258Q203 234 214 202T237 139T255 87H259Q294 182 325 278T380 467Q399 477 425 477Z" />
<glyph unicode="w" horiz-adv-x="745" d="M375 326V326Q359 268 340 208T304 96T272 8Q263 1 250 -3T215 -7Q193 -7 175 0T151 21Q141 41 129 79T104 165T78 266T54 367T35 454Q44 463 57 470T90 477Q113 477 125 466T142 427Q152 377 162 325T182 226T201 144T215
91H219Q226 114 241 166T278 286T321 422Q332 429 345 432T375 435Q398 435 413 428T433 405Q455 338 474 275T508 163T529 90H534Q554 176 577 273T615 465Q634 477 660 477Q681 477 694 468T708 436Q708 424 702 393T685 320T662 232T636 142T612 63T591 8Q584
2 568 -2T533 -7Q481 -7 472 18Q459 51 443 101T409 209T375 326Z" />
<glyph unicode="x" horiz-adv-x="492" d="M213 273L232 279Q272 330 307 375T379 474Q384 475 386 475T392 475Q419 475 435 463T451 431Q451 416 445 404T422 372Q391 334 358 295T293 218L261 196Q225 147 188 96T114 -6Q112 -6 107 -6T98 -6Q69 -6 54 7T38
39Q38 51 43 62T66 93Q101 139 139 183T213 273ZM275 268L298 254Q338 201 379 149T460 44Q458 20 444 7T406 -7Q385 -7 371 4T341 37Q313 77 282 121T222 204L199 224Q156 276 117 324T38 422Q43 447 57 461T92 475Q113 475 125 465T150 437Q179 398 210 354T275
268Z" />
<glyph unicode="y" horiz-adv-x="505" d="M159 108V108Q142 141 120 193T74 311T28 452Q36 463 50 470T82 477Q104 477 118 467T140 431Q167 350 197 271T261 108H265Q285 151 306 212T346 340T378 467Q388 471 399 474T422 477Q444 477 458 467T473 435Q473 415
465 377T441 289T406 187T363 82T317 -10Q269 -98 229 -144T152 -190Q124 -190 108 -175T89 -137Q110 -118 136 -90T186 -28T227 36Q210 41 194 55T159 108Z" />
<glyph unicode="z" horiz-adv-x="472" d="M104 0H63Q54 8 48 20T42 45Q42 59 48 72T64 97L365 468H403Q413 459 419 448T425 422Q425 409 419 397T402 371L104 0ZM386 468V386H59Q55 392 52 403T48 427Q48 448 58 458T85 468H386ZM81 0V82H422Q426 76 429 66T433
41Q433 21 423 11T396 0H81Z" />
<glyph unicode="{" horiz-adv-x="294" d="M139 328V328Q171 312 188 279T206 195V69Q206 34 220 20T262 3Q264 -3 264 -9T264 -21Q264 -42 252 -53T217 -64Q172 -64 144 -33T115 60V179Q115 230 97 257T41 291Q37 298 36 308T34 328Q34 337 36 347T41 365Q79 371
97 399T115 476V589Q115 651 144 682T218 713Q241 713 252 703T264 670Q264 664 264 658T262 646Q234 644 220 630T206 580V460Q206 410 189 377T139 328Z" />
<glyph unicode="|" horiz-adv-x="258" d="M174 690V-122Q166 -125 156 -127T132 -129Q108 -129 96 -119T84 -82V730Q92 732 102 734T126 737Q150 737 162 727T174 690Z" />
<glyph unicode="}" horiz-adv-x="294" d="M155 328V328Q123 312 106 279T88 195V69Q88 34 74 20T32 3Q31 -3 30 -9T29 -21Q29 -42 41 -53T77 -64Q122 -64 150 -33T179 60V179Q179 230 197 257T253 291Q257 298 258 308T260 328Q260 337 258 347T253 365Q215 371
197 399T179 476V589Q179 651 150 682T76 713Q53 713 41 703T29 670Q29 664 30 658T32 646Q60 644 74 630T88 580V460Q88 410 105 377T155 328Z" />
<glyph unicode="~" horiz-adv-x="462" d="M315 290V290Q342 290 354 304T374 334Q401 334 420 319T439 277Q439 241 411 220T338 199Q301 199 268 209T205 228T147 238Q120 238 108 224T88 195Q62 195 43 210T23 251Q23 276 37 293T74 320T124 329Q163 329 196
320T259 300T315 290Z" />
<glyph unicode="&#xa0;" horiz-adv-x="200" />
<glyph unicode="&#xa1;" horiz-adv-x="262" d="M82 -165V-165Q82 -143 82 -104T84 -17T87 82T91 180T95 263Q102 269 113 271T135 274Q153 274 164 267T177 245Q179 220 181 178T184 84T186 -21T187 -122T188 -201Q163 -216 132 -216Q82 -216 82 -165ZM199 408V408Q199
380 182 362T134 343Q104 343 87 361T69 408Q69 435 86 453T134 472Q165 472 182 454T199 408Z" />
<glyph unicode="&#xa2;" horiz-adv-x="480" d="M221 38H314V-102Q308 -104 297 -106T273 -108Q248 -108 235 -98T221 -66V38ZM314 416H221V572Q228 574 239 576T263 578Q289 578 301 568T314 535V416ZM298 398V398Q234 398 192 356T149 233Q149 154 190 112T298
70Q337 70 363 80T411 104Q424 96 431 85T439 59Q439 28 398 8T292 -13Q219 -13 163 14T76 96T44 233Q44 316 77 371T167 454T290 482Q354 482 394 460T434 407Q434 393 427 382T407 364Q387 378 362 388T298 398Z" />
<glyph unicode="&#xa3;" horiz-adv-x="504" d="M378 257H88Q73 257 63 266T52 299Q52 311 56 321T63 339H404Q408 331 411 321T414 299Q414 276 405 267T378 257ZM138 222V222Q138 245 135 280T127 352T123 416Q123 489 151 534T227 600T332 622Q398 622 430 601T462
554Q462 543 456 530T438 509Q417 522 396 529T343 537Q284 537 255 506T225 407Q225 381 228 345T235 275T238 220Q238 173 226 140T189 83H464Q468 75 471 65T474 42Q474 21 464 11T438 0H100Q79 0 64 14T49 54Q49 63 50 69Q94 90 116 122T138 222Z" />
<glyph unicode="&#xa4;" horiz-adv-x="535" d="M144 380L210 422L159 485Q148 498 136 509T110 521Q95 521 82 512T59 482L144 380ZM368 296V296Q368 242 340 213T266 184Q221 184 193 213T164 296Q164 350 192 379T266 409Q312 409 340 380T368 296ZM330 424L389
368L439 431Q450 445 457 457T464 483Q464 503 449 513T411 528L330 424ZM459 296V296Q459 357 433 398T363 461T266 483Q213 483 170 462T100 399T74 296Q74 235 100 194T170 131T267 109Q320 109 363 130T433 193T459 296ZM390 208L325 166L375 104Q386 90 398
78T424 66Q440 66 453 76T475 107L390 208ZM207 164L148 219L98 157Q87 143 80 131T72 105Q72 86 88 75T126 59L207 164Z" />
<glyph unicode="&#xa5;" horiz-adv-x="559" d="M367 311L203 309Q172 355 140 405T81 501T36 585Q45 596 58 606T91 616Q113 616 127 605T154 568L281 353H287Q315 401 335 438T376 515T424 605Q435 611 446 613T469 616Q491 616 503 605T516 574Q516 565 505
541T473 482T425 403T367 311ZM230 188H335V1Q328 0 315 -3T287 -6Q258 -6 244 5T230 42V188ZM252 274L271 346H501Q505 339 508 330T511 309Q511 292 502 283T480 274H252ZM301 346L316 274H63Q59 279 56 289T52 310Q52 330 61 338T82 346H301ZM479 137H63Q59
142 56 152T52 173Q52 194 61 201T81 209H500Q503 203 506 193T509 172Q509 155 501 146T479 137Z" />
<glyph unicode="&#xa6;" horiz-adv-x="293" d="M176 635V311Q168 308 157 306T133 304Q108 304 96 314T83 351V675Q92 678 102 680T126 682Q151 682 163 672T176 635ZM176 147V-177Q168 -180 157 -182T133 -184Q108 -184 96 -174T83 -137V187Q92 190 102 192T126
194Q151 194 163 184T176 147Z" />
<glyph unicode="&#xa7;" horiz-adv-x="515" d="M457 86V86Q457 22 404 -14T249 -51Q194 -51 151 -41T83 -11T58 31Q58 47 66 59T86 79Q118 59 158 45T247 30Q301 30 328 44T356 87Q356 111 339 122T281 143L198 160Q135 172 98 203T60 295Q60 347 95 377T182 417L218
373Q192 364 175 345T158 297Q158 274 175 259T225 236L314 217Q381 203 419 174T457 86ZM457 282V282Q457 249 443 224T407 183T360 157L298 201Q325 213 341 231T358 279Q358 304 340 318T282 342L197 359Q159 367 129 382T81 422T64 489Q64 553 114 587T252
622Q302 622 341 613T403 588T426 550Q426 534 419 523T403 505Q386 514 363 522T313 536T257 541Q214 541 189 528T164 487Q164 463 180 452T228 435L310 419Q379 404 418 373T457 282Z" />
<glyph unicode="&#xa8;" horiz-adv-x="374" d="M156 612V612Q156 589 140 573T97 556Q73 556 57 572T41 612Q41 636 57 652T97 669Q124 669 140 653T156 612ZM340 612V612Q340 589 324 573T281 556Q257 556 240 572T223 612Q223 636 240 652T281 669Q307 669 323
653T340 612Z" />
<glyph unicode="&#xa9;" horiz-adv-x="713" d="M49 301V301Q49 388 87 458T195 570T355 612Q447 612 516 571T625 459T664 301Q664 216 625 148T516 39T355 -2Q264 -2 195 38T88 147T49 301ZM355 549V549Q283 549 231 517T151 430T123 301Q123 231 150 177T230
93T355 62Q428 62 480 92T560 177T588 301Q588 374 560 429T480 517T355 549ZM381 408V408Q343 408 314 384T284 305Q284 255 312 229T383 202Q409 202 424 208T452 222Q473 209 473 186Q473 168 448 152T374 135Q326 135 288 154T226 212T202 306Q202 365 227
402T291 458T369 477Q412 477 440 461T469 421Q469 412 463 403T448 388Q435 396 419 402T381 408Z" />
<glyph unicode="&#xaa;" horiz-adv-x="353" d="M172 360V360Q190 360 207 364T232 373V446L170 440Q138 437 123 428T108 402Q108 382 123 371T172 360ZM168 621V621Q228 621 266 597T305 509V356Q305 345 298 337T279 323Q236 301 172 301Q109 301 72 325T35
398Q35 443 64 466T150 494L232 503V509Q232 538 215 549T161 561Q137 561 112 554T68 536Q61 540 56 549T50 569Q50 581 56 588T74 602Q90 610 116 615T168 621Z" />
<glyph unicode="&#xab;" horiz-adv-x="495" d="M118 224L253 85Q253 67 241 52T205 36Q189 36 177 45T152 67L45 184Q40 191 37 201T34 224Q34 244 39 255T52 274L197 422Q222 417 234 405T246 376Q246 362 239 351T214 321L118 224ZM324 224L457 85Q457 67 446
52T410 36Q395 36 382 45T358 67L250 184Q245 191 242 201T238 224Q238 244 243 255T257 274L402 422Q427 417 439 405T451 376Q451 362 444 351T419 321L324 224Z" />
<glyph unicode="&#xac;" horiz-adv-x="539" d="M86 399H445Q466 399 479 387T492 353V182Q484 179 472 177T447 175Q421 175 409 185T396 224V318H55Q52 325 49 335T46 357Q46 379 57 389T86 399Z" />
<glyph unicode="&#xad;" horiz-adv-x="380" d="M291 218H58Q54 226 51 236T48 258Q48 280 59 290T90 301H322Q325 294 328 284T332 261Q332 240 321 229T291 218Z" />
<glyph unicode="&#xae;" horiz-adv-x="619" d="M54 442V442Q54 511 85 568T175 659T309 693Q385 693 442 659T533 568T566 442Q566 373 533 316T443 225T309 191Q233 191 175 225T86 316T54 442ZM117 442V442Q117 385 140 341T207 272T309 246Q367 246 410 271T478
341T502 442Q502 498 478 542T411 612T309 638Q251 638 208 613T141 543T117 442ZM304 413H282V333Q277 332 270 332T253 331Q240 331 232 335T224 356V542Q224 556 246 560Q260 564 273 565T301 566Q351 566 378 546T405 489Q405 464 391 447T356 421L412 352Q410
343 401 337T381 330Q369 330 361 336T345 353L304 413ZM282 457H310Q346 457 346 490Q346 505 335 513T305 521Q298 521 293 521T282 519V457Z" />
<glyph unicode="&#xaf;" horiz-adv-x="337" d="M274 569H38Q34 576 30 586T25 608Q25 630 35 639T63 649H300Q305 642 308 632T312 610Q312 588 302 579T274 569Z" />
<glyph unicode="&#xb0;" horiz-adv-x="360" d="M326 564V564Q326 523 307 493T254 446T181 429Q117 429 76 467T34 564Q34 606 54 636T107 682T180 699Q221 699 253 683T306 636T326 564ZM180 631V631Q155 631 135 615T115 564Q115 530 135 513T180 495Q207 495
226 512T246 564Q246 598 226 614T180 631Z" />
<glyph unicode="&#xb1;" horiz-adv-x="547" d="M443 317H71Q68 324 65 334T62 356Q62 378 73 388T104 399H476Q479 392 482 382T485 359Q485 338 474 328T443 317ZM443 0H71Q68 7 65 17T62 39Q62 61 73 71T104 82H476Q479 75 482 65T485 42Q485 21 474 11T443
0ZM322 512V160Q314 158 303 156T279 153Q254 153 242 163T229 202V552Q237 555 248 557T273 560Q297 560 309 550T322 512Z" />
<glyph unicode="&#xb2;" horiz-adv-x="277" d="M124 698V698Q178 698 209 672T240 597Q240 566 223 538T166 478L104 428H241Q244 422 246 415T248 399Q248 386 242 379T219 371H39Q32 378 28 387T23 407Q23 422 27 431T38 447L122 521Q147 543 159 561T172 596Q172
618 157 629T119 641Q99 641 82 634T52 617Q44 622 39 629T34 649Q34 671 60 684T124 698Z" />
<glyph unicode="&#xb3;" horiz-adv-x="276" d="M77 563H131Q150 563 162 573T174 599Q174 619 158 630T114 641Q93 641 75 635T44 620Q36 626 31 634T26 653Q26 674 54 686T123 698Q180 698 211 673T242 606Q242 583 229 565T195 537Q218 529 232 509T247 460Q247
411 211 388T122 364Q76 364 46 379T16 415Q16 427 22 436T38 449Q51 439 70 430T118 421Q145 421 162 432T179 466Q179 485 167 496T132 507H77Q73 513 71 520T69 535Q69 554 77 563Z" />
<glyph unicode="&#xb4;" horiz-adv-x="298" d="M87 594L185 703Q214 703 230 689T247 657Q247 641 240 631T217 605L125 519Q100 519 85 532T70 561Q70 571 74 578T87 594Z" />
<glyph unicode="&#xb5;" horiz-adv-x="560" d="M71 247H168L161 65Q166 29 169 -19T173 -118V-178Q167 -180 155 -183T127 -186Q99 -186 85 -175T71 -139V247ZM127 148V254L173 260V178Q173 120 204 95T289 69Q325 69 349 76T388 92V260H490V88Q490 66 484 52T456
25Q433 12 395 -1T302 -14Q248 -14 209 3T148 56T127 148ZM490 210H388V466Q394 468 407 471T435 474Q463 474 476 464T490 426V210ZM173 210H71V466Q77 468 90 471T118 474Q147 474 160 464T173 426V210Z" />
<glyph unicode="&#xb6;" horiz-adv-x="468" d="M223 613H346Q372 613 387 604T402 565V-69Q397 -70 384 -73T356 -76Q329 -76 315 -66T300 -28V526H233V264Q233 252 220 244T176 235Q137 235 100 255T39 315T15 419Q15 485 44 527T121 591T223 613Z" />
<glyph unicode="&#xb7;" horiz-adv-x="165" d="M18 257V257Q18 285 35 304T83 323Q114 323 131 304T148 257Q148 229 131 210T83 191Q53 191 36 210T18 257Z" />
<glyph unicode="&#xb8;" horiz-adv-x="195" d="M55 3L115 22Q145 3 158 -24T171 -85Q171 -133 141 -162T60 -192Q30 -192 14 -180T-3 -145Q-3 -131 3 -120H17Q51 -120 67 -105T83 -64Q83 -49 77 -31T55 3Z" />
<glyph unicode="&#xb9;" horiz-adv-x="214" d="M96 400V618L40 594Q31 598 23 607T14 630Q14 642 20 650T40 663L113 694H126Q144 694 153 684T163 656V374Q157 371 149 370T131 368Q115 368 106 374T96 400Z" />
<glyph unicode="&#xba;" horiz-adv-x="383" d="M341 461V461Q341 383 300 342T191 301Q124 301 82 342T39 461Q39 538 82 579T191 621Q258 621 299 579T341 461ZM191 559V559Q156 559 136 534T115 461Q115 415 135 390T191 364Q225 364 245 389T266 461Q266 507
246 533T191 559Z" />
<glyph unicode="&#xbb;" horiz-adv-x="495" d="M377 235L243 374Q243 392 255 407T290 422Q306 422 318 414T342 392L451 275Q456 267 459 257T462 235Q462 215 457 204T444 185L297 36Q274 43 262 55T250 82Q250 97 257 108T281 138L377 235ZM172 235L38 374Q38
392 50 407T85 422Q101 422 114 414T138 392L246 275Q251 267 254 257T257 235Q257 215 252 204T238 185L93 36Q69 43 57 55T45 82Q45 97 52 108T77 138L172 235Z" />
<glyph unicode="&#xbc;" horiz-adv-x="609" d="M90 320V538L34 514Q25 518 17 527T8 550Q8 562 14 570T34 583L107 614H120Q138 614 147 604T157 576V294Q151 291 143 290T125 288Q109 288 100 294T90 320ZM546 286V125H593Q595 121 597 115T599 99Q599 84 591
77T573 70H343Q334 74 328 83T321 106Q321 115 323 123T332 139L463 316Q470 318 480 319T499 321Q518 321 532 313T546 286ZM483 125V184Q483 197 483 216T485 252L399 125H483ZM481 28V97H546V2Q540 -1 532 -2T515 -4Q499 -4 490 2T481 28ZM91 74L454 611Q476
609 488 601T501 577Q501 565 497 556T483 532L120 -5Q98 -3 86 5T72 29Q72 40 77 50T91 74Z" />
<glyph unicode="&#xbd;" horiz-adv-x="625" d="M90 320V538L34 514Q25 518 17 527T8 550Q8 562 14 570T34 583L107 614H120Q138 614 147 604T157 576V294Q151 291 143 290T125 288Q109 288 100 294T90 320ZM476 327V327Q530 327 561 301T592 226Q592 195 575 167T518
107L456 57H593Q596 51 598 44T600 28Q600 15 594 8T571 0H391Q384 7 380 16T375 36Q375 51 379 60T390 76L474 150Q499 172 511 190T524 225Q524 247 509 258T471 270Q451 270 434 263T404 246Q396 251 391 258T386 278Q386 300 412 313T476 327ZM91 74L454 611Q476
609 488 601T501 577Q501 565 497 556T483 532L120 -5Q98 -3 86 5T72 29Q72 40 77 50T91 74Z" />
<glyph unicode="&#xbe;" horiz-adv-x="657" d="M77 484H131Q150 484 162 494T174 520Q174 540 158 551T114 562Q93 562 75 556T44 541Q36 547 31 555T26 574Q26 595 54 607T123 619Q180 619 211 594T242 527Q242 504 229 486T195 458Q218 450 232 430T247 381Q247
332 211 309T122 285Q76 285 46 300T16 336Q16 348 22 357T38 370Q51 360 70 351T118 342Q145 342 162 353T179 387Q179 406 167 417T132 428H77Q73 434 71 441T69 456Q69 475 77 484ZM594 286V125H641Q643 121 645 115T647 99Q647 84 639 77T621 70H391Q382 74
376 83T369 106Q369 115 371 123T380 139L511 316Q518 318 528 319T547 321Q566 321 580 313T594 286ZM531 125V184Q531 197 531 216T533 252L447 125H531ZM529 28V97H594V2Q588 -1 580 -2T563 -4Q547 -4 538 2T529 28ZM142 74L505 611Q527 609 539 601T552 577Q552
565 548 556T534 532L171 -5Q149 -3 137 5T123 29Q123 40 128 50T142 74Z" />
<glyph unicode="&#xbf;" horiz-adv-x="469" d="M247 222L344 253Q355 244 364 229T373 197Q373 180 363 170T330 152L263 131Q203 112 172 79T141 -9Q141 -57 174 -92T278 -128Q316 -128 350 -115T413 -80Q425 -89 432 -101T440 -130Q440 -154 418 -173T358 -204T270
-216Q198 -216 146 -190T65 -117T37 -9Q37 53 60 96T130 170T247 222ZM362 408V408Q362 380 345 362T297 343Q267 343 250 361T232 408Q232 435 249 453T297 472Q328 472 345 454T362 408Z" />
<glyph unicode="&#xc0;" horiz-adv-x="601" d="M304 524H299Q286 485 268 434T230 327T194 222L185 182Q179 164 171 139T155 88T138 38T126 -1Q117 -4 108 -6T84 -9Q60 -9 44 2T28 35Q28 45 31 55T39 79Q50 113 67 162T105 270T148 387T190 502T227 598Q237 603
258 608T300 614Q328 614 351 606T381 579Q404 523 429 451T481 300T532 148T575 14Q567 4 552 -2T519 -8Q492 -8 480 2T460 36L413 182L402 229Q384 285 366 340T331 443T304 524ZM137 153L174 237H438L455 153H137ZM256 679L167 761Q166 765 166 769T166 776Q166
797 178 810T210 823Q236 823 255 800L340 703Q338 682 327 671T298 660Q285 660 276 665T256 679Z" />
<glyph unicode="&#xc1;" horiz-adv-x="601" d="M304 524H299Q286 485 268 434T230 327T194 222L185 182Q179 164 171 139T155 88T138 38T126 -1Q117 -4 108 -6T84 -9Q60 -9 44 2T28 35Q28 45 31 55T39 79Q50 113 67 162T105 270T148 387T190 502T227 598Q237 603
258 608T300 614Q328 614 351 606T381 579Q404 523 429 451T481 300T532 148T575 14Q567 4 552 -2T519 -8Q492 -8 480 2T460 36L413 182L402 229Q384 285 366 340T331 443T304 524ZM137 153L174 237H438L455 153H137ZM282 732L379 827Q406 826 420 813T435 782Q435
767 429 756T404 732L316 660Q291 662 278 672T265 698Q265 708 269 716T282 732Z" />
<glyph unicode="&#xc2;" horiz-adv-x="601" d="M305 747V747Q287 729 263 705T212 657Q192 658 179 669T165 697Q165 711 173 721T196 746L247 796Q278 822 306 822Q324 822 338 815T366 792L448 702Q448 682 436 671T405 659Q392 659 380 666T352 693L305 747ZM304
524H299Q286 485 268 434T230 327T194 222L185 182Q179 164 171 139T155 88T138 38T126 -1Q117 -4 108 -6T84 -9Q60 -9 44 2T28 35Q28 45 31 55T39 79Q50 113 67 162T105 270T148 387T190 502T227 598Q237 603 258 608T300 614Q328 614 351 606T381 579Q404 523
429 451T481 300T532 148T575 14Q567 4 552 -2T519 -8Q492 -8 480 2T460 36L413 182L402 229Q384 285 366 340T331 443T304 524ZM137 153L174 237H438L455 153H137Z" />
<glyph unicode="&#xc3;" horiz-adv-x="601" d="M304 524H299Q286 485 268 434T230 327T194 222L185 182Q179 164 171 139T155 88T138 38T126 -1Q117 -4 108 -6T84 -9Q60 -9 44 2T28 35Q28 45 31 55T39 79Q50 113 67 162T105 270T148 387T190 502T227 598Q237 603
258 608T300 614Q328 614 351 606T381 579Q404 523 429 451T481 300T532 148T575 14Q567 4 552 -2T519 -8Q492 -8 480 2T460 36L413 182L402 229Q384 285 366 340T331 443T304 524ZM137 153L174 237H438L455 153H137ZM230 800V800Q258 800 281 792T325 776T362
767Q381 767 390 778T404 805H410Q431 805 447 793T464 756Q464 724 442 706T384 688Q355 688 331 696T287 713T250 721Q231 721 222 710T209 683H204Q182 683 166 695T149 732Q149 754 160 769T191 792T230 800Z" />
<glyph unicode="&#xc4;" horiz-adv-x="601" d="M304 524H299Q286 485 268 434T230 327T194 222L185 182Q179 164 171 139T155 88T138 38T126 -1Q117 -4 108 -6T84 -9Q60 -9 44 2T28 35Q28 45 31 55T39 79Q50 113 67 162T105 270T148 387T190 502T227 598Q237 603
258 608T300 614Q328 614 351 606T381 579Q404 523 429 451T481 300T532 148T575 14Q567 4 552 -2T519 -8Q492 -8 480 2T460 36L413 182L402 229Q384 285 366 340T331 443T304 524ZM137 153L174 237H438L455 153H137ZM268 741V741Q268 718 252 702T209 685Q185
685 169 701T153 741Q153 765 169 781T209 798Q236 798 252 782T268 741ZM452 741V741Q452 718 436 702T393 685Q369 685 352 701T335 741Q335 765 352 781T393 798Q419 798 435 782T452 741Z" />
<glyph unicode="&#xc5;" horiz-adv-x="601" d="M304 524H299Q286 485 268 434T230 327T194 222L185 182Q179 164 171 139T155 88T138 38T126 -1Q117 -4 108 -6T84 -9Q60 -9 44 2T28 35Q28 45 31 55T39 79Q50 113 67 162T105 270T148 387T190 502T227 598Q237 603
258 608T300 614Q328 614 351 606T381 579Q404 523 429 451T481 300T532 148T575 14Q567 4 552 -2T519 -8Q492 -8 480 2T460 36L413 182L402 229Q384 285 366 340T331 443T304 524ZM137 153L174 237H438L455 153H137ZM190 747V747Q190 787 220 814T303 842Q356
842 386 815T417 747Q417 707 387 680T303 652Q251 652 221 679T190 747ZM261 746V746Q261 729 273 719T303 708Q322 708 334 718T347 747Q347 765 335 775T303 786Q285 786 273 776T261 746Z" />
<glyph unicode="&#xc6;" horiz-adv-x="852" d="M471 521H395L236 214L215 174L127 -2Q118 -4 111 -6T89 -8Q62 -8 49 2T36 32Q36 42 40 53T51 80Q63 104 86 149T140 251T204 371T270 491T328 596Q337 603 354 608T392 613Q408 613 424 610T453 599T470 580L471
521ZM141 153L179 237H435L452 153H141ZM401 541H504V8Q498 6 484 3T456 -1Q431 -1 416 15T401 56V541ZM456 269V354H757Q762 348 765 337T769 313Q769 292 759 281T731 269H456ZM456 -1V85H792Q796 79 800 68T804 44Q804 23 794 11T766 -1H456ZM436 522V570Q441
587 456 597T493 608H787Q792 602 795 591T799 567Q799 546 789 534T761 522H436Z" />
<glyph unicode="&#xc7;" horiz-adv-x="584" d="M535 535V535Q535 519 526 507T503 487Q478 505 444 520T358 535Q300 535 255 509T183 431T157 303Q157 189 213 131T363 73Q412 73 448 87T510 119Q522 112 531 100T540 70Q540 56 533 45T509 23Q487 9 449 -2T352
-14Q268 -14 199 21T90 126T49 303Q49 408 90 479T199 586T347 622Q404 622 446 610T511 577T535 535ZM302 3L362 22Q392 3 405 -24T418 -85Q418 -133 388 -162T307 -192Q277 -192 261 -180T244 -145Q244 -131 250 -120H264Q298 -120 314 -105T330 -64Q330 -49
324 -31T302 3Z" />
<glyph unicode="&#xc8;" horiz-adv-x="544" d="M92 385H195V8Q190 6 177 3T148 -1Q123 -1 108 15T92 56V385ZM195 226L92 227V551Q92 577 107 592T148 608Q163 608 176 605T195 599V226ZM148 269V354H450Q454 348 457 337T461 313Q461 292 451 281T423 269H148ZM148
-1V85H485Q489 79 492 68T496 44Q496 23 486 11T458 -1H148ZM148 522V608H480Q484 602 487 591T491 567Q491 546 481 534T453 522H148ZM269 679L180 761Q179 765 179 769T179 776Q179 797 191 810T223 823Q249 823 268 800L353 703Q351 682 340 671T311 660Q298
660 289 665T269 679Z" />
<glyph unicode="&#xc9;" horiz-adv-x="544" d="M92 385H195V8Q190 6 177 3T148 -1Q123 -1 108 15T92 56V385ZM195 226L92 227V551Q92 577 107 592T148 608Q163 608 176 605T195 599V226ZM148 269V354H450Q454 348 457 337T461 313Q461 292 451 281T423 269H148ZM148
-1V85H485Q489 79 492 68T496 44Q496 23 486 11T458 -1H148ZM148 522V608H480Q484 602 487 591T491 567Q491 546 481 534T453 522H148ZM275 732L372 827Q399 826 413 813T428 782Q428 767 422 756T397 732L309 660Q284 662 271 672T258 698Q258 708 262 716T275
732Z" />
<glyph unicode="&#xca;" horiz-adv-x="544" d="M92 385H195V8Q190 6 177 3T148 -1Q123 -1 108 15T92 56V385ZM195 226L92 227V551Q92 577 107 592T148 608Q163 608 176 605T195 599V226ZM148 269V354H450Q454 348 457 337T461 313Q461 292 451 281T423 269H148ZM148
-1V85H485Q489 79 492 68T496 44Q496 23 486 11T458 -1H148ZM148 522V608H480Q484 602 487 591T491 567Q491 546 481 534T453 522H148ZM295 747V747Q277 729 254 705T203 657Q182 658 169 669T155 697Q155 711 163 721T186 746L238 796Q268 822 296 822Q315 822
328 815T357 792L438 702Q438 682 427 671T396 659Q382 659 371 666T342 693L295 747Z" />
<glyph unicode="&#xcb;" horiz-adv-x="544" d="M92 385H195V8Q190 6 177 3T148 -1Q123 -1 108 15T92 56V385ZM195 226L92 227V551Q92 577 107 592T148 608Q163 608 176 605T195 599V226ZM148 269V354H450Q454 348 457 337T461 313Q461 292 451 281T423 269H148ZM148
-1V85H485Q489 79 492 68T496 44Q496 23 486 11T458 -1H148ZM148 522V608H480Q484 602 487 591T491 567Q491 546 481 534T453 522H148ZM264 734V734Q264 711 248 695T205 678Q181 678 165 694T149 734Q149 758 165 774T205 791Q232 791 248 775T264 734ZM448 734V734Q448
711 432 695T389 678Q365 678 348 694T331 734Q331 758 348 774T389 791Q415 791 431 775T448 734Z" />
<glyph unicode="&#xcc;" horiz-adv-x="273" d="M84 383H188V2Q182 0 169 -3T140 -6Q111 -6 98 5T84 43V383ZM188 275H84V607Q91 609 104 611T133 614Q162 614 175 604T188 566V275ZM343 679L254 761Q253 765 253 769T253 776Q253 797 265 810T297 823Q323 823
342 800L427 703Q425 682 414 671T385 660Q372 660 363 665T343 679Z" />
<glyph unicode="&#xcd;" horiz-adv-x="273" d="M84 383H188V2Q182 0 169 -3T140 -6Q111 -6 98 5T84 43V383ZM188 275H84V607Q91 609 104 611T133 614Q162 614 175 604T188 566V275ZM111 732L208 827Q235 826 249 813T264 782Q264 767 258 756T233 732L145 660Q120
662 107 672T94 698Q94 708 98 716T111 732Z" />
<glyph unicode="&#xce;" horiz-adv-x="273" d="M84 383H188V2Q182 0 169 -3T140 -6Q111 -6 98 5T84 43V383ZM188 275H84V607Q91 609 104 611T133 614Q162 614 175 604T188 566V275ZM393 747V747Q375 729 352 705T301 657Q280 658 267 669T253 697Q253 711 261
721T284 746L336 796Q366 822 394 822Q413 822 426 815T455 792L536 702Q536 682 525 671T494 659Q480 659 469 666T440 693L393 747Z" />
<glyph unicode="&#xcf;" horiz-adv-x="273" d="M84 383H188V2Q182 0 169 -3T140 -6Q111 -6 98 5T84 43V383ZM188 275H84V607Q91 609 104 611T133 614Q162 614 175 604T188 566V275ZM357 734V734Q357 711 341 695T298 678Q274 678 258 694T242 734Q242 758 258
774T298 791Q325 791 341 775T357 734ZM541 734V734Q541 711 525 695T482 678Q458 678 441 694T424 734Q424 758 441 774T482 791Q508 791 524 775T541 734Z" />
<glyph unicode="&#xd0;" horiz-adv-x="687" d="M162 347V262H330Q347 262 357 273T368 307Q368 320 365 330T357 347H162ZM212 262V347H51Q33 347 23 336T13 303Q13 290 16 280T25 262H212ZM529 309V309Q529 193 474 134T313 74Q288 74 263 76T218 83V527Q236
530 258 532T306 534Q369 534 419 511T499 438T529 309ZM637 309V309Q637 414 595 482T479 585T304 620Q265 620 224 617T149 602Q132 597 123 588T113 561V59Q113 21 159 6Q196 -6 239 -9T313 -12Q411 -12 483 23T596 129T637 309Z" />
<glyph unicode="&#xd1;" horiz-adv-x="665" d="M83 504L174 509Q178 474 181 432T185 348T186 266V2Q180 0 167 -3T139 -6Q110 -6 97 5T83 41V504ZM582 104L490 100Q481 180 480 260T478 416V607Q486 609 499 611T526 614Q555 614 568 604T582 567V104ZM582 140V175V14Q572
5 555 0T515 -6Q488 -6 467 3T430 43L263 333Q249 359 234 388T204 444T181 491L83 468V591Q93 602 111 608T150 614Q177 614 198 604T235 565L403 275Q418 250 433 221T461 164T484 117L582 140ZM249 800V800Q277 800 300 792T344 776T381 767Q400 767 409 778T423
805H429Q450 805 466 793T483 756Q483 724 461 706T403 688Q374 688 350 696T306 713T269 721Q250 721 241 710T228 683H223Q201 683 185 695T168 732Q168 754 179 769T210 792T249 800Z" />
<glyph unicode="&#xd2;" horiz-adv-x="693" d="M643 304V304Q643 200 604 129T498 22T346 -14Q262 -14 195 22T88 129T49 304Q49 408 89 479T196 586T346 622Q430 622 497 586T603 479T643 304ZM535 304V304Q535 416 484 475T346 535Q261 535 209 476T157 304Q157
192 208 133T346 73Q433 73 484 132T535 304ZM304 679L215 761Q214 765 214 769T214 776Q214 797 226 810T258 823Q284 823 303 800L388 703Q386 682 375 671T346 660Q333 660 324 665T304 679Z" />
<glyph unicode="&#xd3;" horiz-adv-x="693" d="M643 304V304Q643 200 604 129T498 22T346 -14Q262 -14 195 22T88 129T49 304Q49 408 89 479T196 586T346 622Q430 622 497 586T603 479T643 304ZM535 304V304Q535 416 484 475T346 535Q261 535 209 476T157 304Q157
192 208 133T346 73Q433 73 484 132T535 304ZM328 732L425 827Q452 826 466 813T481 782Q481 767 475 756T450 732L362 660Q337 662 324 672T311 698Q311 708 315 716T328 732Z" />
<glyph unicode="&#xd4;" horiz-adv-x="693" d="M643 304V304Q643 200 604 129T498 22T346 -14Q262 -14 195 22T88 129T49 304Q49 408 89 479T196 586T346 622Q430 622 497 586T603 479T643 304ZM535 304V304Q535 416 484 475T346 535Q261 535 209 476T157 304Q157
192 208 133T346 73Q433 73 484 132T535 304ZM346 747V747Q328 729 305 705T254 657Q233 658 220 669T206 697Q206 711 214 721T237 746L289 796Q319 822 347 822Q366 822 379 815T408 792L489 702Q489 682 478 671T447 659Q433 659 422 666T393 693L346 747Z"
/>
<glyph unicode="&#xd5;" horiz-adv-x="693" d="M643 304V304Q643 200 604 129T498 22T346 -14Q262 -14 195 22T88 129T49 304Q49 408 89 479T196 586T346 622Q430 622 497 586T603 479T643 304ZM535 304V304Q535 416 484 475T346 535Q261 535 209 476T157 304Q157
192 208 133T346 73Q433 73 484 132T535 304ZM270 800V800Q298 800 321 792T365 776T402 767Q421 767 430 778T444 805H450Q471 805 487 793T504 756Q504 724 482 706T424 688Q395 688 371 696T327 713T290 721Q271 721 262 710T249 683H244Q222 683 206 695T189
732Q189 754 200 769T231 792T270 800Z" />
<glyph unicode="&#xd6;" horiz-adv-x="693" d="M643 304V304Q643 200 604 129T498 22T346 -14Q262 -14 195 22T88 129T49 304Q49 408 89 479T196 586T346 622Q430 622 497 586T603 479T643 304ZM535 304V304Q535 416 484 475T346 535Q261 535 209 476T157 304Q157
192 208 133T346 73Q433 73 484 132T535 304ZM311 734V734Q311 711 295 695T252 678Q228 678 212 694T196 734Q196 758 212 774T252 791Q279 791 295 775T311 734ZM495 734V734Q495 711 479 695T436 678Q412 678 395 694T378 734Q378 758 395 774T436 791Q462 791
478 775T495 734Z" />
<glyph unicode="&#xd7;" horiz-adv-x="497" d="M296 306L446 142Q441 123 427 110T393 96Q383 96 374 101T357 114L237 251L207 276L54 438Q59 455 72 470T105 486Q116 486 125 481T140 468L267 330L296 306ZM416 398L297 273L257 243L107 92Q88 97 71 110T53
142Q53 151 59 160T75 178L201 304L238 328L388 486Q405 480 420 467T435 434Q435 425 430 416T416 398Z" />
<glyph unicode="&#xd8;" horiz-adv-x="693" d="M184 74L100 -16Q73 -11 60 3T46 32Q46 46 53 57T76 83L120 127L184 74ZM607 527L560 477L507 542L583 626Q607 621 622 608T637 579Q637 568 630 556T607 527ZM530 448L189 76L150 153L476 511L530 448ZM643 304V304Q643
200 604 129T498 22T346 -14Q262 -14 195 23T88 132T49 304Q49 408 89 479T196 586T346 622Q429 622 496 585T603 476T643 304ZM537 304V304Q537 413 485 474T346 535Q261 535 208 476T155 304Q155 195 207 134T346 73Q433 73 485 132T537 304Z" />
<glyph unicode="&#xd9;" horiz-adv-x="653" d="M326 -14V-14Q249 -14 194 14T111 93T82 213V290H186V219Q186 147 226 110T326 73Q386 73 426 110T466 219V290H571V213Q571 145 543 94T459 14T326 -14ZM186 252H82V607Q88 609 102 611T130 614Q159 614 172 604T186
566V252ZM571 252H466V607Q473 609 486 611T515 614Q544 614 557 604T571 566V252ZM276 679L187 761Q186 765 186 769T186 776Q186 797 198 810T230 823Q256 823 275 800L360 703Q358 682 347 671T318 660Q305 660 296 665T276 679Z" />
<glyph unicode="&#xda;" horiz-adv-x="653" d="M326 -14V-14Q249 -14 194 14T111 93T82 213V290H186V219Q186 147 226 110T326 73Q386 73 426 110T466 219V290H571V213Q571 145 543 94T459 14T326 -14ZM186 252H82V607Q88 609 102 611T130 614Q159 614 172 604T186
566V252ZM571 252H466V607Q473 609 486 611T515 614Q544 614 557 604T571 566V252ZM306 732L403 827Q430 826 444 813T459 782Q459 767 453 756T428 732L340 660Q315 662 302 672T289 698Q289 708 293 716T306 732Z" />
<glyph unicode="&#xdb;" horiz-adv-x="653" d="M326 -14V-14Q249 -14 194 14T111 93T82 213V290H186V219Q186 147 226 110T326 73Q386 73 426 110T466 219V290H571V213Q571 145 543 94T459 14T326 -14ZM186 252H82V607Q88 609 102 611T130 614Q159 614 172 604T186
566V252ZM571 252H466V607Q473 609 486 611T515 614Q544 614 557 604T571 566V252ZM331 747V747Q313 729 290 705T239 657Q218 658 205 669T191 697Q191 711 199 721T222 746L274 796Q304 822 332 822Q351 822 364 815T393 792L474 702Q474 682 463 671T432 659Q418
659 407 666T378 693L331 747Z" />
<glyph unicode="&#xdc;" horiz-adv-x="653" d="M326 -14V-14Q249 -14 194 14T111 93T82 213V290H186V219Q186 147 226 110T326 73Q386 73 426 110T466 219V290H571V213Q571 145 543 94T459 14T326 -14ZM186 252H82V607Q88 609 102 611T130 614Q159 614 172 604T186
566V252ZM571 252H466V607Q473 609 486 611T515 614Q544 614 557 604T571 566V252ZM291 734V734Q291 711 275 695T232 678Q208 678 192 694T176 734Q176 758 192 774T232 791Q259 791 275 775T291 734ZM475 734V734Q475 711 459 695T416 678Q392 678 375 694T358
734Q358 758 375 774T416 791Q442 791 458 775T475 734Z" />
<glyph unicode="&#xdd;" d="M330 211H237Q210 251 180 298T119 394T63 490T17 577Q23 590 37 601T73 613Q97 613 111 602T139 564Q148 547 163 521T194 465T228 405T258 350T281 310H286Q317 364 342 412T391 507T440 603Q449 608 461 610T483 613Q506 613 519
602T533 569Q533 558 520 529T480 454T417 347T330 211ZM232 255H335V2Q329 0 316 -3T288 -6Q258 -6 245 5T232 42V255ZM250 732L347 827Q374 826 388 813T403 782Q403 767 397 756T372 732L284 660Q259 662 246 672T233 698Q233 708 237 716T250 732Z" />
<glyph unicode="&#xde;" horiz-adv-x="576" d="M186 194V418H281Q348 418 386 391T424 306Q424 248 386 221T281 194H186ZM82 504V108H300Q416 108 473 162T530 306Q530 397 473 450T300 504H82ZM186 163H82V42Q82 17 96 6T139 -6Q153 -6 167 -3T186 1V163ZM82
445H186V566Q186 592 173 603T130 614Q116 614 103 612T82 607V445Z" />
<glyph unicode="&#xdf;" horiz-adv-x="589" d="M176 285H74V470Q74 536 101 581T176 649T283 672Q344 672 391 649T466 578T494 462Q494 424 459 409L418 392Q395 381 386 370T376 340Q376 323 386 310T424 281Q466 258 494 236T536 188T550 124Q550 54 502 19T379
-17Q321 -17 288 1T254 49Q254 63 261 76T281 96Q299 83 321 74T373 65Q405 65 425 81T446 125Q446 149 431 166T373 207Q323 234 297 264T271 341Q271 382 293 410T358 455L392 470Q392 520 362 553T282 587Q239 587 208 559T176 469V285ZM74 354H176V-1Q170 -3
158 -5T131 -8Q102 -8 88 3T74 40V354Z" />
<glyph unicode="&#xe0;" horiz-adv-x="510" d="M245 66V66Q281 66 306 73T344 88V217L233 206Q187 202 164 186T140 137Q140 104 166 85T245 66ZM242 482V482Q335 482 389 442T444 314V81Q444 58 434 45T406 22Q380 7 339 -3T245 -14Q148 -14 94 23T39 134Q39
200 82 235T204 278L344 292V315Q344 360 315 380T236 400Q196 400 159 389T92 364Q83 372 76 383T69 408Q69 439 103 455Q131 468 167 475T242 482ZM212 540L117 637Q116 641 116 645T115 653Q115 674 128 686T162 699Q175 699 186 694T206 677L296 565Q294 544
282 533T254 521Q240 521 231 526T212 540Z" />
<glyph unicode="&#xe1;" horiz-adv-x="510" d="M245 66V66Q281 66 306 73T344 88V217L233 206Q187 202 164 186T140 137Q140 104 166 85T245 66ZM242 482V482Q335 482 389 442T444 314V81Q444 58 434 45T406 22Q380 7 339 -3T245 -14Q148 -14 94 23T39 134Q39
200 82 235T204 278L344 292V315Q344 360 315 380T236 400Q196 400 159 389T92 364Q83 372 76 383T69 408Q69 439 103 455Q131 468 167 475T242 482ZM219 594L317 703Q346 703 362 689T379 657Q379 641 372 631T349 605L257 519Q232 519 217 532T202 561Q202 571
206 578T219 594Z" />
<glyph unicode="&#xe2;" horiz-adv-x="510" d="M245 66V66Q281 66 306 73T344 88V217L233 206Q187 202 164 186T140 137Q140 104 166 85T245 66ZM242 482V482Q335 482 389 442T444 314V81Q444 58 434 45T406 22Q380 7 339 -3T245 -14Q148 -14 94 23T39 134Q39
200 82 235T204 278L344 292V315Q344 360 315 380T236 400Q196 400 159 389T92 364Q83 372 76 383T69 408Q69 439 103 455Q131 468 167 475T242 482ZM309 550L250 620Q226 592 205 570T164 524Q140 525 126 536T111 564Q111 578 118 588T138 611L193 669Q207 682
220 689T251 696Q269 696 282 689T311 665L391 568Q391 551 382 539T351 526Q338 526 329 532T309 550Z" />
<glyph unicode="&#xe3;" horiz-adv-x="510" d="M245 66V66Q281 66 306 73T344 88V217L233 206Q187 202 164 186T140 137Q140 104 166 85T245 66ZM242 482V482Q335 482 389 442T444 314V81Q444 58 434 45T406 22Q380 7 339 -3T245 -14Q148 -14 94 23T39 134Q39
200 82 235T204 278L344 292V315Q344 360 315 380T236 400Q196 400 159 389T92 364Q83 372 76 383T69 408Q69 439 103 455Q131 468 167 475T242 482ZM171 667V667Q199 667 222 659T266 643T303 634Q322 634 331 645T345 672H351Q372 672 388 660T405 623Q405 591
383 573T325 555Q296 555 272 563T228 580T191 588Q172 588 163 577T150 550H145Q123 550 107 562T90 599Q90 621 101 636T132 659T171 667Z" />
<glyph unicode="&#xe4;" horiz-adv-x="510" d="M245 66V66Q281 66 306 73T344 88V217L233 206Q187 202 164 186T140 137Q140 104 166 85T245 66ZM242 482V482Q335 482 389 442T444 314V81Q444 58 434 45T406 22Q380 7 339 -3T245 -14Q148 -14 94 23T39 134Q39
200 82 235T204 278L344 292V315Q344 360 315 380T236 400Q196 400 159 389T92 364Q83 372 76 383T69 408Q69 439 103 455Q131 468 167 475T242 482ZM221 864V864Q221 841 205 825T162 808Q138 808 122 824T106 864Q106 888 122 904T162 921Q189 921 205 905T221
864ZM405 864V864Q405 841 389 825T346 808Q322 808 305 824T288 864Q288 888 305 904T346 921Q372 921 388 905T405 864Z" />
<glyph unicode="&#xe5;" horiz-adv-x="510" d="M245 66V66Q281 66 306 73T344 88V217L233 206Q187 202 164 186T140 137Q140 104 166 85T245 66ZM242 482V482Q335 482 389 442T444 314V81Q444 58 434 45T406 22Q380 7 339 -3T245 -14Q148 -14 94 23T39 134Q39
200 82 235T204 278L344 292V315Q344 360 315 380T236 400Q196 400 159 389T92 364Q83 372 76 383T69 408Q69 439 103 455Q131 468 167 475T242 482ZM144 619V619Q144 660 173 688T255 717Q309 717 338 689T367 619Q367 578 338 550T255 522Q203 522 174 550T144
619ZM213 619V619Q213 599 225 588T255 576Q274 576 286 587T299 619Q299 640 287 651T255 662Q237 662 225 651T213 619Z" />
<glyph unicode="&#xe6;" horiz-adv-x="816" d="M401 177L397 252L681 292Q677 339 647 370T563 402Q506 402 469 362T432 248L433 210Q440 139 483 104T597 68Q639 68 674 81T730 109Q742 102 750 90T758 64Q758 42 736 24T676 -4T591 -14Q482 -14 422 47T359
208Q359 214 355 223T350 238Q350 317 378 371T454 453T563 482Q627 482 675 456T750 382T778 275Q778 250 766 239T731 224L401 177ZM245 66V66Q281 66 306 73T344 88V217L233 206Q187 202 164 186T140 137Q140 104 166 85T245 66ZM242 482V482Q329 482 376 441T424
314V76Q424 53 414 38T387 15Q362 3 330 -5T244 -14Q148 -14 94 23T39 134Q39 200 82 235T204 278L344 292V315Q344 360 315 380T236 400Q196 400 159 389T92 364Q83 372 76 383T69 408Q69 439 103 455Q131 468 167 475T242 482Z" />
<glyph unicode="&#xe7;" horiz-adv-x="481" d="M298 398V398Q235 398 192 356T149 233Q149 154 190 112T298 70Q337 70 364 80T411 104Q424 96 432 85T440 59Q440 28 399 8T293 -13Q220 -13 164 14T77 96T45 233Q45 316 78 371T167 454T290 482Q354 482 394 460T435
407Q435 393 428 382T409 364Q388 378 362 388T298 398ZM244 3L304 22Q334 3 347 -24T360 -85Q360 -133 330 -162T249 -192Q219 -192 203 -180T186 -145Q186 -131 192 -120H206Q240 -120 256 -105T272 -64Q272 -49 266 -31T244 3Z" />
<glyph unicode="&#xe8;" horiz-adv-x="527" d="M112 177L107 252L391 292Q388 339 358 370T273 402Q217 402 180 362T142 248L144 210Q152 139 195 104T308 68Q350 68 385 81T441 109Q453 102 460 90T468 64Q468 42 446 24T387 -4T302 -14Q225 -14 167 14T77 99T45
238Q45 297 62 342T111 419T184 466T274 482Q337 482 385 456T461 382T488 275Q488 250 476 239T442 224L112 177ZM230 540L135 637Q134 641 134 645T133 653Q133 674 146 686T180 699Q193 699 204 694T224 677L314 565Q312 544 300 533T272 521Q258 521 249 526T230
540Z" />
<glyph unicode="&#xe9;" horiz-adv-x="527" d="M112 177L107 252L391 292Q388 339 358 370T273 402Q217 402 180 362T142 248L144 210Q152 139 195 104T308 68Q350 68 385 81T441 109Q453 102 460 90T468 64Q468 42 446 24T387 -4T302 -14Q225 -14 167 14T77 99T45
238Q45 297 62 342T111 419T184 466T274 482Q337 482 385 456T461 382T488 275Q488 250 476 239T442 224L112 177ZM252 594L350 703Q379 703 395 689T412 657Q412 641 405 631T382 605L290 519Q265 519 250 532T235 561Q235 571 239 578T252 594Z" />
<glyph unicode="&#xea;" horiz-adv-x="527" d="M112 177L107 252L391 292Q388 339 358 370T273 402Q217 402 180 362T142 248L144 210Q152 139 195 104T308 68Q350 68 385 81T441 109Q453 102 460 90T468 64Q468 42 446 24T387 -4T302 -14Q225 -14 167 14T77 99T45
238Q45 297 62 342T111 419T184 466T274 482Q337 482 385 456T461 382T488 275Q488 250 476 239T442 224L112 177ZM334 550L275 620Q251 592 230 570T189 524Q165 525 151 536T136 564Q136 578 143 588T163 611L218 669Q232 682 245 689T276 696Q294 696 307 689T336
665L416 568Q416 551 407 539T376 526Q363 526 354 532T334 550Z" />
<glyph unicode="&#xeb;" horiz-adv-x="527" d="M112 177L107 252L391 292Q388 339 358 370T273 402Q217 402 180 362T142 248L144 210Q152 139 195 104T308 68Q350 68 385 81T441 109Q453 102 460 90T468 64Q468 42 446 24T387 -4T302 -14Q225 -14 167 14T77 99T45
238Q45 297 62 342T111 419T184 466T274 482Q337 482 385 456T461 382T488 275Q488 250 476 239T442 224L112 177ZM236 864V864Q236 841 220 825T177 808Q153 808 137 824T121 864Q121 888 137 904T177 921Q204 921 220 905T236 864ZM420 864V864Q420 841 404 825T361
808Q337 808 320 824T303 864Q303 888 320 904T361 921Q387 921 403 905T420 864Z" />
<glyph unicode="&#xec;" horiz-adv-x="251" d="M74 322H177V-1Q171 -3 159 -5T131 -8Q103 -8 89 3T74 40V322ZM177 272H74V464Q81 466 93 468T120 471Q149 471 163 460T177 423V272ZM82 540L-13 637Q-14 641 -14 645T-15 653Q-15 674 -2 686T32 699Q45 699 56
694T77 677L166 565Q165 544 153 533T124 521Q110 521 101 526T82 540Z" />
<glyph unicode="&#xed;" horiz-adv-x="251" d="M74 322H177V-1Q171 -3 159 -5T131 -8Q103 -8 89 3T74 40V322ZM177 272H74V464Q81 466 93 468T120 471Q149 471 163 460T177 423V272ZM101 594L199 703Q229 703 245 689T262 657Q262 641 255 631T232 605L140 519Q114
519 99 532T84 561Q84 571 89 578T101 594Z" />
<glyph unicode="&#xee;" horiz-adv-x="251" d="M74 322H177V-1Q171 -3 159 -5T131 -8Q103 -8 89 3T74 40V322ZM177 272H74V464Q81 466 93 468T120 471Q149 471 163 460T177 423V272ZM186 550L127 620Q104 592 83 570T41 524Q18 525 3 536T-12 564Q-12 578 -4 588T16
611L70 669Q85 682 98 689T128 696Q147 696 160 689T188 665L269 568Q269 551 259 539T229 526Q215 526 206 532T186 550Z" />
<glyph unicode="&#xef;" horiz-adv-x="251" d="M74 322H177V-1Q171 -3 159 -5T131 -8Q103 -8 89 3T74 40V322ZM177 272H74V464Q81 466 93 468T120 471Q149 471 163 460T177 423V272ZM92 608V608Q92 585 76 569T33 552Q8 552 -8 568T-24 608Q-24 632 -8 648T33
665Q59 665 75 649T92 608ZM275 608V608Q275 585 259 569T216 552Q192 552 176 568T159 608Q159 632 175 648T216 665Q242 665 258 649T275 608Z" />
<glyph unicode="&#xf0;" horiz-adv-x="549" d="M367 544L334 531L172 473Q161 480 153 492T145 520Q145 543 172 554L257 587L303 602L429 652Q440 645 448 633T457 605Q457 589 450 582T430 568L367 544ZM418 366L403 287Q383 321 351 340T279 360Q215 360 183
322T150 217Q150 150 184 110T278 69Q339 69 369 110T399 222Q399 255 396 281T388 334Q386 349 386 356T386 370T381 386Q362 430 338 466T279 533Q270 540 263 547T247 561Q222 580 194 592T134 614Q135 640 148 656T186 672Q220 672 259 654T338 604Q345 598
348 596T359 586Q398 547 430 495T483 379T504 244Q504 162 478 105T401 17T277 -14Q171 -14 108 48T45 217Q45 294 76 343T156 417T261 441Q315 441 354 420T418 366Z" />
<glyph unicode="&#xf1;" horiz-adv-x="566" d="M497 307V208H394V303Q394 353 366 376T291 399Q256 399 228 390T180 370V208H77V372Q77 395 86 409T117 437Q145 454 190 468T291 482Q388 482 442 439T497 307ZM77 260H180V2Q173 0 161 -3T133 -6Q105 -6 91 5T77
41V260ZM394 260H497V2Q490 0 477 -3T450 -6Q421 -6 408 5T394 41V260ZM204 667V667Q232 667 255 659T299 643T336 634Q355 634 364 645T378 672H384Q405 672 421 660T438 623Q438 591 416 573T358 555Q329 555 305 563T261 580T224 588Q205 588 196 577T183 550H178Q156
550 140 562T123 599Q123 621 134 636T165 659T204 667Z" />
<glyph unicode="&#xf2;" horiz-adv-x="561" d="M517 234V234Q517 159 488 103T406 17T281 -14Q209 -14 156 16T74 102T45 234Q45 310 74 365T157 451T281 482Q352 482 405 452T487 366T517 234ZM281 399V399Q221 399 186 355T150 234Q150 156 184 113T281 69Q343
69 377 113T412 234Q412 311 377 355T281 399ZM247 540L152 637Q151 641 151 645T150 653Q150 674 163 686T197 699Q210 699 221 694T241 677L331 565Q329 544 317 533T289 521Q275 521 266 526T247 540Z" />
<glyph unicode="&#xf3;" horiz-adv-x="561" d="M517 234V234Q517 159 488 103T406 17T281 -14Q209 -14 156 16T74 102T45 234Q45 310 74 365T157 451T281 482Q352 482 405 452T487 366T517 234ZM281 399V399Q221 399 186 355T150 234Q150 156 184 113T281 69Q343
69 377 113T412 234Q412 311 377 355T281 399ZM260 594L358 703Q387 703 403 689T420 657Q420 641 413 631T390 605L298 519Q273 519 258 532T243 561Q243 571 247 578T260 594Z" />
<glyph unicode="&#xf4;" horiz-adv-x="561" d="M517 234V234Q517 159 488 103T406 17T281 -14Q209 -14 156 16T74 102T45 234Q45 310 74 365T157 451T281 482Q352 482 405 452T487 366T517 234ZM281 399V399Q221 399 186 355T150 234Q150 156 184 113T281 69Q343
69 377 113T412 234Q412 311 377 355T281 399ZM340 550L281 620Q257 592 236 570T195 524Q171 525 157 536T142 564Q142 578 149 588T169 611L224 669Q238 682 251 689T282 696Q300 696 313 689T342 665L422 568Q422 551 413 539T382 526Q369 526 360 532T340 550Z"
/>
<glyph unicode="&#xf5;" horiz-adv-x="561" d="M517 234V234Q517 159 488 103T406 17T281 -14Q209 -14 156 16T74 102T45 234Q45 310 74 365T157 451T281 482Q352 482 405 452T487 366T517 234ZM281 399V399Q221 399 186 355T150 234Q150 156 184 113T281 69Q343
69 377 113T412 234Q412 311 377 355T281 399ZM206 667V667Q234 667 257 659T301 643T338 634Q357 634 366 645T380 672H386Q407 672 423 660T440 623Q440 591 418 573T360 555Q331 555 307 563T263 580T226 588Q207 588 198 577T185 550H180Q158 550 142 562T125
599Q125 621 136 636T167 659T206 667Z" />
<glyph unicode="&#xf6;" horiz-adv-x="561" d="M517 234V234Q517 159 488 103T406 17T281 -14Q209 -14 156 16T74 102T45 234Q45 310 74 365T157 451T281 482Q352 482 405 452T487 366T517 234ZM281 399V399Q221 399 186 355T150 234Q150 156 184 113T281 69Q343
69 377 113T412 234Q412 311 377 355T281 399ZM247 864V864Q247 841 231 825T188 808Q164 808 148 824T132 864Q132 888 148 904T188 921Q215 921 231 905T247 864ZM431 864V864Q431 841 415 825T372 808Q348 808 331 824T314 864Q314 888 331 904T372 921Q398
921 414 905T431 864Z" />
<glyph unicode="&#xf7;" horiz-adv-x="523" d="M436 255H55Q51 263 49 273T46 295Q46 317 57 327T87 338H468Q471 331 474 321T477 298Q477 277 466 266T436 255ZM204 131V131Q204 157 220 174T264 191Q291 191 307 174T323 131Q323 106 307 89T264 72Q237 72
221 89T204 131ZM204 459V459Q204 485 220 502T264 519Q291 519 307 502T323 459Q323 433 307 416T264 399Q237 399 221 416T204 459Z" />
<glyph unicode="&#xf8;" horiz-adv-x="561" d="M429 395L379 446L434 529Q448 529 460 525T480 512T488 490Q488 482 481 473L429 395ZM189 32L126 -61Q112 -61 100 -56T80 -42T72 -23Q72 -13 79 -4L125 64L189 32ZM206 57L165 119L345 396L406 368L206 57ZM517
234V234Q517 159 488 103T406 17T281 -14Q210 -14 157 16T74 102T45 234Q45 310 74 365T157 451T281 482Q352 482 405 452T487 366T517 234ZM281 399V399Q221 399 183 356T145 234Q145 156 182 113T281 69Q343 69 379 112T416 234Q416 312 379 355T281 399Z" />
<glyph unicode="&#xf9;" horiz-adv-x="558" d="M69 175V260H172V178Q172 120 202 95T287 69Q323 69 348 76T386 92V260H489V88Q489 66 482 52T454 25Q429 10 386 -2T286 -14Q219 -14 170 6T95 68T69 175ZM489 210H386V466Q393 468 406 471T433 474Q462 474 475
464T489 426V210ZM172 210H69V466Q76 468 89 471T117 474Q145 474 158 464T172 426V210ZM233 540L138 637Q137 641 137 645T136 653Q136 674 149 686T183 699Q196 699 207 694T227 677L317 565Q315 544 303 533T275 521Q261 521 252 526T233 540Z" />
<glyph unicode="&#xfa;" horiz-adv-x="558" d="M69 175V260H172V178Q172 120 202 95T287 69Q323 69 348 76T386 92V260H489V88Q489 66 482 52T454 25Q429 10 386 -2T286 -14Q219 -14 170 6T95 68T69 175ZM489 210H386V466Q393 468 406 471T433 474Q462 474 475
464T489 426V210ZM172 210H69V466Q76 468 89 471T117 474Q145 474 158 464T172 426V210ZM258 594L356 703Q385 703 401 689T418 657Q418 641 411 631T388 605L296 519Q271 519 256 532T241 561Q241 571 245 578T258 594Z" />
<glyph unicode="&#xfb;" horiz-adv-x="558" d="M69 175V260H172V178Q172 120 202 95T287 69Q323 69 348 76T386 92V260H489V88Q489 66 482 52T454 25Q429 10 386 -2T286 -14Q219 -14 170 6T95 68T69 175ZM489 210H386V466Q393 468 406 471T433 474Q462 474 475
464T489 426V210ZM172 210H69V466Q76 468 89 471T117 474Q145 474 158 464T172 426V210ZM340 550L281 620Q257 592 236 570T195 524Q171 525 157 536T142 564Q142 578 149 588T169 611L224 669Q238 682 251 689T282 696Q300 696 313 689T342 665L422 568Q422 551
413 539T382 526Q369 526 360 532T340 550Z" />
<glyph unicode="&#xfc;" horiz-adv-x="558" d="M69 175V260H172V178Q172 120 202 95T287 69Q323 69 348 76T386 92V260H489V88Q489 66 482 52T454 25Q429 10 386 -2T286 -14Q219 -14 170 6T95 68T69 175ZM489 210H386V466Q393 468 406 471T433 474Q462 474 475
464T489 426V210ZM172 210H69V466Q76 468 89 471T117 474Q145 474 158 464T172 426V210ZM243 864V864Q243 841 227 825T184 808Q160 808 144 824T128 864Q128 888 144 904T184 921Q211 921 227 905T243 864ZM427 864V864Q427 841 411 825T368 808Q344 808 327 824T310
864Q310 888 327 904T368 921Q394 921 410 905T427 864Z" />
<glyph unicode="&#xfd;" horiz-adv-x="505" d="M159 108V108Q142 141 120 193T74 311T28 452Q36 463 50 470T82 477Q104 477 118 467T140 431Q167 350 197 271T261 108H265Q285 151 306 212T346 340T378 467Q388 471 399 474T422 477Q444 477 458 467T473 435Q473
415 465 377T441 289T406 187T363 82T317 -10Q269 -98 229 -144T152 -190Q124 -190 108 -175T89 -137Q110 -118 136 -90T186 -28T227 36Q210 41 194 55T159 108ZM226 594L324 703Q353 703 369 689T386 657Q386 641 379 631T356 605L264 519Q239 519 224 532T209
561Q209 571 213 578T226 594Z" />
<glyph unicode="&#xfe;" horiz-adv-x="562" d="M71 53H174V610Q174 634 161 645T118 657Q104 657 91 655T71 650V53ZM282 -13V-13Q349 -13 401 14T483 97T513 236Q513 322 482 376T398 456T280 482Q235 482 199 470T142 445L162 367Q184 382 210 390T269 399Q307
399 339 383T390 332T409 236Q409 150 371 110T267 70Q228 70 200 83T152 114V23Q171 9 206 -2T282 -13ZM174 80L71 82V-136Q71 -162 85 -173T127 -184Q142 -184 154 -182T174 -177V80Z" />
<glyph unicode="&#xff;" horiz-adv-x="505" d="M159 108V108Q142 141 120 193T74 311T28 452Q36 463 50 470T82 477Q104 477 118 467T140 431Q167 350 197 271T261 108H265Q285 151 306 212T346 340T378 467Q388 471 399 474T422 477Q444 477 458 467T473 435Q473
415 465 377T441 289T406 187T363 82T317 -10Q269 -98 229 -144T152 -190Q124 -190 108 -175T89 -137Q110 -118 136 -90T186 -28T227 36Q210 41 194 55T159 108ZM218 864V864Q218 841 202 825T159 808Q135 808 119 824T103 864Q103 888 119 904T159 921Q186 921
202 905T218 864ZM402 864V864Q402 841 386 825T343 808Q319 808 302 824T285 864Q285 888 302 904T343 921Q369 921 385 905T402 864Z" />
<glyph unicode="&#x2013;" horiz-adv-x="536" d="M450 218H55Q52 226 49 236T46 258Q46 280 57 290T87 301H481Q484 294 487 284T490 261Q490 240 480 229T450 218Z" />
<glyph unicode="&#x2014;" horiz-adv-x="769" d="M680 220H58Q54 228 51 238T48 261Q48 283 59 293T90 304H712Q715 297 718 286T721 264Q721 242 710 231T680 220Z" />
<glyph unicode="&#x2018;" horiz-adv-x="151" d="M56 648V648Q63 662 73 669T99 676Q109 676 119 673T138 664Q134 636 129 599T119 524T113 455Q103 451 92 448T66 445Q45 445 31 455T17 490Q17 511 23 542T39 603T56 648Z" />
<glyph unicode="&#x2019;" horiz-adv-x="149" d="M95 475V475Q88 461 78 454T52 447Q41 447 31 450T13 459Q18 487 23 523T32 597T38 666Q48 670 60 673T85 676Q105 676 119 666T134 632Q134 611 128 580T112 520T95 475Z" />
<glyph unicode="&#x201a;" horiz-adv-x="155" d="M95 -64V-64Q88 -78 78 -85T52 -92Q41 -92 31 -89T13 -80Q18 -52 23 -16T32 58T38 127Q48 131 60 134T85 137Q105 137 119 127T134 93Q134 72 128 41T112 -19T95 -64Z" />
<glyph unicode="&#x201c;" horiz-adv-x="297" d="M206 648V648Q213 662 222 669T247 676Q258 676 267 673T284 665Q281 637 276 600T266 524T260 455Q249 451 239 448T215 445Q193 445 181 455T168 490Q168 511 174 542T189 603T206 648ZM55 648V648Q62 662 71
669T96 676Q107 676 116 673T133 665Q129 637 124 600T114 524T108 455Q98 451 88 448T63 445Q42 445 30 455T17 490Q17 511 23 542T38 603T55 648Z" />
<glyph unicode="&#x201d;" horiz-adv-x="297" d="M91 475V475Q84 461 75 454T50 447Q39 447 30 450T13 458Q18 487 23 523T32 598T38 667Q48 671 59 673T83 676Q104 676 116 666T129 632Q129 611 123 580T108 520T91 475ZM243 475V475Q236 461 227 454T202 447Q191
447 182 450T165 458Q169 487 174 523T183 598T189 667Q199 671 210 673T234 676Q255 676 267 666T280 632Q280 611 275 580T260 520T243 475Z" />
<glyph unicode="&#x201e;" horiz-adv-x="303" d="M91 -64V-64Q84 -78 75 -85T50 -92Q39 -92 30 -89T13 -81Q18 -52 23 -16T32 59T38 128Q48 132 59 134T83 137Q104 137 116 127T129 93Q129 72 123 41T108 -19T91 -64ZM243 -64V-64Q236 -78 227 -85T202 -92Q191
-92 182 -89T165 -81Q169 -52 174 -16T183 59T189 128Q199 132 210 134T234 137Q255 137 267 127T280 93Q280 72 275 41T260 -19T243 -64Z" />
<glyph unicode="&#x2022;" horiz-adv-x="276" d="M46 282V282Q46 320 71 347T137 374Q179 374 204 347T229 282Q229 244 204 218T137 191Q96 191 71 217T46 282Z" />
<glyph unicode="&#x2039;" horiz-adv-x="291" d="M118 224L253 85Q253 67 241 52T205 36Q189 36 177 45T152 67L45 184Q40 191 37 201T34 224Q34 244 39 255T52 274L197 422Q222 417 234 405T246 376Q246 362 239 351T214 321L118 224Z" />
<glyph unicode="&#x203a;" horiz-adv-x="291" d="M172 235L38 374Q38 392 50 407T85 422Q101 422 114 414T138 392L246 275Q251 267 254 257T257 235Q257 215 252 204T238 185L93 36Q69 43 57 55T45 82Q45 97 52 108T77 138L172 235Z" />
</font>
</defs>
</svg>
